<?xml version="1.0" encoding="UTF-8" standalone="no"?><svg xmlns="http://www.w3.org/2000/svg" xmlns:xlink="http://www.w3.org/1999/xlink" contentScriptType="application/ecmascript" contentStyleType="text/css" height="1113px" preserveAspectRatio="none" style="width:1143px;height:1113px;background:#FFFFFF;" version="1.1" viewBox="0 0 1143 1113" width="1143px" zoomAndPan="magnify"><defs><filter height="300%" id="fjmo9qj73245r" width="300%" x="-1" y="-1"><feGaussianBlur result="blurOut" stdDeviation="2.0"/><feColorMatrix in="blurOut" result="blurOut2" type="matrix" values="0 0 0 0 0 0 0 0 0 0 0 0 0 0 0 0 0 0 .4 0"/><feOffset dx="4.0" dy="4.0" in="blurOut2" result="blurOut3"/><feBlend in="SourceGraphic" in2="blurOut3" mode="normal"/></filter></defs><g><!--MD5=[cc7199de7d3e82d413e313b3906f7f53]
class Orquestrador--><rect codeLine="2" fill="#FEFECE" filter="url(#fjmo9qj73245r)" height="99.2188" id="Orquestrador" style="stroke:#A80036;stroke-width:1.5;" width="186" x="506" y="192"/><ellipse cx="552.75" cy="208" fill="#ADD1B2" rx="11" ry="11" style="stroke:#A80036;stroke-width:1.0;"/><path d="M555.7188,213.6406 Q555.1406,213.9375 554.5,214.0781 Q553.8594,214.2344 553.1563,214.2344 Q550.6563,214.2344 549.3281,212.5938 Q548.0156,210.9375 548.0156,207.8125 Q548.0156,204.6875 549.3281,203.0313 Q550.6563,201.375 553.1563,201.375 Q553.8594,201.375 554.5,201.5313 Q555.1563,201.6875 555.7188,201.9844 L555.7188,204.7031 Q555.0938,204.125 554.5,203.8594 Q553.9063,203.5781 553.2813,203.5781 Q551.9375,203.5781 551.25,204.6563 Q550.5625,205.7188 550.5625,207.8125 Q550.5625,209.9063 551.25,210.9844 Q551.9375,212.0469 553.2813,212.0469 Q553.9063,212.0469 554.5,211.7813 Q555.0938,211.5 555.7188,210.9219 L555.7188,213.6406 Z " fill="#000000"/><text fill="#000000" font-family="sans-serif" font-size="12" lengthAdjust="spacing" textLength="84" x="573.25" y="212.1543">Orquestrador</text><line style="stroke:#A80036;stroke-width:1.5;" x1="507" x2="691" y1="224" y2="224"/><rect fill="none" height="6" style="stroke:#C82930;stroke-width:1.0;" width="6" x="514" y="232"/><text fill="#000000" font-family="sans-serif" font-size="11" lengthAdjust="spacing" textLength="108" x="526" y="238.2104">DecodificadorTexto</text><rect fill="none" height="6" style="stroke:#C82930;stroke-width:1.0;" width="6" x="514" y="244.8047"/><text fill="#000000" font-family="sans-serif" font-size="11" lengthAdjust="spacing" textLength="109" x="526" y="251.0151">ControladorMusical</text><line style="stroke:#A80036;stroke-width:1.5;" x1="507" x2="691" y1="257.6094" y2="257.6094"/><ellipse cx="517" cy="268.6094" fill="#84BE84" rx="3" ry="3" style="stroke:#038048;stroke-width:1.0;"/><text fill="#000000" font-family="sans-serif" font-size="11" lengthAdjust="spacing" textLength="160" x="526" y="271.8198">orquestra( String , Boolean)</text><ellipse cx="517" cy="281.4141" fill="#84BE84" rx="3" ry="3" style="stroke:#038048;stroke-width:1.0;"/><text fill="#000000" font-family="sans-serif" font-size="11" lengthAdjust="spacing" textLength="147" x="526" y="284.6245">definirInstrumento(String)</text><!--MD5=[6130c60027cb57cdf173ce39f44ff212]
class ControladorDeGui--><rect codeLine="9" fill="#FEFECE" filter="url(#fjmo9qj73245r)" height="124.8281" id="ControladorDeGui" style="stroke:#A80036;stroke-width:1.5;" width="158" x="727" y="7"/><ellipse cx="748.75" cy="23" fill="#ADD1B2" rx="11" ry="11" style="stroke:#A80036;stroke-width:1.0;"/><path d="M751.7188,28.6406 Q751.1406,28.9375 750.5,29.0781 Q749.8594,29.2344 749.1563,29.2344 Q746.6563,29.2344 745.3281,27.5938 Q744.0156,25.9375 744.0156,22.8125 Q744.0156,19.6875 745.3281,18.0313 Q746.6563,16.375 749.1563,16.375 Q749.8594,16.375 750.5,16.5313 Q751.1563,16.6875 751.7188,16.9844 L751.7188,19.7031 Q751.0938,19.125 750.5,18.8594 Q749.9063,18.5781 749.2813,18.5781 Q747.9375,18.5781 747.25,19.6563 Q746.5625,20.7188 746.5625,22.8125 Q746.5625,24.9063 747.25,25.9844 Q747.9375,27.0469 749.2813,27.0469 Q749.9063,27.0469 750.5,26.7813 Q751.0938,26.5 751.7188,25.9219 L751.7188,28.6406 Z " fill="#000000"/><text fill="#000000" font-family="sans-serif" font-size="12" lengthAdjust="spacing" textLength="111" x="764.25" y="27.1543">ControladorDeGui</text><line style="stroke:#A80036;stroke-width:1.5;" x1="728" x2="884" y1="39" y2="39"/><rect fill="none" height="6" style="stroke:#C82930;stroke-width:1.0;" width="6" x="735" y="47"/><text fill="#000000" font-family="sans-serif" font-size="11" lengthAdjust="spacing" textLength="58" x="747" y="53.2104">estadoGui</text><line style="stroke:#A80036;stroke-width:1.5;" x1="728" x2="884" y1="59.8047" y2="59.8047"/><ellipse cx="738" cy="70.8047" fill="#84BE84" rx="3" ry="3" style="stroke:#038048;stroke-width:1.0;"/><text fill="#000000" font-family="sans-serif" font-size="11" lengthAdjust="spacing" textLength="107" x="747" y="74.0151">entraTexto():String</text><ellipse cx="738" cy="83.6094" fill="#84BE84" rx="3" ry="3" style="stroke:#038048;stroke-width:1.0;"/><text fill="#000000" font-family="sans-serif" font-size="11" lengthAdjust="spacing" textLength="118" x="747" y="86.8198">entraArquivo():String</text><ellipse cx="738" cy="96.4141" fill="#84BE84" rx="3" ry="3" style="stroke:#038048;stroke-width:1.0;"/><text fill="#000000" font-family="sans-serif" font-size="11" lengthAdjust="spacing" textLength="132" x="747" y="99.6245">salvarMusica():Boolean</text><ellipse cx="738" cy="109.2188" fill="#84BE84" rx="3" ry="3" style="stroke:#038048;stroke-width:1.0;"/><text fill="#000000" font-family="sans-serif" font-size="11" lengthAdjust="spacing" textLength="35" x="747" y="112.4292">abrir()</text><ellipse cx="738" cy="122.0234" fill="#84BE84" rx="3" ry="3" style="stroke:#038048;stroke-width:1.0;"/><text fill="#000000" font-family="sans-serif" font-size="11" lengthAdjust="spacing" textLength="44" x="747" y="125.2339">fechar()</text><!--MD5=[7d76a4dd6f95527bc8376ae311f32e4a]
class LeitorDeArquivo--><rect codeLine="18" fill="#FEFECE" filter="url(#fjmo9qj73245r)" height="60.8047" id="LeitorDeArquivo" style="stroke:#A80036;stroke-width:1.5;" width="158" x="727" y="211"/><ellipse cx="754.6" cy="227" fill="#ADD1B2" rx="11" ry="11" style="stroke:#A80036;stroke-width:1.0;"/><path d="M757.5688,232.6406 Q756.9906,232.9375 756.35,233.0781 Q755.7094,233.2344 755.0063,233.2344 Q752.5063,233.2344 751.1781,231.5938 Q749.8656,229.9375 749.8656,226.8125 Q749.8656,223.6875 751.1781,222.0313 Q752.5063,220.375 755.0063,220.375 Q755.7094,220.375 756.35,220.5313 Q757.0063,220.6875 757.5688,220.9844 L757.5688,223.7031 Q756.9438,223.125 756.35,222.8594 Q755.7563,222.5781 755.1313,222.5781 Q753.7875,222.5781 753.1,223.6563 Q752.4125,224.7188 752.4125,226.8125 Q752.4125,228.9063 753.1,229.9844 Q753.7875,231.0469 755.1313,231.0469 Q755.7563,231.0469 756.35,230.7813 Q756.9438,230.5 757.5688,229.9219 L757.5688,232.6406 Z " fill="#000000"/><text fill="#000000" font-family="sans-serif" font-size="12" lengthAdjust="spacing" textLength="98" x="771.4" y="231.1543">LeitorDeArquivo</text><line style="stroke:#A80036;stroke-width:1.5;" x1="728" x2="884" y1="243" y2="243"/><line style="stroke:#A80036;stroke-width:1.5;" x1="728" x2="884" y1="251" y2="251"/><ellipse cx="738" cy="262" fill="#84BE84" rx="3" ry="3" style="stroke:#038048;stroke-width:1.0;"/><text fill="#000000" font-family="sans-serif" font-size="11" lengthAdjust="spacing" textLength="132" x="747" y="265.2104">leArquivo(String):String</text><!--MD5=[e0fddca87f21341e5dd21bbb64d2fab9]
class estadoGui--><rect codeLine="22" fill="#FEFECE" filter="url(#fjmo9qj73245r)" height="73.6094" id="estadoGui" style="stroke:#A80036;stroke-width:1.5;" width="139" x="920.5" y="204.5"/><ellipse cx="954.85" cy="220.5" fill="#EB937F" rx="11" ry="11" style="stroke:#A80036;stroke-width:1.0;"/><path d="M958.9594,226.5 L951.2406,226.5 L951.2406,214.1094 L958.9594,214.1094 L958.9594,216.2656 L953.6938,216.2656 L953.6938,218.9375 L958.4594,218.9375 L958.4594,221.0938 L953.6938,221.0938 L953.6938,224.3438 L958.9594,224.3438 L958.9594,226.5 Z " fill="#000000"/><text fill="#000000" font-family="sans-serif" font-size="12" lengthAdjust="spacing" textLength="64" x="973.15" y="224.6543">estadoGui</text><line style="stroke:#A80036;stroke-width:1.5;" x1="921.5" x2="1058.5" y1="236.5" y2="236.5"/><ellipse cx="931.5" cy="247.5" rx="3" ry="3" style="stroke:#038048;stroke-width:1.0;fill:none;"/><text fill="#000000" font-family="sans-serif" font-size="11" lengthAdjust="spacing" textLength="46" x="940.5" y="250.7104">Standby</text><ellipse cx="931.5" cy="260.3047" rx="3" ry="3" style="stroke:#038048;stroke-width:1.0;fill:none;"/><text fill="#000000" font-family="sans-serif" font-size="11" lengthAdjust="spacing" textLength="113" x="940.5" y="263.5151">ProcessandoMusica</text><line style="stroke:#A80036;stroke-width:1.5;" x1="921.5" x2="1058.5" y1="270.1094" y2="270.1094"/><!--MD5=[ad23146357bdd208a2f074f6030d17e8]
class DecodificadorTexto--><rect codeLine="27" fill="#FEFECE" filter="url(#fjmo9qj73245r)" height="60.8047" id="DecodificadorTexto" style="stroke:#A80036;stroke-width:1.5;" width="177" x="395.5" y="357.5"/><ellipse cx="421.75" cy="373.5" fill="#ADD1B2" rx="11" ry="11" style="stroke:#A80036;stroke-width:1.0;"/><path d="M424.7188,379.1406 Q424.1406,379.4375 423.5,379.5781 Q422.8594,379.7344 422.1563,379.7344 Q419.6563,379.7344 418.3281,378.0938 Q417.0156,376.4375 417.0156,373.3125 Q417.0156,370.1875 418.3281,368.5313 Q419.6563,366.875 422.1563,366.875 Q422.8594,366.875 423.5,367.0313 Q424.1563,367.1875 424.7188,367.4844 L424.7188,370.2031 Q424.0938,369.625 423.5,369.3594 Q422.9063,369.0781 422.2813,369.0781 Q420.9375,369.0781 420.25,370.1563 Q419.5625,371.2188 419.5625,373.3125 Q419.5625,375.4063 420.25,376.4844 Q420.9375,377.5469 422.2813,377.5469 Q422.9063,377.5469 423.5,377.2813 Q424.0938,377 424.7188,376.4219 L424.7188,379.1406 Z " fill="#000000"/><text fill="#000000" font-family="sans-serif" font-size="12" lengthAdjust="spacing" textLength="120" x="438.25" y="377.6543">DecodificadorTexto</text><line style="stroke:#A80036;stroke-width:1.5;" x1="396.5" x2="571.5" y1="389.5" y2="389.5"/><line style="stroke:#A80036;stroke-width:1.5;" x1="396.5" x2="571.5" y1="397.5" y2="397.5"/><ellipse cx="406.5" cy="408.5" fill="#84BE84" rx="3" ry="3" style="stroke:#038048;stroke-width:1.0;"/><text fill="#000000" font-family="sans-serif" font-size="11" lengthAdjust="spacing" textLength="151" x="415.5" y="411.7104">traduzTexto(String):Musica</text><!--MD5=[1779cf4dea73243dda24388918ce614c]
class TradutorTextoComando--><rect codeLine="31" fill="#FEFECE" filter="url(#fjmo9qj73245r)" height="60.8047" id="TradutorTextoComando" style="stroke:#A80036;stroke-width:1.5;" width="180" x="169" y="529.5"/><ellipse cx="184" cy="545.5" fill="#B4A7E5" rx="11" ry="11" style="stroke:#A80036;stroke-width:1.0;"/><path d="M179.9219,541.2656 L179.9219,539.1094 L187.3125,539.1094 L187.3125,541.2656 L184.8438,541.2656 L184.8438,549.3438 L187.3125,549.3438 L187.3125,551.5 L179.9219,551.5 L179.9219,549.3438 L182.3906,549.3438 L182.3906,541.2656 L179.9219,541.2656 Z " fill="#000000"/><text fill="#000000" font-family="sans-serif" font-size="12" font-style="italic" lengthAdjust="spacing" textLength="148" x="198" y="549.6543">TradutorTextoComando</text><line style="stroke:#A80036;stroke-width:1.5;" x1="170" x2="348" y1="561.5" y2="561.5"/><line style="stroke:#A80036;stroke-width:1.5;" x1="170" x2="348" y1="569.5" y2="569.5"/><ellipse cx="180" cy="580.5" fill="#84BE84" rx="3" ry="3" style="stroke:#038048;stroke-width:1.0;"/><text fill="#000000" font-family="sans-serif" font-size="11" lengthAdjust="spacing" textLength="133" x="189" y="583.7104">traduz(String):comando</text><!--MD5=[26e688f3331c1a80bfb7f45feb153195]
class TradutorTextoParaComando--><rect codeLine="35" fill="#FEFECE" filter="url(#fjmo9qj73245r)" height="48" id="TradutorTextoParaComando" style="stroke:#A80036;stroke-width:1.5;" width="208" x="7" y="746"/><ellipse cx="22" cy="762" fill="#ADD1B2" rx="11" ry="11" style="stroke:#A80036;stroke-width:1.0;"/><path d="M24.9688,767.6406 Q24.3906,767.9375 23.75,768.0781 Q23.1094,768.2344 22.4063,768.2344 Q19.9063,768.2344 18.5781,766.5938 Q17.2656,764.9375 17.2656,761.8125 Q17.2656,758.6875 18.5781,757.0313 Q19.9063,755.375 22.4063,755.375 Q23.1094,755.375 23.75,755.5313 Q24.4063,755.6875 24.9688,755.9844 L24.9688,758.7031 Q24.3438,758.125 23.75,757.8594 Q23.1563,757.5781 22.5313,757.5781 Q21.1875,757.5781 20.5,758.6563 Q19.8125,759.7188 19.8125,761.8125 Q19.8125,763.9063 20.5,764.9844 Q21.1875,766.0469 22.5313,766.0469 Q23.1563,766.0469 23.75,765.7813 Q24.3438,765.5 24.9688,764.9219 L24.9688,767.6406 Z " fill="#000000"/><text fill="#000000" font-family="sans-serif" font-size="12" lengthAdjust="spacing" textLength="176" x="36" y="766.1543">TradutorTextoParaComando</text><line style="stroke:#A80036;stroke-width:1.5;" x1="8" x2="214" y1="778" y2="778"/><line style="stroke:#A80036;stroke-width:1.5;" x1="8" x2="214" y1="786" y2="786"/><!--MD5=[815aba036e14179ebf1afa7ee6e3a016]
class ControladorMusical--><rect codeLine="37" fill="#FEFECE" filter="url(#fjmo9qj73245r)" height="73.6094" id="ControladorMusical" style="stroke:#A80036;stroke-width:1.5;" width="206" x="612" y="351"/><ellipse cx="651.3" cy="367" fill="#ADD1B2" rx="11" ry="11" style="stroke:#A80036;stroke-width:1.0;"/><path d="M654.2688,372.6406 Q653.6906,372.9375 653.05,373.0781 Q652.4094,373.2344 651.7063,373.2344 Q649.2063,373.2344 647.8781,371.5938 Q646.5656,369.9375 646.5656,366.8125 Q646.5656,363.6875 647.8781,362.0313 Q649.2063,360.375 651.7063,360.375 Q652.4094,360.375 653.05,360.5313 Q653.7063,360.6875 654.2688,360.9844 L654.2688,363.7031 Q653.6438,363.125 653.05,362.8594 Q652.4563,362.5781 651.8313,362.5781 Q650.4875,362.5781 649.8,363.6563 Q649.1125,364.7188 649.1125,366.8125 Q649.1125,368.9063 649.8,369.9844 Q650.4875,371.0469 651.8313,371.0469 Q652.4563,371.0469 653.05,370.7813 Q653.6438,370.5 654.2688,369.9219 L654.2688,372.6406 Z " fill="#000000"/><text fill="#000000" font-family="sans-serif" font-size="12" lengthAdjust="spacing" textLength="120" x="670.7" y="371.1543">ControladorMusical</text><line style="stroke:#A80036;stroke-width:1.5;" x1="613" x2="817" y1="383" y2="383"/><line style="stroke:#A80036;stroke-width:1.5;" x1="613" x2="817" y1="391" y2="391"/><ellipse cx="623" cy="402" fill="#84BE84" rx="3" ry="3" style="stroke:#038048;stroke-width:1.0;"/><text fill="#000000" font-family="sans-serif" font-size="11" lengthAdjust="spacing" textLength="180" x="632" y="405.2104">executaMusica(Musica,Boolean)</text><ellipse cx="623" cy="414.8047" fill="#84BE84" rx="3" ry="3" style="stroke:#038048;stroke-width:1.0;"/><text fill="#000000" font-family="sans-serif" font-size="11" lengthAdjust="spacing" textLength="151" x="632" y="418.0151">defineInstrumento(Musica)</text><!--MD5=[3947fcfebebf3a380209f6200e77d224]
class AdaptadorMusical--><rect codeLine="42" fill="#FEFECE" filter="url(#fjmo9qj73245r)" height="150.4375" id="AdaptadorMusical" style="stroke:#A80036;stroke-width:1.5;" width="192" x="619" y="485"/><ellipse cx="656.05" cy="501" fill="#B4A7E5" rx="11" ry="11" style="stroke:#A80036;stroke-width:1.0;"/><path d="M651.9719,496.7656 L651.9719,494.6094 L659.3625,494.6094 L659.3625,496.7656 L656.8938,496.7656 L656.8938,504.8438 L659.3625,504.8438 L659.3625,507 L651.9719,507 L651.9719,504.8438 L654.4406,504.8438 L654.4406,496.7656 L651.9719,496.7656 Z " fill="#000000"/><text fill="#000000" font-family="sans-serif" font-size="12" font-style="italic" lengthAdjust="spacing" textLength="111" x="674.95" y="505.1543">AdaptadorMusical</text><line style="stroke:#A80036;stroke-width:1.5;" x1="620" x2="810" y1="517" y2="517"/><line style="stroke:#A80036;stroke-width:1.5;" x1="620" x2="810" y1="525" y2="525"/><ellipse cx="630" cy="536" fill="#84BE84" rx="3" ry="3" style="stroke:#038048;stroke-width:1.0;"/><text fill="#000000" font-family="sans-serif" font-size="11" lengthAdjust="spacing" textLength="117" x="639" y="539.2104">tocarNota(Comando)</text><ellipse cx="630" cy="548.8047" fill="#84BE84" rx="3" ry="3" style="stroke:#038048;stroke-width:1.0;"/><text fill="#000000" font-family="sans-serif" font-size="11" lengthAdjust="spacing" textLength="99" x="639" y="552.0151">aumentarOitava()</text><ellipse cx="630" cy="561.6094" fill="#84BE84" rx="3" ry="3" style="stroke:#038048;stroke-width:1.0;"/><text fill="#000000" font-family="sans-serif" font-size="11" lengthAdjust="spacing" textLength="83" x="639" y="564.8198">reduzirOitava()</text><ellipse cx="630" cy="574.4141" fill="#84BE84" rx="3" ry="3" style="stroke:#038048;stroke-width:1.0;"/><text fill="#000000" font-family="sans-serif" font-size="11" lengthAdjust="spacing" textLength="105" x="639" y="577.6245">aumentarVolume()</text><ellipse cx="630" cy="587.2188" fill="#84BE84" rx="3" ry="3" style="stroke:#038048;stroke-width:1.0;"/><text fill="#000000" font-family="sans-serif" font-size="11" lengthAdjust="spacing" textLength="89" x="639" y="590.4292">reduzirVolume()</text><ellipse cx="630" cy="600.0234" fill="#84BE84" rx="3" ry="3" style="stroke:#038048;stroke-width:1.0;"/><text fill="#000000" font-family="sans-serif" font-size="11" lengthAdjust="spacing" textLength="166" x="639" y="603.2339">defineInstrumento(Comando)</text><ellipse cx="630" cy="612.8281" fill="#84BE84" rx="3" ry="3" style="stroke:#038048;stroke-width:1.0;"/><text fill="#000000" font-family="sans-serif" font-size="11" lengthAdjust="spacing" textLength="155" x="639" y="616.0386">incrementaInstrumento(int)</text><ellipse cx="630" cy="625.6328" fill="#84BE84" rx="3" ry="3" style="stroke:#038048;stroke-width:1.0;"/><text fill="#000000" font-family="sans-serif" font-size="11" lengthAdjust="spacing" textLength="77" x="639" y="628.8433">salvaMusica()</text><!--MD5=[20a2f73b19b4899378588d8d90d683d2]
class AdaptadorJFugue--><rect codeLine="53" fill="#FEFECE" filter="url(#fjmo9qj73245r)" height="99.2188" id="AdaptadorJFugue" style="stroke:#A80036;stroke-width:1.5;" width="140" x="645" y="720.5"/><ellipse cx="660" cy="736.5" fill="#ADD1B2" rx="11" ry="11" style="stroke:#A80036;stroke-width:1.0;"/><path d="M662.9688,742.1406 Q662.3906,742.4375 661.75,742.5781 Q661.1094,742.7344 660.4063,742.7344 Q657.9063,742.7344 656.5781,741.0938 Q655.2656,739.4375 655.2656,736.3125 Q655.2656,733.1875 656.5781,731.5313 Q657.9063,729.875 660.4063,729.875 Q661.1094,729.875 661.75,730.0313 Q662.4063,730.1875 662.9688,730.4844 L662.9688,733.2031 Q662.3438,732.625 661.75,732.3594 Q661.1563,732.0781 660.5313,732.0781 Q659.1875,732.0781 658.5,733.1563 Q657.8125,734.2188 657.8125,736.3125 Q657.8125,738.4063 658.5,739.4844 Q659.1875,740.5469 660.5313,740.5469 Q661.1563,740.5469 661.75,740.2813 Q662.3438,740 662.9688,739.4219 L662.9688,742.1406 Z " fill="#000000"/><text fill="#000000" font-family="sans-serif" font-size="12" lengthAdjust="spacing" textLength="108" x="674" y="740.6543">AdaptadorJFugue</text><line style="stroke:#A80036;stroke-width:1.5;" x1="646" x2="784" y1="752.5" y2="752.5"/><rect fill="none" height="6" style="stroke:#C82930;stroke-width:1.0;" width="6" x="653" y="760.5"/><text fill="#000000" font-family="sans-serif" font-size="11" lengthAdjust="spacing" textLength="24" x="665" y="766.7104">BPM</text><rect fill="none" height="6" style="stroke:#C82930;stroke-width:1.0;" width="6" x="653" y="773.3047"/><text fill="#000000" font-family="sans-serif" font-size="11" lengthAdjust="spacing" textLength="36" x="665" y="779.5151">Oitava</text><rect fill="none" height="6" style="stroke:#C82930;stroke-width:1.0;" width="6" x="653" y="786.1094"/><text fill="#000000" font-family="sans-serif" font-size="11" lengthAdjust="spacing" textLength="42" x="665" y="792.3198">Volume</text><rect fill="none" height="6" style="stroke:#C82930;stroke-width:1.0;" width="6" x="653" y="798.9141"/><text fill="#000000" font-family="sans-serif" font-size="11" lengthAdjust="spacing" textLength="69" x="665" y="805.1245">Instrumento</text><line style="stroke:#A80036;stroke-width:1.5;" x1="646" x2="784" y1="811.7188" y2="811.7188"/><!--MD5=[d63fe63646089ff52087578b35a1ed5a]
class JFugueDownloader--><rect codeLine="60" fill="#FEFECE" filter="url(#fjmo9qj73245r)" height="60.8047" id="JFugueDownloader" style="stroke:#A80036;stroke-width:1.5;" width="148" x="409" y="917.5"/><ellipse cx="424" cy="933.5" fill="#ADD1B2" rx="11" ry="11" style="stroke:#A80036;stroke-width:1.0;"/><path d="M426.9688,939.1406 Q426.3906,939.4375 425.75,939.5781 Q425.1094,939.7344 424.4063,939.7344 Q421.9063,939.7344 420.5781,938.0938 Q419.2656,936.4375 419.2656,933.3125 Q419.2656,930.1875 420.5781,928.5313 Q421.9063,926.875 424.4063,926.875 Q425.1094,926.875 425.75,927.0313 Q426.4063,927.1875 426.9688,927.4844 L426.9688,930.2031 Q426.3438,929.625 425.75,929.3594 Q425.1563,929.0781 424.5313,929.0781 Q423.1875,929.0781 422.5,930.1563 Q421.8125,931.2188 421.8125,933.3125 Q421.8125,935.4063 422.5,936.4844 Q423.1875,937.5469 424.5313,937.5469 Q425.1563,937.5469 425.75,937.2813 Q426.3438,937 426.9688,936.4219 L426.9688,939.1406 Z " fill="#000000"/><text fill="#000000" font-family="sans-serif" font-size="12" lengthAdjust="spacing" textLength="116" x="438" y="937.6543">JFugueDownloader</text><line style="stroke:#A80036;stroke-width:1.5;" x1="410" x2="556" y1="949.5" y2="949.5"/><line style="stroke:#A80036;stroke-width:1.5;" x1="410" x2="556" y1="957.5" y2="957.5"/><ellipse cx="420" cy="968.5" fill="#84BE84" rx="3" ry="3" style="stroke:#038048;stroke-width:1.0;"/><text fill="#000000" font-family="sans-serif" font-size="11" lengthAdjust="spacing" textLength="82" x="429" y="971.7104">salvarMusica()</text><!--MD5=[f549f87ec26c612c42cbcdc1340cf410]
class TradutorAdaptador--><rect codeLine="64" fill="#FEFECE" filter="url(#fjmo9qj73245r)" height="60.8047" id="TradutorAdaptador" style="stroke:#A80036;stroke-width:1.5;" width="245" x="592.5" y="917.5"/><ellipse cx="650.75" cy="933.5" fill="#B4A7E5" rx="11" ry="11" style="stroke:#A80036;stroke-width:1.0;"/><path d="M646.6719,929.2656 L646.6719,927.1094 L654.0625,927.1094 L654.0625,929.2656 L651.5938,929.2656 L651.5938,937.3438 L654.0625,937.3438 L654.0625,939.5 L646.6719,939.5 L646.6719,937.3438 L649.1406,937.3438 L649.1406,929.2656 L646.6719,929.2656 Z " fill="#000000"/><text fill="#000000" font-family="sans-serif" font-size="12" font-style="italic" lengthAdjust="spacing" textLength="120" x="671.25" y="937.6543">TradutorAdaptador</text><line style="stroke:#A80036;stroke-width:1.5;" x1="593.5" x2="836.5" y1="949.5" y2="949.5"/><line style="stroke:#A80036;stroke-width:1.5;" x1="593.5" x2="836.5" y1="957.5" y2="957.5"/><ellipse cx="603.5" cy="968.5" fill="#84BE84" rx="3" ry="3" style="stroke:#038048;stroke-width:1.0;"/><text fill="#000000" font-family="sans-serif" font-size="11" lengthAdjust="spacing" textLength="219" x="612.5" y="971.7104">traduzParaAdaptador(Comando):String</text><!--MD5=[03372b0263af18838c083ca65e435dfd]
class TradutorJFugue--><rect codeLine="68" fill="#FEFECE" filter="url(#fjmo9qj73245r)" height="48" id="TradutorJFugue" style="stroke:#A80036;stroke-width:1.5;" width="128" x="651" y="1051"/><ellipse cx="666" cy="1067" fill="#ADD1B2" rx="11" ry="11" style="stroke:#A80036;stroke-width:1.0;"/><path d="M668.9688,1072.6406 Q668.3906,1072.9375 667.75,1073.0781 Q667.1094,1073.2344 666.4063,1073.2344 Q663.9063,1073.2344 662.5781,1071.5938 Q661.2656,1069.9375 661.2656,1066.8125 Q661.2656,1063.6875 662.5781,1062.0313 Q663.9063,1060.375 666.4063,1060.375 Q667.1094,1060.375 667.75,1060.5313 Q668.4063,1060.6875 668.9688,1060.9844 L668.9688,1063.7031 Q668.3438,1063.125 667.75,1062.8594 Q667.1563,1062.5781 666.5313,1062.5781 Q665.1875,1062.5781 664.5,1063.6563 Q663.8125,1064.7188 663.8125,1066.8125 Q663.8125,1068.9063 664.5,1069.9844 Q665.1875,1071.0469 666.5313,1071.0469 Q667.1563,1071.0469 667.75,1070.7813 Q668.3438,1070.5 668.9688,1069.9219 L668.9688,1072.6406 Z " fill="#000000"/><text fill="#000000" font-family="sans-serif" font-size="12" lengthAdjust="spacing" textLength="96" x="680" y="1071.1543">TradutorJFugue</text><line style="stroke:#A80036;stroke-width:1.5;" x1="652" x2="778" y1="1083" y2="1083"/><line style="stroke:#A80036;stroke-width:1.5;" x1="652" x2="778" y1="1091" y2="1091"/><!--MD5=[60f538da2e3d3c2e5a13d43455efb760]
class Instrumento--><rect codeLine="72" fill="#FEFECE" filter="url(#fjmo9qj73245r)" height="86.4141" id="Instrumento" style="stroke:#A80036;stroke-width:1.5;" width="108" x="873" y="905"/><ellipse cx="888" cy="921" fill="#EB937F" rx="11" ry="11" style="stroke:#A80036;stroke-width:1.0;"/><path d="M892.1094,927 L884.3906,927 L884.3906,914.6094 L892.1094,914.6094 L892.1094,916.7656 L886.8438,916.7656 L886.8438,919.4375 L891.6094,919.4375 L891.6094,921.5938 L886.8438,921.5938 L886.8438,924.8438 L892.1094,924.8438 L892.1094,927 Z " fill="#000000"/><text fill="#000000" font-family="sans-serif" font-size="12" lengthAdjust="spacing" textLength="76" x="902" y="925.1543">Instrumento</text><line style="stroke:#A80036;stroke-width:1.5;" x1="874" x2="980" y1="937" y2="937"/><rect fill="none" height="6" style="stroke:#C82930;stroke-width:1.0;" width="6" x="881" y="945"/><text fill="#000000" font-family="sans-serif" font-size="11" lengthAdjust="spacing" textLength="40" x="893" y="951.2104">bateria</text><rect fill="none" height="6" style="stroke:#C82930;stroke-width:1.0;" width="6" x="881" y="957.8047"/><text fill="#000000" font-family="sans-serif" font-size="11" lengthAdjust="spacing" textLength="31" x="893" y="964.0151">piano</text><rect fill="none" height="6" style="stroke:#C82930;stroke-width:1.0;" width="6" x="881" y="970.6094"/><text fill="#000000" font-family="sans-serif" font-size="11" lengthAdjust="spacing" textLength="52" x="893" y="976.8198">guiatarra</text><line style="stroke:#A80036;stroke-width:1.5;" x1="874" x2="980" y1="983.4141" y2="983.4141"/><!--MD5=[51f0781105b9cf5fcba3c6a2af676f78]
class Comando--><rect codeLine="78" fill="#FEFECE" filter="url(#fjmo9qj73245r)" height="150.4375" id="Comando" style="stroke:#A80036;stroke-width:1.5;" width="91" x="250.5" y="695"/><ellipse cx="265.5" cy="711" fill="#EB937F" rx="11" ry="11" style="stroke:#A80036;stroke-width:1.0;"/><path d="M269.6094,717 L261.8906,717 L261.8906,704.6094 L269.6094,704.6094 L269.6094,706.7656 L264.3438,706.7656 L264.3438,709.4375 L269.1094,709.4375 L269.1094,711.5938 L264.3438,711.5938 L264.3438,714.8438 L269.6094,714.8438 L269.6094,717 Z " fill="#000000"/><text fill="#000000" font-family="sans-serif" font-size="12" lengthAdjust="spacing" textLength="59" x="279.5" y="715.1543">Comando</text><line style="stroke:#A80036;stroke-width:1.5;" x1="251.5" x2="340.5" y1="727" y2="727"/><ellipse cx="261.5" cy="738" rx="3" ry="3" style="stroke:#038048;stroke-width:1.0;fill:none;"/><text fill="#000000" font-family="sans-serif" font-size="11" lengthAdjust="spacing" textLength="14" x="270.5" y="741.2104">do</text><ellipse cx="261.5" cy="750.8047" rx="3" ry="3" style="stroke:#038048;stroke-width:1.0;fill:none;"/><text fill="#000000" font-family="sans-serif" font-size="11" lengthAdjust="spacing" textLength="12" x="270.5" y="754.0151">re</text><ellipse cx="261.5" cy="763.6094" rx="3" ry="3" style="stroke:#038048;stroke-width:1.0;fill:none;"/><text fill="#000000" font-family="sans-serif" font-size="11" lengthAdjust="spacing" textLength="14" x="270.5" y="766.8198">mi</text><ellipse cx="261.5" cy="776.4141" rx="3" ry="3" style="stroke:#038048;stroke-width:1.0;fill:none;"/><text fill="#000000" font-family="sans-serif" font-size="11" lengthAdjust="spacing" textLength="11" x="270.5" y="779.6245">fa</text><ellipse cx="261.5" cy="789.2188" rx="3" ry="3" style="stroke:#038048;stroke-width:1.0;fill:none;"/><text fill="#000000" font-family="sans-serif" font-size="11" lengthAdjust="spacing" textLength="17" x="270.5" y="792.4292">sol</text><ellipse cx="261.5" cy="802.0234" rx="3" ry="3" style="stroke:#038048;stroke-width:1.0;fill:none;"/><text fill="#000000" font-family="sans-serif" font-size="11" lengthAdjust="spacing" textLength="10" x="270.5" y="805.2339">la</text><ellipse cx="261.5" cy="814.8281" rx="3" ry="3" style="stroke:#038048;stroke-width:1.0;fill:none;"/><text fill="#000000" font-family="sans-serif" font-size="11" lengthAdjust="spacing" textLength="10" x="270.5" y="818.0386">si</text><text fill="#000000" font-family="sans-serif" font-size="11" lengthAdjust="spacing" textLength="12" x="270.5" y="830.8433">...</text><line style="stroke:#A80036;stroke-width:1.5;" x1="251.5" x2="340.5" y1="837.4375" y2="837.4375"/><!--MD5=[2927a630b13e88512b2d3b16c23c7e23]
class Musica--><rect codeLine="89" fill="#FEFECE" filter="url(#fjmo9qj73245r)" height="60.8047" id="Musica" style="stroke:#A80036;stroke-width:1.5;" width="199" x="384.5" y="529.5"/><ellipse cx="458.25" cy="545.5" fill="#ADD1B2" rx="11" ry="11" style="stroke:#A80036;stroke-width:1.0;"/><path d="M461.2188,551.1406 Q460.6406,551.4375 460,551.5781 Q459.3594,551.7344 458.6563,551.7344 Q456.1563,551.7344 454.8281,550.0938 Q453.5156,548.4375 453.5156,545.3125 Q453.5156,542.1875 454.8281,540.5313 Q456.1563,538.875 458.6563,538.875 Q459.3594,538.875 460,539.0313 Q460.6563,539.1875 461.2188,539.4844 L461.2188,542.2031 Q460.5938,541.625 460,541.3594 Q459.4063,541.0781 458.7813,541.0781 Q457.4375,541.0781 456.75,542.1563 Q456.0625,543.2188 456.0625,545.3125 Q456.0625,547.4063 456.75,548.4844 Q457.4375,549.5469 458.7813,549.5469 Q459.4063,549.5469 460,549.2813 Q460.5938,549 461.2188,548.4219 L461.2188,551.1406 Z " fill="#000000"/><text fill="#000000" font-family="sans-serif" font-size="12" lengthAdjust="spacing" textLength="43" x="478.75" y="549.6543">Musica</text><line style="stroke:#A80036;stroke-width:1.5;" x1="385.5" x2="582.5" y1="561.5" y2="561.5"/><rect fill="none" height="6" style="stroke:#C82930;stroke-width:1.0;" width="6" x="392.5" y="569.5"/><text fill="#000000" font-family="sans-serif" font-size="11" lengthAdjust="spacing" textLength="173" x="404.5" y="575.7104">sequenciaDeVisaoDeComando</text><line style="stroke:#A80036;stroke-width:1.5;" x1="385.5" x2="582.5" y1="582.3047" y2="582.3047"/><!--MD5=[7a4a5ba4faf179c21e693c027ac77c7b]
class VisaoDeComando--><rect codeLine="93" fill="#FEFECE" filter="url(#fjmo9qj73245r)" height="99.2188" id="VisaoDeComando" style="stroke:#A80036;stroke-width:1.5;" width="142" x="413" y="720.5"/><ellipse cx="428" cy="736.5" fill="#ADD1B2" rx="11" ry="11" style="stroke:#A80036;stroke-width:1.0;"/><path d="M430.9688,742.1406 Q430.3906,742.4375 429.75,742.5781 Q429.1094,742.7344 428.4063,742.7344 Q425.9063,742.7344 424.5781,741.0938 Q423.2656,739.4375 423.2656,736.3125 Q423.2656,733.1875 424.5781,731.5313 Q425.9063,729.875 428.4063,729.875 Q429.1094,729.875 429.75,730.0313 Q430.4063,730.1875 430.9688,730.4844 L430.9688,733.2031 Q430.3438,732.625 429.75,732.3594 Q429.1563,732.0781 428.5313,732.0781 Q427.1875,732.0781 426.5,733.1563 Q425.8125,734.2188 425.8125,736.3125 Q425.8125,738.4063 426.5,739.4844 Q427.1875,740.5469 428.5313,740.5469 Q429.1563,740.5469 429.75,740.2813 Q430.3438,740 430.9688,739.4219 L430.9688,742.1406 Z " fill="#000000"/><text fill="#000000" font-family="sans-serif" font-size="12" lengthAdjust="spacing" textLength="110" x="442" y="740.6543">VisaoDeComando</text><line style="stroke:#A80036;stroke-width:1.5;" x1="414" x2="554" y1="752.5" y2="752.5"/><rect fill="none" height="6" style="stroke:#C82930;stroke-width:1.0;" width="6" x="421" y="760.5"/><text fill="#000000" font-family="sans-serif" font-size="11" lengthAdjust="spacing" textLength="54" x="433" y="766.7104">Comando</text><rect fill="none" height="6" style="stroke:#C82930;stroke-width:1.0;" width="6" x="421" y="773.3047"/><text fill="#000000" font-family="sans-serif" font-size="11" lengthAdjust="spacing" textLength="62" x="433" y="779.5151">Repeticoes</text><line style="stroke:#A80036;stroke-width:1.5;" x1="414" x2="554" y1="786.1094" y2="786.1094"/><ellipse cx="424" cy="797.1094" fill="#84BE84" rx="3" ry="3" style="stroke:#038048;stroke-width:1.0;"/><text fill="#000000" font-family="sans-serif" font-size="11" lengthAdjust="spacing" textLength="102" x="433" y="800.3198">setRepeticoes(int)</text><ellipse cx="424" cy="809.9141" fill="#84BE84" rx="3" ry="3" style="stroke:#038048;stroke-width:1.0;"/><text fill="#000000" font-family="sans-serif" font-size="11" lengthAdjust="spacing" textLength="86" x="433" y="813.1245">incRepeticoes()</text><!--MD5=[baca43ff017fe2d6adab482eca4194c9]
class ValidadorDeComando--><rect codeLine="100" fill="#FEFECE" filter="url(#fjmo9qj73245r)" height="112.0234" id="ValidadorDeComando" style="stroke:#A80036;stroke-width:1.5;" width="283" x="846.5" y="504"/><ellipse cx="916.25" cy="520" fill="#ADD1B2" rx="11" ry="11" style="stroke:#A80036;stroke-width:1.0;"/><path d="M919.2188,525.6406 Q918.6406,525.9375 918,526.0781 Q917.3594,526.2344 916.6563,526.2344 Q914.1563,526.2344 912.8281,524.5938 Q911.5156,522.9375 911.5156,519.8125 Q911.5156,516.6875 912.8281,515.0313 Q914.1563,513.375 916.6563,513.375 Q917.3594,513.375 918,513.5313 Q918.6563,513.6875 919.2188,513.9844 L919.2188,516.7031 Q918.5938,516.125 918,515.8594 Q917.4063,515.5781 916.7813,515.5781 Q915.4375,515.5781 914.75,516.6563 Q914.0625,517.7188 914.0625,519.8125 Q914.0625,521.9063 914.75,522.9844 Q915.4375,524.0469 916.7813,524.0469 Q917.4063,524.0469 918,523.7813 Q918.5938,523.5 919.2188,522.9219 L919.2188,525.6406 Z " fill="#000000"/><text fill="#000000" font-family="sans-serif" font-size="12" lengthAdjust="spacing" textLength="135" x="936.75" y="524.1543">ValidadorDeComando</text><line style="stroke:#A80036;stroke-width:1.5;" x1="847.5" x2="1128.5" y1="536" y2="536"/><line style="stroke:#A80036;stroke-width:1.5;" x1="847.5" x2="1128.5" y1="544" y2="544"/><ellipse cx="857.5" cy="555" fill="#84BE84" rx="3" ry="3" style="stroke:#038048;stroke-width:1.0;"/><text fill="#000000" font-family="sans-serif" font-size="11" lengthAdjust="spacing" textLength="145" x="866.5" y="558.2104">eNota(Comando):Boolean</text><ellipse cx="857.5" cy="567.8047" fill="#84BE84" rx="3" ry="3" style="stroke:#038048;stroke-width:1.0;"/><text fill="#000000" font-family="sans-serif" font-size="11" lengthAdjust="spacing" textLength="230" x="866.5" y="571.0151">eComandoDeVolume(Comando):Boolean</text><ellipse cx="857.5" cy="580.6094" fill="#84BE84" rx="3" ry="3" style="stroke:#038048;stroke-width:1.0;"/><text fill="#000000" font-family="sans-serif" font-size="11" lengthAdjust="spacing" textLength="212" x="866.5" y="583.8198">eComandoDeBPM(Comando):Boolean</text><ellipse cx="857.5" cy="593.4141" fill="#84BE84" rx="3" ry="3" style="stroke:#038048;stroke-width:1.0;"/><text fill="#000000" font-family="sans-serif" font-size="11" lengthAdjust="spacing" textLength="224" x="866.5" y="596.6245">eComandoDeOitava(Comando):Boolean</text><ellipse cx="857.5" cy="606.2188" fill="#84BE84" rx="3" ry="3" style="stroke:#038048;stroke-width:1.0;"/><text fill="#000000" font-family="sans-serif" font-size="11" lengthAdjust="spacing" textLength="257" x="866.5" y="609.4292">eComandoDeInstrumento(Comando):Boolean</text><!--MD5=[b65eb35e67c12f80dde7b1f5192fa4e5]
reverse link TradutorTextoComando to TradutorTextoParaComando--><path d="M226,607.37 C195.38,650.42 151.05,712.71 127.37,745.99 " fill="none" id="TradutorTextoComando-backto-TradutorTextoParaComando" style="stroke:#A80036;stroke-width:1.0;stroke-dasharray:7.0,7.0;"/><polygon fill="none" points="220.5,603.04,237.8,590.8,231.9,611.16,220.5,603.04" style="stroke:#A80036;stroke-width:1.0;"/><!--MD5=[5fd119549db5b76968d1fa7f6bc1a1f0]
reverse link AdaptadorMusical to AdaptadorJFugue--><path d="M715,655.21 C715,677.79 715,700.98 715,720.49 " fill="none" id="AdaptadorMusical-backto-AdaptadorJFugue" style="stroke:#A80036;stroke-width:1.0;stroke-dasharray:7.0,7.0;"/><polygon fill="none" points="708,655.21,715,635.21,722,655.21,708,655.21" style="stroke:#A80036;stroke-width:1.0;"/><!--MD5=[8641968d1feeec22deeb3530b4067c26]
reverse link TradutorAdaptador to TradutorJFugue--><path d="M715,998.7 C715,1016.71 715,1036.2 715,1050.83 " fill="none" id="TradutorAdaptador-backto-TradutorJFugue" style="stroke:#A80036;stroke-width:1.0;stroke-dasharray:7.0,7.0;"/><polygon fill="none" points="708,998.62,715,978.62,722,998.62,708,998.62" style="stroke:#A80036;stroke-width:1.0;"/><!--MD5=[c84fb3473115a2a87a2fcaf60169d81c]
link ControladorDeGui to Orquestrador--><path codeLine="109" d="M730.98,132.11 C708.43,150.63 683.93,170.75 662.22,188.58 " fill="none" id="ControladorDeGui-to-Orquestrador" style="stroke:#A80036;stroke-width:1.0;"/><polygon fill="#A80036" points="658.2,191.88,667.697,189.271,662.0679,188.7115,662.6274,183.0824,658.2,191.88" style="stroke:#A80036;stroke-width:1.0;"/><!--MD5=[a9d8ee9710f9efd6032c71ad5d4693c3]
link ControladorDeGui to LeitorDeArquivo--><path codeLine="110" d="M806,132.35 C806,157.04 806,184.53 806,205.63 " fill="none" id="ControladorDeGui-to-LeitorDeArquivo" style="stroke:#A80036;stroke-width:1.0;"/><polygon fill="#A80036" points="806,210.84,810,201.84,806,205.84,802,201.84,806,210.84" style="stroke:#A80036;stroke-width:1.0;"/><!--MD5=[65325e9f065709b66df0d36f925f31bd]
link AdaptadorJFugue to JFugueDownloader--><path codeLine="111" d="M650.99,819.56 C611.29,849.67 561.36,887.56 526.28,914.16 " fill="none" id="AdaptadorJFugue-to-JFugueDownloader" style="stroke:#A80036;stroke-width:1.0;"/><polygon fill="#A80036" points="522.08,917.35,531.6672,915.095,526.0627,914.3271,526.8306,908.7226,522.08,917.35" style="stroke:#A80036;stroke-width:1.0;"/><!--MD5=[62aa4cb5e3dd877af5d40116dfa1e6ba]
link Orquestrador to ControladorMusical--><path codeLine="112" d="M637.95,291.02 C652.39,309.01 668.6,329.2 682.42,346.41 " fill="none" id="Orquestrador-to-ControladorMusical" style="stroke:#A80036;stroke-width:1.0;"/><polygon fill="#A80036" points="685.88,350.72,683.3685,341.1968,682.7513,346.8198,677.1282,346.2027,685.88,350.72" style="stroke:#A80036;stroke-width:1.0;"/><!--MD5=[1b1bcea03a752c7124aec79bab20add1]
link Orquestrador to DecodificadorTexto--><path codeLine="113" d="M560.39,291.02 C544.13,311.45 525.61,334.72 510.87,353.24 " fill="none" id="Orquestrador-to-DecodificadorTexto" style="stroke:#A80036;stroke-width:1.0;"/><polygon fill="#A80036" points="507.6,357.35,516.3336,352.7976,510.713,353.4373,510.0733,347.8167,507.6,357.35" style="stroke:#A80036;stroke-width:1.0;"/><!--MD5=[7fdd772908b8c3c928ae37a7efadeb59]
link DecodificadorTexto to TradutorTextoComando--><path codeLine="114" d="M444.81,418.61 C405,448.69 343.51,495.15 302.29,526.29 " fill="none" id="DecodificadorTexto-to-TradutorTextoComando" style="stroke:#A80036;stroke-width:1.0;"/><polygon fill="#A80036" points="298.12,529.44,307.7111,527.2016,302.108,526.424,302.8855,520.8209,298.12,529.44" style="stroke:#A80036;stroke-width:1.0;"/><!--MD5=[dc0470bf4ec233f20c7c20b737be2079]
link DecodificadorTexto to Musica--><path codeLine="115" d="M484,418.61 C484,448.02 484,493.09 484,524.19 " fill="none" id="DecodificadorTexto-to-Musica" style="stroke:#A80036;stroke-width:1.0;"/><polygon fill="#A80036" points="484,529.44,488,520.44,484,524.44,480,520.44,484,529.44" style="stroke:#A80036;stroke-width:1.0;"/><!--MD5=[0d3daf707f0727c8f6208f40d95f6c89]
link ControladorMusical to AdaptadorMusical--><path codeLine="116" d="M715,425.05 C715,441 715,460.43 715,479.5 " fill="none" id="ControladorMusical-to-AdaptadorMusical" style="stroke:#A80036;stroke-width:1.0;"/><polygon fill="#A80036" points="715,484.86,719,475.86,715,479.86,711,475.86,715,484.86" style="stroke:#A80036;stroke-width:1.0;"/><!--MD5=[30ca05da6a31f9e99e98f12680d53e46]
link ControladorMusical to ValidadorDeComando--><path codeLine="117" d="M772.9,425.05 C808.38,447.15 854.63,475.95 895.14,501.17 " fill="none" id="ControladorMusical-to-ValidadorDeComando" style="stroke:#A80036;stroke-width:1.0;stroke-dasharray:7.0,7.0;"/><polygon fill="#A80036" points="899.54,503.92,894.0157,495.7664,895.296,501.2764,889.7859,502.5568,899.54,503.92" style="stroke:#A80036;stroke-width:1.0;"/><!--MD5=[b32da690e438aa28f7a9d3c66551d285]
link TradutorTextoComando to Comando--><path codeLine="118" d="M264.3,590.8 C268.89,616.6 275.74,655.12 281.9,689.75 " fill="none" id="TradutorTextoComando-to-Comando" style="stroke:#A80036;stroke-width:1.0;"/><polygon fill="#A80036" points="282.81,694.83,285.1502,685.2632,281.9231,689.9093,277.2771,686.6822,282.81,694.83" style="stroke:#A80036;stroke-width:1.0;"/><!--MD5=[570e8251817d076629998f888b591c14]
link ControladorDeGui to estadoGui--><path codeLine="119" d="M872.69,132.11 C897.48,155.02 924.93,180.38 947.04,200.81 " fill="none" id="ControladorDeGui-to-estadoGui" style="stroke:#A80036;stroke-width:1.0;"/><polygon fill="#A80036" points="950.82,204.3,946.9345,195.25,947.1515,200.9027,941.4988,201.1196,950.82,204.3" style="stroke:#A80036;stroke-width:1.0;"/><!--MD5=[9bd65c19b445a9e48b025a3bf08fc8d4]
link AdaptadorJFugue to Instrumento--><path codeLine="120" d="M773.49,819.56 C804.34,845.17 841.96,876.4 872.23,901.53 " fill="none" id="AdaptadorJFugue-to-Instrumento" style="stroke:#A80036;stroke-width:1.0;"/><polygon fill="#A80036" points="876.26,904.88,871.8841,896.0567,872.4107,901.6889,866.7784,902.2155,876.26,904.88" style="stroke:#A80036;stroke-width:1.0;"/><!--MD5=[b9a0f738aa170f99b10fad7721a5c344]
link AdaptadorJFugue to TradutorAdaptador--><path codeLine="121" d="M715,819.56 C715,848.94 715,885.71 715,912.2 " fill="none" id="AdaptadorJFugue-to-TradutorAdaptador" style="stroke:#A80036;stroke-width:1.0;"/><polygon fill="#A80036" points="715,917.35,719,908.35,715,912.35,711,908.35,715,917.35" style="stroke:#A80036;stroke-width:1.0;"/><!--MD5=[76e561e2059fcdf75bea52265d9c6e9c]
link Musica to VisaoDeComando--><path codeLine="122" d="M484,590.8 C484,623.16 484,675.52 484,715.12 " fill="none" id="Musica-to-VisaoDeComando" style="stroke:#A80036;stroke-width:1.0;"/><polygon fill="#A80036" points="484,720.38,488,711.38,484,715.38,480,711.38,484,720.38" style="stroke:#A80036;stroke-width:1.0;"/><!--MD5=[d418c63656482b17004edf5ad593b5e1]
@startuml classes

class Orquestrador{
    - DecodificadorTexto
    - ControladorMusical
    + orquestra( String , Boolean)
    + definirInstrumento(String)
}

class ControladorDeGui{
    - estadoGui
    + entraTexto():String
    + entraArquivo():String
    + salvarMusica():Boolean
    + abrir()
    + fechar()
}

class LeitorDeArquivo{
    + leArquivo(String):String
}

enum estadoGui{
    + Standby
    + ProcessandoMusica
}

class DecodificadorTexto{
    + traduzTexto(String):Musica
}

interface TradutorTextoComando{
    + traduz(String):comando
}

class TradutorTextoParaComando implements TradutorTextoComando{}

class ControladorMusical{
    + executaMusica(Musica,Boolean)
    + defineInstrumento(Musica)
}

interface AdaptadorMusical{
    + tocarNota(Comando)
    + aumentarOitava()
    + reduzirOitava()
    + aumentarVolume()
    + reduzirVolume()
    + defineInstrumento(Comando)
    + incrementaInstrumento(int)
    + salvaMusica()
}

class AdaptadorJFugue implements AdaptadorMusical{
    - BPM
    - Oitava
    - Volume
    - Instrumento
}

class JFugueDownloader{
    + salvarMusica()
}

interface TradutorAdaptador{
    + traduzParaAdaptador(Comando):String
}

class TradutorJFugue implements TradutorAdaptador{

}

enum Instrumento{
    - bateria
    - piano
    - guiatarra
}

enum Comando{
    + do
    + re
    + mi
    + fa
    + sol
    + la
    + si
    ...
}

class Musica{
    - sequenciaDeVisaoDeComando
}

class VisaoDeComando{
    - Comando
    - Repeticoes
    + setRepeticoes(int)
    + incRepeticoes()
}

class ValidadorDeComando{
    + eNota(Comando):Boolean
    + eComandoDeVolume(Comando):Boolean
    + eComandoDeBPM(Comando):Boolean
    + eComandoDeOitava(Comando):Boolean
    + eComandoDeInstrumento(Comando):Boolean
}


ControladorDeGui - -> Orquestrador
ControladorDeGui - -> LeitorDeArquivo
AdaptadorJFugue - -> JFugueDownloader
Orquestrador - -> ControladorMusical
Orquestrador - -> DecodificadorTexto
DecodificadorTexto - -> TradutorTextoComando
DecodificadorTexto - -> Musica
ControladorMusical - -> AdaptadorMusical
ControladorMusical ..> ValidadorDeComando
TradutorTextoComando - -> Comando
ControladorDeGui - -> estadoGui
AdaptadorJFugue - -> Instrumento
AdaptadorJFugue - -> TradutorAdaptador
Musica - -> VisaoDeComando


@enduml

PlantUML version 1.2022.0(Tue Jan 11 13:16:42 BRT 2022)
(GPL source distribution)
Java Runtime: OpenJDK Runtime Environment
JVM: OpenJDK 64-Bit Server VM
Default Encoding: UTF-8
Language: en
Country: AU
--></g></svg>