<?xml version="1.0" encoding="UTF-8" standalone="no"?><svg xmlns="http://www.w3.org/2000/svg" xmlns:xlink="http://www.w3.org/1999/xlink" contentScriptType="application/ecmascript" contentStyleType="text/css" height="924px" preserveAspectRatio="none" style="width:785px;height:924px;background:#FFFFFF;" version="1.1" viewBox="0 0 785 924" width="785px" zoomAndPan="magnify"><defs><filter height="300%" id="favn9i1lfyakc" width="300%" x="-1" y="-1"><feGaussianBlur result="blurOut" stdDeviation="2.0"/><feColorMatrix in="blurOut" result="blurOut2" type="matrix" values="0 0 0 0 0 0 0 0 0 0 0 0 0 0 0 0 0 0 .4 0"/><feOffset dx="4.0" dy="4.0" in="blurOut2" result="blurOut3"/><feBlend in="SourceGraphic" in2="blurOut3" mode="normal"/></filter></defs><g><!--MD5=[cc7199de7d3e82d413e313b3906f7f53]
class Orquestrador--><rect codeLine="2" fill="#FEFECE" filter="url(#favn9i1lfyakc)" height="62.9819" id="Orquestrador" style="stroke:#A80036;stroke-width:1.5;" width="108" x="331.5" y="7"/><ellipse cx="346.5" cy="23" fill="#ADD1B2" rx="11" ry="11" style="stroke:#A80036;stroke-width:1.0;"/><path d="M345.9688,29.9219 Q344.2188,29.9219 343.0781,29.1875 Q341.9531,28.4375 341.3906,27.0938 Q340.8438,25.7344 340.8438,23.9375 Q340.8438,21.9063 341.5,20.4531 Q342.1563,19 343.4375,18.2188 Q344.7188,17.4375 346.5938,17.4375 Q347.4844,17.4375 348.1563,17.625 Q348.8281,17.7969 349.5156,18.1406 L348.7031,20.1563 Q348.0781,19.8438 347.5313,19.7188 Q347,19.5938 346.5156,19.5938 Q345.3438,19.5938 344.6406,20.125 Q343.9375,20.6563 343.6406,21.6094 Q343.3438,22.5625 343.3438,23.8281 Q343.3438,25.8438 344.0625,26.8125 Q344.7813,27.7656 346.375,27.7656 Q346.9688,27.7656 347.5938,27.6094 Q348.2188,27.4531 349.0469,27.0781 L349.0469,29.2969 Q348.3125,29.6094 347.5156,29.7656 Q346.7344,29.9219 345.9688,29.9219 Z " fill="#000000"/><text fill="#000000" font-family="sans-serif" font-size="12" lengthAdjust="spacing" textLength="76" x="360.5" y="27.656">Orquestrador</text><line style="stroke:#A80036;stroke-width:1.5;" x1="332.5" x2="438.5" y1="39" y2="39"/><line style="stroke:#A80036;stroke-width:1.5;" x1="332.5" x2="438.5" y1="47" y2="47"/><ellipse cx="342.5" cy="58" fill="#84BE84" rx="3" ry="3" style="stroke:#038048;stroke-width:1.0;"/><text fill="#000000" font-family="sans-serif" font-size="11" lengthAdjust="spacing" textLength="63" x="351.5" y="62.7589">orquestrar()</text><!--MD5=[6130c60027cb57cdf173ce39f44ff212]
class ControladorDeGui--><rect codeLine="6" fill="#FEFECE" filter="url(#favn9i1lfyakc)" height="107.9276" id="ControladorDeGui" style="stroke:#A80036;stroke-width:1.5;" width="134" x="90.5" y="130"/><ellipse cx="105.5" cy="146" fill="#ADD1B2" rx="11" ry="11" style="stroke:#A80036;stroke-width:1.0;"/><path d="M104.9688,152.9219 Q103.2188,152.9219 102.0781,152.1875 Q100.9531,151.4375 100.3906,150.0938 Q99.8438,148.7344 99.8438,146.9375 Q99.8438,144.9063 100.5,143.4531 Q101.1563,142 102.4375,141.2188 Q103.7188,140.4375 105.5938,140.4375 Q106.4844,140.4375 107.1563,140.625 Q107.8281,140.7969 108.5156,141.1406 L107.7031,143.1563 Q107.0781,142.8438 106.5313,142.7188 Q106,142.5938 105.5156,142.5938 Q104.3438,142.5938 103.6406,143.125 Q102.9375,143.6563 102.6406,144.6094 Q102.3438,145.5625 102.3438,146.8281 Q102.3438,148.8438 103.0625,149.8125 Q103.7813,150.7656 105.375,150.7656 Q105.9688,150.7656 106.5938,150.6094 Q107.2188,150.4531 108.0469,150.0781 L108.0469,152.2969 Q107.3125,152.6094 106.5156,152.7656 Q105.7344,152.9219 104.9688,152.9219 Z " fill="#000000"/><text fill="#000000" font-family="sans-serif" font-size="12" lengthAdjust="spacing" textLength="102" x="119.5" y="150.656">ControladorDeGui</text><line style="stroke:#A80036;stroke-width:1.5;" x1="91.5" x2="223.5" y1="162" y2="162"/><rect fill="none" height="6" style="stroke:#C82930;stroke-width:1.0;" width="6" x="98.5" y="170"/><text fill="#000000" font-family="sans-serif" font-size="11" lengthAdjust="spacing" textLength="53" x="110.5" y="177.7589">estadoGui</text><line style="stroke:#A80036;stroke-width:1.5;" x1="91.5" x2="223.5" y1="184.9819" y2="184.9819"/><ellipse cx="101.5" cy="195.9819" fill="#84BE84" rx="3" ry="3" style="stroke:#038048;stroke-width:1.0;"/><text fill="#000000" font-family="sans-serif" font-size="11" lengthAdjust="spacing" textLength="98" x="110.5" y="200.7408">entraTexto():String</text><ellipse cx="101.5" cy="210.9638" fill="#84BE84" rx="3" ry="3" style="stroke:#038048;stroke-width:1.0;"/><text fill="#000000" font-family="sans-serif" font-size="11" lengthAdjust="spacing" textLength="32" x="110.5" y="215.7227">abrir()</text><ellipse cx="101.5" cy="225.9457" fill="#84BE84" rx="3" ry="3" style="stroke:#038048;stroke-width:1.0;"/><text fill="#000000" font-family="sans-serif" font-size="11" lengthAdjust="spacing" textLength="39" x="110.5" y="230.7046">fechar()</text><!--MD5=[e0fddca87f21341e5dd21bbb64d2fab9]
class estadoGui--><rect codeLine="13" fill="#FEFECE" filter="url(#favn9i1lfyakc)" height="77.9638" id="estadoGui" style="stroke:#A80036;stroke-width:1.5;" width="129" x="7" y="320.5"/><ellipse cx="40" cy="336.5" fill="#EB937F" rx="11" ry="11" style="stroke:#A80036;stroke-width:1.0;"/><path d="M36.3594,343 L36.3594,330.8594 L44.0156,330.8594 L44.0156,332.9844 L38.7344,332.9844 L38.7344,335.6406 L43.75,335.6406 L43.75,337.7656 L38.7344,337.7656 L38.7344,340.875 L44.0156,340.875 L44.0156,343 L36.3594,343 Z " fill="#000000"/><text fill="#000000" font-family="sans-serif" font-size="12" lengthAdjust="spacing" textLength="57" x="58" y="341.156">estadoGui</text><line style="stroke:#A80036;stroke-width:1.5;" x1="8" x2="135" y1="352.5" y2="352.5"/><ellipse cx="18" cy="363.5" rx="3" ry="3" style="stroke:#038048;stroke-width:1.0;fill:none;"/><text fill="#000000" font-family="sans-serif" font-size="11" lengthAdjust="spacing" textLength="43" x="27" y="368.2589">Standby</text><ellipse cx="18" cy="378.4819" rx="3" ry="3" style="stroke:#038048;stroke-width:1.0;fill:none;"/><text fill="#000000" font-family="sans-serif" font-size="11" lengthAdjust="spacing" textLength="103" x="27" y="383.2408">ProcessandoMusica</text><line style="stroke:#A80036;stroke-width:1.5;" x1="8" x2="135" y1="390.4638" y2="390.4638"/><!--MD5=[ad23146357bdd208a2f074f6030d17e8]
class DecodificadorTexto--><rect codeLine="18" fill="#FEFECE" filter="url(#favn9i1lfyakc)" height="62.9819" id="DecodificadorTexto" style="stroke:#A80036;stroke-width:1.5;" width="166" x="302.5" y="152.5"/><ellipse cx="328.75" cy="168.5" fill="#ADD1B2" rx="11" ry="11" style="stroke:#A80036;stroke-width:1.0;"/><path d="M328.2188,175.4219 Q326.4688,175.4219 325.3281,174.6875 Q324.2031,173.9375 323.6406,172.5938 Q323.0938,171.2344 323.0938,169.4375 Q323.0938,167.4063 323.75,165.9531 Q324.4063,164.5 325.6875,163.7188 Q326.9688,162.9375 328.8438,162.9375 Q329.7344,162.9375 330.4063,163.125 Q331.0781,163.2969 331.7656,163.6406 L330.9531,165.6563 Q330.3281,165.3438 329.7813,165.2188 Q329.25,165.0938 328.7656,165.0938 Q327.5938,165.0938 326.8906,165.625 Q326.1875,166.1563 325.8906,167.1094 Q325.5938,168.0625 325.5938,169.3281 Q325.5938,171.3438 326.3125,172.3125 Q327.0313,173.2656 328.625,173.2656 Q329.2188,173.2656 329.8438,173.1094 Q330.4688,172.9531 331.2969,172.5781 L331.2969,174.7969 Q330.5625,175.1094 329.7656,175.2656 Q328.9844,175.4219 328.2188,175.4219 Z " fill="#000000"/><text fill="#000000" font-family="sans-serif" font-size="12" lengthAdjust="spacing" textLength="109" x="345.25" y="173.156">DecodificadorTexto</text><line style="stroke:#A80036;stroke-width:1.5;" x1="303.5" x2="467.5" y1="184.5" y2="184.5"/><line style="stroke:#A80036;stroke-width:1.5;" x1="303.5" x2="467.5" y1="192.5" y2="192.5"/><ellipse cx="313.5" cy="203.5" fill="#84BE84" rx="3" ry="3" style="stroke:#038048;stroke-width:1.0;"/><text fill="#000000" font-family="sans-serif" font-size="11" lengthAdjust="spacing" textLength="140" x="322.5" y="208.2589">traduzTexto(String):Musica</text><!--MD5=[1779cf4dea73243dda24388918ce614c]
class TradutorTextoComando--><rect codeLine="22" fill="#FEFECE" filter="url(#favn9i1lfyakc)" height="62.9819" id="TradutorTextoComando" style="stroke:#A80036;stroke-width:1.5;" width="162" x="171.5" y="328"/><ellipse cx="186.5" cy="344" fill="#B4A7E5" rx="11" ry="11" style="stroke:#A80036;stroke-width:1.0;"/><path d="M182.5313,350.5 L182.5313,348.7969 L184.8906,348.5313 L184.8906,340.3281 L182.5313,340.0625 L182.5313,338.3594 L189.6719,338.3594 L189.6719,340.0625 L187.25,340.3281 L187.25,348.5313 L189.6719,348.7969 L189.6719,350.5 L182.5313,350.5 Z " fill="#000000"/><text fill="#000000" font-family="sans-serif" font-size="12" font-style="italic" lengthAdjust="spacing" textLength="130" x="200.5" y="348.656">TradutorTextoComando</text><line style="stroke:#A80036;stroke-width:1.5;" x1="172.5" x2="332.5" y1="360" y2="360"/><line style="stroke:#A80036;stroke-width:1.5;" x1="172.5" x2="332.5" y1="368" y2="368"/><ellipse cx="182.5" cy="379" fill="#84BE84" rx="3" ry="3" style="stroke:#038048;stroke-width:1.0;"/><text fill="#000000" font-family="sans-serif" font-size="11" lengthAdjust="spacing" textLength="124" x="191.5" y="383.7589">traduz(String):comando</text><!--MD5=[26e688f3331c1a80bfb7f45feb153195]
class TradutorTextoParaComando--><rect codeLine="26" fill="#FEFECE" filter="url(#favn9i1lfyakc)" height="48" id="TradutorTextoParaComando" style="stroke:#A80036;stroke-width:1.5;" width="192" x="69.5" y="541"/><ellipse cx="84.5" cy="557" fill="#ADD1B2" rx="11" ry="11" style="stroke:#A80036;stroke-width:1.0;"/><path d="M83.9688,563.9219 Q82.2188,563.9219 81.0781,563.1875 Q79.9531,562.4375 79.3906,561.0938 Q78.8438,559.7344 78.8438,557.9375 Q78.8438,555.9063 79.5,554.4531 Q80.1563,553 81.4375,552.2188 Q82.7188,551.4375 84.5938,551.4375 Q85.4844,551.4375 86.1563,551.625 Q86.8281,551.7969 87.5156,552.1406 L86.7031,554.1563 Q86.0781,553.8438 85.5313,553.7188 Q85,553.5938 84.5156,553.5938 Q83.3438,553.5938 82.6406,554.125 Q81.9375,554.6563 81.6406,555.6094 Q81.3438,556.5625 81.3438,557.8281 Q81.3438,559.8438 82.0625,560.8125 Q82.7813,561.7656 84.375,561.7656 Q84.9688,561.7656 85.5938,561.6094 Q86.2188,561.4531 87.0469,561.0781 L87.0469,563.2969 Q86.3125,563.6094 85.5156,563.7656 Q84.7344,563.9219 83.9688,563.9219 Z " fill="#000000"/><text fill="#000000" font-family="sans-serif" font-size="12" lengthAdjust="spacing" textLength="160" x="98.5" y="561.656">TradutorTextoParaComando</text><line style="stroke:#A80036;stroke-width:1.5;" x1="70.5" x2="260.5" y1="573" y2="573"/><line style="stroke:#A80036;stroke-width:1.5;" x1="70.5" x2="260.5" y1="581" y2="581"/><!--MD5=[815aba036e14179ebf1afa7ee6e3a016]
class ControladorMusical--><rect codeLine="28" fill="#FEFECE" filter="url(#favn9i1lfyakc)" height="62.9819" id="ControladorMusical" style="stroke:#A80036;stroke-width:1.5;" width="144" x="525.5" y="152.5"/><ellipse cx="541.4" cy="168.5" fill="#ADD1B2" rx="11" ry="11" style="stroke:#A80036;stroke-width:1.0;"/><path d="M540.8688,175.4219 Q539.1188,175.4219 537.9781,174.6875 Q536.8531,173.9375 536.2906,172.5938 Q535.7438,171.2344 535.7438,169.4375 Q535.7438,167.4063 536.4,165.9531 Q537.0563,164.5 538.3375,163.7188 Q539.6188,162.9375 541.4938,162.9375 Q542.3844,162.9375 543.0563,163.125 Q543.7281,163.2969 544.4156,163.6406 L543.6031,165.6563 Q542.9781,165.3438 542.4313,165.2188 Q541.9,165.0938 541.4156,165.0938 Q540.2438,165.0938 539.5406,165.625 Q538.8375,166.1563 538.5406,167.1094 Q538.2438,168.0625 538.2438,169.3281 Q538.2438,171.3438 538.9625,172.3125 Q539.6813,173.2656 541.275,173.2656 Q541.8688,173.2656 542.4938,173.1094 Q543.1188,172.9531 543.9469,172.5781 L543.9469,174.7969 Q543.2125,175.1094 542.4156,175.2656 Q541.6344,175.4219 540.8688,175.4219 Z " fill="#000000"/><text fill="#000000" font-family="sans-serif" font-size="12" lengthAdjust="spacing" textLength="110" x="555.6" y="173.156">ControladorMusical</text><line style="stroke:#A80036;stroke-width:1.5;" x1="526.5" x2="668.5" y1="184.5" y2="184.5"/><line style="stroke:#A80036;stroke-width:1.5;" x1="526.5" x2="668.5" y1="192.5" y2="192.5"/><ellipse cx="536.5" cy="203.5" fill="#84BE84" rx="3" ry="3" style="stroke:#038048;stroke-width:1.0;"/><text fill="#000000" font-family="sans-serif" font-size="11" lengthAdjust="spacing" textLength="118" x="545.5" y="208.2589">executaMusica(Musica)</text><!--MD5=[3947fcfebebf3a380209f6200e77d224]
class AdaptadorMusical--><rect codeLine="32" fill="#FEFECE" filter="url(#favn9i1lfyakc)" height="122.9094" id="AdaptadorMusical" style="stroke:#A80036;stroke-width:1.5;" width="135" x="552" y="298"/><ellipse cx="569.25" cy="314" fill="#B4A7E5" rx="11" ry="11" style="stroke:#A80036;stroke-width:1.0;"/><path d="M565.2813,320.5 L565.2813,318.7969 L567.6406,318.5313 L567.6406,310.3281 L565.2813,310.0625 L565.2813,308.3594 L572.4219,308.3594 L572.4219,310.0625 L570,310.3281 L570,318.5313 L572.4219,318.7969 L572.4219,320.5 L565.2813,320.5 Z " fill="#000000"/><text fill="#000000" font-family="sans-serif" font-size="12" font-style="italic" lengthAdjust="spacing" textLength="98" x="583.75" y="318.656">AdaptadorMusical</text><line style="stroke:#A80036;stroke-width:1.5;" x1="553" x2="686" y1="330" y2="330"/><line style="stroke:#A80036;stroke-width:1.5;" x1="553" x2="686" y1="338" y2="338"/><ellipse cx="563" cy="349" fill="#84BE84" rx="3" ry="3" style="stroke:#038048;stroke-width:1.0;"/><text fill="#000000" font-family="sans-serif" font-size="11" lengthAdjust="spacing" textLength="109" x="572" y="353.7589">tocarNota(Comando)</text><ellipse cx="563" cy="363.9819" fill="#84BE84" rx="3" ry="3" style="stroke:#038048;stroke-width:1.0;"/><text fill="#000000" font-family="sans-serif" font-size="11" lengthAdjust="spacing" textLength="91" x="572" y="368.7408">aumentarOitava()</text><ellipse cx="563" cy="378.9638" fill="#84BE84" rx="3" ry="3" style="stroke:#038048;stroke-width:1.0;"/><text fill="#000000" font-family="sans-serif" font-size="11" lengthAdjust="spacing" textLength="78" x="572" y="383.7227">reduzirOitava()</text><ellipse cx="563" cy="393.9457" fill="#84BE84" rx="3" ry="3" style="stroke:#038048;stroke-width:1.0;"/><text fill="#000000" font-family="sans-serif" font-size="11" lengthAdjust="spacing" textLength="97" x="572" y="398.7046">aumentarVolume()</text><ellipse cx="563" cy="408.9276" fill="#84BE84" rx="3" ry="3" style="stroke:#038048;stroke-width:1.0;"/><text fill="#000000" font-family="sans-serif" font-size="11" lengthAdjust="spacing" textLength="84" x="572" y="413.6865">reduzirVolume()</text><!--MD5=[20a2f73b19b4899378588d8d90d683d2]
class AdaptadorJFugue--><rect codeLine="40" fill="#FEFECE" filter="url(#favn9i1lfyakc)" height="107.9276" id="AdaptadorJFugue" style="stroke:#A80036;stroke-width:1.5;" width="128" x="555.5" y="511"/><ellipse cx="570.5" cy="527" fill="#ADD1B2" rx="11" ry="11" style="stroke:#A80036;stroke-width:1.0;"/><path d="M569.9688,533.9219 Q568.2188,533.9219 567.0781,533.1875 Q565.9531,532.4375 565.3906,531.0938 Q564.8438,529.7344 564.8438,527.9375 Q564.8438,525.9063 565.5,524.4531 Q566.1563,523 567.4375,522.2188 Q568.7188,521.4375 570.5938,521.4375 Q571.4844,521.4375 572.1563,521.625 Q572.8281,521.7969 573.5156,522.1406 L572.7031,524.1563 Q572.0781,523.8438 571.5313,523.7188 Q571,523.5938 570.5156,523.5938 Q569.3438,523.5938 568.6406,524.125 Q567.9375,524.6563 567.6406,525.6094 Q567.3438,526.5625 567.3438,527.8281 Q567.3438,529.8438 568.0625,530.8125 Q568.7813,531.7656 570.375,531.7656 Q570.9688,531.7656 571.5938,531.6094 Q572.2188,531.4531 573.0469,531.0781 L573.0469,533.2969 Q572.3125,533.6094 571.5156,533.7656 Q570.7344,533.9219 569.9688,533.9219 Z " fill="#000000"/><text fill="#000000" font-family="sans-serif" font-size="12" lengthAdjust="spacing" textLength="96" x="584.5" y="531.656">AdaptadorJFugue</text><line style="stroke:#A80036;stroke-width:1.5;" x1="556.5" x2="682.5" y1="543" y2="543"/><rect fill="none" height="6" style="stroke:#C82930;stroke-width:1.0;" width="6" x="563.5" y="551"/><text fill="#000000" font-family="sans-serif" font-size="11" lengthAdjust="spacing" textLength="24" x="575.5" y="558.7589">BPM</text><rect fill="none" height="6" style="stroke:#C82930;stroke-width:1.0;" width="6" x="563.5" y="565.9819"/><text fill="#000000" font-family="sans-serif" font-size="11" lengthAdjust="spacing" textLength="34" x="575.5" y="573.7408">Oitava</text><rect fill="none" height="6" style="stroke:#C82930;stroke-width:1.0;" width="6" x="563.5" y="580.9638"/><text fill="#000000" font-family="sans-serif" font-size="11" lengthAdjust="spacing" textLength="40" x="575.5" y="588.7227">Volume</text><rect fill="none" height="6" style="stroke:#C82930;stroke-width:1.0;" width="6" x="563.5" y="595.9457"/><text fill="#000000" font-family="sans-serif" font-size="11" lengthAdjust="spacing" textLength="66" x="575.5" y="603.7046">Instrumento</text><line style="stroke:#A80036;stroke-width:1.5;" x1="556.5" x2="682.5" y1="610.9276" y2="610.9276"/><!--MD5=[f549f87ec26c612c42cbcdc1340cf410]
class TradutorAdaptador--><rect codeLine="47" fill="#FEFECE" filter="url(#favn9i1lfyakc)" height="62.9819" id="TradutorAdaptador" style="stroke:#A80036;stroke-width:1.5;" width="232" x="402.5" y="724"/><ellipse cx="461.25" cy="740" fill="#B4A7E5" rx="11" ry="11" style="stroke:#A80036;stroke-width:1.0;"/><path d="M457.2813,746.5 L457.2813,744.7969 L459.6406,744.5313 L459.6406,736.3281 L457.2813,736.0625 L457.2813,734.3594 L464.4219,734.3594 L464.4219,736.0625 L462,736.3281 L462,744.5313 L464.4219,744.7969 L464.4219,746.5 L457.2813,746.5 Z " fill="#000000"/><text fill="#000000" font-family="sans-serif" font-size="12" font-style="italic" lengthAdjust="spacing" textLength="106" x="481.75" y="744.656">TradutorAdaptador</text><line style="stroke:#A80036;stroke-width:1.5;" x1="403.5" x2="633.5" y1="756" y2="756"/><line style="stroke:#A80036;stroke-width:1.5;" x1="403.5" x2="633.5" y1="764" y2="764"/><ellipse cx="413.5" cy="775" fill="#84BE84" rx="3" ry="3" style="stroke:#038048;stroke-width:1.0;"/><text fill="#000000" font-family="sans-serif" font-size="11" lengthAdjust="spacing" textLength="206" x="422.5" y="779.7589">traduzParaAdaptador(Comando):String</text><!--MD5=[03372b0263af18838c083ca65e435dfd]
class TradutorJFugue--><rect codeLine="51" fill="#FEFECE" filter="url(#favn9i1lfyakc)" height="48" id="TradutorJFugue" style="stroke:#A80036;stroke-width:1.5;" width="118" x="459.5" y="862"/><ellipse cx="474.5" cy="878" fill="#ADD1B2" rx="11" ry="11" style="stroke:#A80036;stroke-width:1.0;"/><path d="M473.9688,884.9219 Q472.2188,884.9219 471.0781,884.1875 Q469.9531,883.4375 469.3906,882.0938 Q468.8438,880.7344 468.8438,878.9375 Q468.8438,876.9063 469.5,875.4531 Q470.1563,874 471.4375,873.2188 Q472.7188,872.4375 474.5938,872.4375 Q475.4844,872.4375 476.1563,872.625 Q476.8281,872.7969 477.5156,873.1406 L476.7031,875.1563 Q476.0781,874.8438 475.5313,874.7188 Q475,874.5938 474.5156,874.5938 Q473.3438,874.5938 472.6406,875.125 Q471.9375,875.6563 471.6406,876.6094 Q471.3438,877.5625 471.3438,878.8281 Q471.3438,880.8438 472.0625,881.8125 Q472.7813,882.7656 474.375,882.7656 Q474.9688,882.7656 475.5938,882.6094 Q476.2188,882.4531 477.0469,882.0781 L477.0469,884.2969 Q476.3125,884.6094 475.5156,884.7656 Q474.7344,884.9219 473.9688,884.9219 Z " fill="#000000"/><text fill="#000000" font-family="sans-serif" font-size="12" lengthAdjust="spacing" textLength="86" x="488.5" y="882.656">TradutorJFugue</text><line style="stroke:#A80036;stroke-width:1.5;" x1="460.5" x2="576.5" y1="894" y2="894"/><line style="stroke:#A80036;stroke-width:1.5;" x1="460.5" x2="576.5" y1="902" y2="902"/><!--MD5=[60f538da2e3d3c2e5a13d43455efb760]
class Instrumento--><rect codeLine="55" fill="#FEFECE" filter="url(#favn9i1lfyakc)" height="92.9457" id="Instrumento" style="stroke:#A80036;stroke-width:1.5;" width="101" x="670" y="709"/><ellipse cx="685" cy="725" fill="#EB937F" rx="11" ry="11" style="stroke:#A80036;stroke-width:1.0;"/><path d="M681.3594,731.5 L681.3594,719.3594 L689.0156,719.3594 L689.0156,721.4844 L683.7344,721.4844 L683.7344,724.1406 L688.75,724.1406 L688.75,726.2656 L683.7344,726.2656 L683.7344,729.375 L689.0156,729.375 L689.0156,731.5 L681.3594,731.5 Z " fill="#000000"/><text fill="#000000" font-family="sans-serif" font-size="12" lengthAdjust="spacing" textLength="69" x="699" y="729.656">Instrumento</text><line style="stroke:#A80036;stroke-width:1.5;" x1="671" x2="770" y1="741" y2="741"/><rect fill="none" height="6" style="stroke:#C82930;stroke-width:1.0;" width="6" x="678" y="749"/><text fill="#000000" font-family="sans-serif" font-size="11" lengthAdjust="spacing" textLength="37" x="690" y="756.7589">bateria</text><rect fill="none" height="6" style="stroke:#C82930;stroke-width:1.0;" width="6" x="678" y="763.9819"/><text fill="#000000" font-family="sans-serif" font-size="11" lengthAdjust="spacing" textLength="30" x="690" y="771.7408">piano</text><rect fill="none" height="6" style="stroke:#C82930;stroke-width:1.0;" width="6" x="678" y="778.9638"/><text fill="#000000" font-family="sans-serif" font-size="11" lengthAdjust="spacing" textLength="49" x="690" y="786.7227">guiatarra</text><line style="stroke:#A80036;stroke-width:1.5;" x1="671" x2="770" y1="793.9457" y2="793.9457"/><!--MD5=[51f0781105b9cf5fcba3c6a2af676f78]
class Comando--><rect codeLine="61" fill="#FEFECE" filter="url(#favn9i1lfyakc)" height="167.8551" id="Comando" style="stroke:#A80036;stroke-width:1.5;" width="86" x="296.5" y="481"/><ellipse cx="311.5" cy="497" fill="#EB937F" rx="11" ry="11" style="stroke:#A80036;stroke-width:1.0;"/><path d="M307.8594,503.5 L307.8594,491.3594 L315.5156,491.3594 L315.5156,493.4844 L310.2344,493.4844 L310.2344,496.1406 L315.25,496.1406 L315.25,498.2656 L310.2344,498.2656 L310.2344,501.375 L315.5156,501.375 L315.5156,503.5 L307.8594,503.5 Z " fill="#000000"/><text fill="#000000" font-family="sans-serif" font-size="12" lengthAdjust="spacing" textLength="54" x="325.5" y="501.656">Comando</text><line style="stroke:#A80036;stroke-width:1.5;" x1="297.5" x2="381.5" y1="513" y2="513"/><ellipse cx="307.5" cy="524" rx="3" ry="3" style="stroke:#038048;stroke-width:1.0;fill:none;"/><text fill="#000000" font-family="sans-serif" font-size="11" lengthAdjust="spacing" textLength="14" x="316.5" y="528.7589">do</text><ellipse cx="307.5" cy="538.9819" rx="3" ry="3" style="stroke:#038048;stroke-width:1.0;fill:none;"/><text fill="#000000" font-family="sans-serif" font-size="11" lengthAdjust="spacing" textLength="11" x="316.5" y="543.7408">re</text><ellipse cx="307.5" cy="553.9638" rx="3" ry="3" style="stroke:#038048;stroke-width:1.0;fill:none;"/><text fill="#000000" font-family="sans-serif" font-size="11" lengthAdjust="spacing" textLength="13" x="316.5" y="558.7227">mi</text><ellipse cx="307.5" cy="568.9457" rx="3" ry="3" style="stroke:#038048;stroke-width:1.0;fill:none;"/><text fill="#000000" font-family="sans-serif" font-size="11" lengthAdjust="spacing" textLength="10" x="316.5" y="573.7046">fa</text><ellipse cx="307.5" cy="583.9276" rx="3" ry="3" style="stroke:#038048;stroke-width:1.0;fill:none;"/><text fill="#000000" font-family="sans-serif" font-size="11" lengthAdjust="spacing" textLength="15" x="316.5" y="588.6865">sol</text><ellipse cx="307.5" cy="598.9094" rx="3" ry="3" style="stroke:#038048;stroke-width:1.0;fill:none;"/><text fill="#000000" font-family="sans-serif" font-size="11" lengthAdjust="spacing" textLength="9" x="316.5" y="603.6684">la</text><ellipse cx="307.5" cy="613.8913" rx="3" ry="3" style="stroke:#038048;stroke-width:1.0;fill:none;"/><text fill="#000000" font-family="sans-serif" font-size="11" lengthAdjust="spacing" textLength="8" x="316.5" y="618.6502">si</text><text fill="#000000" font-family="sans-serif" font-size="11" lengthAdjust="spacing" textLength="9" x="316.5" y="633.6321">...</text><line style="stroke:#A80036;stroke-width:1.5;" x1="297.5" x2="381.5" y1="640.8551" y2="640.8551"/><!--MD5=[2927a630b13e88512b2d3b16c23c7e23]
class Musica--><rect codeLine="72" fill="#FEFECE" filter="url(#favn9i1lfyakc)" height="62.9819" id="Musica" style="stroke:#A80036;stroke-width:1.5;" width="148" x="368.5" y="328"/><ellipse cx="418.25" cy="344" fill="#ADD1B2" rx="11" ry="11" style="stroke:#A80036;stroke-width:1.0;"/><path d="M417.7188,350.9219 Q415.9688,350.9219 414.8281,350.1875 Q413.7031,349.4375 413.1406,348.0938 Q412.5938,346.7344 412.5938,344.9375 Q412.5938,342.9063 413.25,341.4531 Q413.9063,340 415.1875,339.2188 Q416.4688,338.4375 418.3438,338.4375 Q419.2344,338.4375 419.9063,338.625 Q420.5781,338.7969 421.2656,339.1406 L420.4531,341.1563 Q419.8281,340.8438 419.2813,340.7188 Q418.75,340.5938 418.2656,340.5938 Q417.0938,340.5938 416.3906,341.125 Q415.6875,341.6563 415.3906,342.6094 Q415.0938,343.5625 415.0938,344.8281 Q415.0938,346.8438 415.8125,347.8125 Q416.5313,348.7656 418.125,348.7656 Q418.7188,348.7656 419.3438,348.6094 Q419.9688,348.4531 420.7969,348.0781 L420.7969,350.2969 Q420.0625,350.6094 419.2656,350.7656 Q418.4844,350.9219 417.7188,350.9219 Z " fill="#000000"/><text fill="#000000" font-family="sans-serif" font-size="12" lengthAdjust="spacing" textLength="40" x="438.75" y="348.656">Musica</text><line style="stroke:#A80036;stroke-width:1.5;" x1="369.5" x2="515.5" y1="360" y2="360"/><rect fill="none" height="6" style="stroke:#C82930;stroke-width:1.0;" width="6" x="376.5" y="368"/><text fill="#000000" font-family="sans-serif" font-size="11" lengthAdjust="spacing" textLength="122" x="388.5" y="375.7589">sequenciaDeComandos</text><line style="stroke:#A80036;stroke-width:1.5;" x1="369.5" x2="515.5" y1="382.9819" y2="382.9819"/><!--MD5=[b65eb35e67c12f80dde7b1f5192fa4e5]
reverse link TradutorTextoComando to TradutorTextoParaComando--><path d="M231.31,410.06 C213.55,451.61 188.98,509.07 175.45,540.73 " fill="none" id="TradutorTextoComando-backto-TradutorTextoParaComando" style="stroke:#A80036;stroke-width:1.0;stroke-dasharray:7.0,7.0;"/><polygon fill="none" points="224.99,407.05,239.29,391.41,237.86,412.55,224.99,407.05" style="stroke:#A80036;stroke-width:1.0;"/><!--MD5=[5fd119549db5b76968d1fa7f6bc1a1f0]
reverse link AdaptadorMusical to AdaptadorJFugue--><path d="M619.5,441.11 C619.5,464.59 619.5,489.65 619.5,510.98 " fill="none" id="AdaptadorMusical-backto-AdaptadorJFugue" style="stroke:#A80036;stroke-width:1.0;stroke-dasharray:7.0,7.0;"/><polygon fill="none" points="612.5,441.01,619.5,421.01,626.5,441.01,612.5,441.01" style="stroke:#A80036;stroke-width:1.0;"/><!--MD5=[8641968d1feeec22deeb3530b4067c26]
reverse link TradutorAdaptador to TradutorJFugue--><path d="M518.5,807.44 C518.5,826.21 518.5,846.57 518.5,861.71 " fill="none" id="TradutorAdaptador-backto-TradutorJFugue" style="stroke:#A80036;stroke-width:1.0;stroke-dasharray:7.0,7.0;"/><polygon fill="none" points="511.5,807.28,518.5,787.28,525.5,807.28,511.5,807.28" style="stroke:#A80036;stroke-width:1.0;"/><!--MD5=[1b1bcea03a752c7124aec79bab20add1]
link Orquestrador to DecodificadorTexto--><path codeLine="77" d="M385.5,70.28 C385.5,92.79 385.5,123.39 385.5,147.03 " fill="none" id="Orquestrador-to-DecodificadorTexto" style="stroke:#A80036;stroke-width:1.0;"/><polygon fill="#A80036" points="385.5,152.27,389.5,143.27,385.5,147.27,381.5,143.27,385.5,152.27" style="stroke:#A80036;stroke-width:1.0;"/><!--MD5=[62aa4cb5e3dd877af5d40116dfa1e6ba]
link Orquestrador to ControladorMusical--><path codeLine="78" d="M430.72,70.11 C465.19,93.44 512.62,125.54 548.09,149.55 " fill="none" id="Orquestrador-to-ControladorMusical" style="stroke:#A80036;stroke-width:1.0;"/><polygon fill="#A80036" points="552.35,152.44,547.1332,144.0863,548.2074,149.6402,542.6535,150.7144,552.35,152.44" style="stroke:#A80036;stroke-width:1.0;"/><!--MD5=[f7edd1a15af43c0e9ede49a127bcb4b7]
link Orquestrador to ControladorDeGui--><path codeLine="79" d="M336.87,70.11 C305.45,89.88 264.03,115.95 228.9,138.06 " fill="none" id="Orquestrador-to-ControladorDeGui" style="stroke:#A80036;stroke-width:1.0;"/><polygon fill="#A80036" points="224.65,140.74,234.3952,139.3148,228.8771,138.0695,230.1224,132.5514,224.65,140.74" style="stroke:#A80036;stroke-width:1.0;"/><!--MD5=[7fdd772908b8c3c928ae37a7efadeb59]
link DecodificadorTexto to TradutorTextoComando--><path codeLine="80" d="M362.03,215.62 C338.83,245.88 303.4,292.1 279.16,323.73 " fill="none" id="DecodificadorTexto-to-TradutorTextoComando" style="stroke:#A80036;stroke-width:1.0;"/><polygon fill="#A80036" points="275.96,327.9,284.6089,323.1887,279.001,323.931,278.2586,318.3231,275.96,327.9" style="stroke:#A80036;stroke-width:1.0;"/><!--MD5=[dc0470bf4ec233f20c7c20b737be2079]
link DecodificadorTexto to Musica--><path codeLine="81" d="M395.56,215.62 C405.42,245.63 420.44,291.35 430.82,322.95 " fill="none" id="DecodificadorTexto-to-Musica" style="stroke:#A80036;stroke-width:1.0;"/><polygon fill="#A80036" points="432.45,327.9,433.4518,318.1022,430.8946,323.1481,425.8487,320.5909,432.45,327.9" style="stroke:#A80036;stroke-width:1.0;"/><!--MD5=[0d3daf707f0727c8f6208f40d95f6c89]
link ControladorMusical to AdaptadorMusical--><path codeLine="82" d="M601.38,215.62 C604.08,236.87 607.77,265.99 611.12,292.41 " fill="none" id="ControladorMusical-to-AdaptadorMusical" style="stroke:#A80036;stroke-width:1.0;"/><polygon fill="#A80036" points="611.78,297.65,614.6161,288.2183,611.151,292.6897,606.6796,289.2247,611.78,297.65" style="stroke:#A80036;stroke-width:1.0;"/><!--MD5=[b32da690e438aa28f7a9d3c66551d285]
link TradutorTextoComando to Comando--><path codeLine="83" d="M265.71,391.41 C275.37,413.99 288.98,445.82 301.88,476.01 " fill="none" id="TradutorTextoComando-to-Comando" style="stroke:#A80036;stroke-width:1.0;"/><polygon fill="#A80036" points="303.95,480.84,304.0813,470.992,301.9804,476.2443,296.7281,474.1434,303.95,480.84" style="stroke:#A80036;stroke-width:1.0;"/><!--MD5=[570e8251817d076629998f888b591c14]
link ControladorDeGui to estadoGui--><path codeLine="84" d="M131,238.47 C118.69,263.3 104.26,292.42 92.69,315.76 " fill="none" id="ControladorDeGui-to-estadoGui" style="stroke:#A80036;stroke-width:1.0;"/><polygon fill="#A80036" points="90.41,320.34,97.9885,314.0499,92.6289,315.8593,90.8194,310.4997,90.41,320.34" style="stroke:#A80036;stroke-width:1.0;"/><!--MD5=[9bd65c19b445a9e48b025a3bf08fc8d4]
link AdaptadorJFugue to Instrumento--><path codeLine="85" d="M647.9,619.01 C662.24,645.77 679.55,678.06 693.66,704.41 " fill="none" id="AdaptadorJFugue-to-Instrumento" style="stroke:#A80036;stroke-width:1.0;"/><polygon fill="#A80036" points="696.08,708.92,695.3445,699.0986,693.7138,704.5154,688.297,702.8846,696.08,708.92" style="stroke:#A80036;stroke-width:1.0;"/><!--MD5=[b9a0f738aa170f99b10fad7721a5c344]
link AdaptadorJFugue to TradutorAdaptador--><path codeLine="86" d="M591.1,619.01 C573.87,651.16 552.38,691.27 537.26,719.49 " fill="none" id="AdaptadorJFugue-to-TradutorAdaptador" style="stroke:#A80036;stroke-width:1.0;"/><polygon fill="#A80036" points="534.89,723.91,542.6578,717.8551,537.2452,719.4994,535.6008,714.0868,534.89,723.91" style="stroke:#A80036;stroke-width:1.0;"/><!--MD5=[9cce61a329c60a9e7545f1763f814d3c]
@startuml classes

class Orquestrador{
    + orquestrar()
}

class ControladorDeGui{
    - estadoGui
    + entraTexto():String
    + abrir()
    + fechar()
}

enum estadoGui{
    + Standby
    + ProcessandoMusica
}

class DecodificadorTexto{
    + traduzTexto(String):Musica
}

interface TradutorTextoComando{
    + traduz(String):comando
}

class TradutorTextoParaComando implements TradutorTextoComando{}

class ControladorMusical{
    + executaMusica(Musica)
}

interface AdaptadorMusical{
    + tocarNota(Comando)
    + aumentarOitava()
    + reduzirOitava()
    + aumentarVolume()
    + reduzirVolume()
}

class AdaptadorJFugue implements AdaptadorMusical{
    - BPM
    - Oitava
    - Volume
    - Instrumento
}

interface TradutorAdaptador{
    + traduzParaAdaptador(Comando):String
}

class TradutorJFugue implements TradutorAdaptador{

}

enum Instrumento{
    - bateria
    - piano
    - guiatarra
}

enum Comando{
    + do
    + re
    + mi
    + fa
    + sol
    + la
    + si
    ...
}

class Musica{
    - sequenciaDeComandos
}


Orquestrador - -> DecodificadorTexto
Orquestrador - -> ControladorMusical
Orquestrador - -> ControladorDeGui
DecodificadorTexto - -> TradutorTextoComando
DecodificadorTexto - -> Musica
ControladorMusical - -> AdaptadorMusical
TradutorTextoComando - -> Comando
ControladorDeGui - -> estadoGui
AdaptadorJFugue - -> Instrumento
AdaptadorJFugue - -> TradutorAdaptador


@enduml

PlantUML version 1.2022.0(Tue Jan 11 13:16:42 BRT 2022)
(GPL source distribution)
Java Runtime: OpenJDK Runtime Environment
JVM: OpenJDK 64-Bit Server VM
Default Encoding: UTF-8
Language: en
Country: US
--></g></svg>