<?xml version="1.0" encoding="UTF-8" standalone="no"?><svg xmlns="http://www.w3.org/2000/svg" xmlns:xlink="http://www.w3.org/1999/xlink" contentScriptType="application/ecmascript" contentStyleType="text/css" height="1077px" preserveAspectRatio="none" style="width:728px;height:1077px;background:#FFFFFF;" version="1.1" viewBox="0 0 728 1077" width="728px" zoomAndPan="magnify"><defs><filter height="300%" id="f1naixckq7g4iy" width="300%" x="-1" y="-1"><feGaussianBlur result="blurOut" stdDeviation="2.0"/><feColorMatrix in="blurOut" result="blurOut2" type="matrix" values="0 0 0 0 0 0 0 0 0 0 0 0 0 0 0 0 0 0 .4 0"/><feOffset dx="4.0" dy="4.0" in="blurOut2" result="blurOut3"/><feBlend in="SourceGraphic" in2="blurOut3" mode="normal"/></filter></defs><g><!--MD5=[cc7199de7d3e82d413e313b3906f7f53]
class Orquestrador--><rect codeLine="2" fill="#FEFECE" filter="url(#f1naixckq7g4iy)" height="92.9457" id="Orquestrador" style="stroke:#A80036;stroke-width:1.5;" width="130" x="403" y="175"/><ellipse cx="427.9" cy="191" fill="#ADD1B2" rx="11" ry="11" style="stroke:#A80036;stroke-width:1.0;"/><path d="M427.3688,197.9219 Q425.6188,197.9219 424.4781,197.1875 Q423.3531,196.4375 422.7906,195.0938 Q422.2438,193.7344 422.2438,191.9375 Q422.2438,189.9063 422.9,188.4531 Q423.5563,187 424.8375,186.2188 Q426.1188,185.4375 427.9938,185.4375 Q428.8844,185.4375 429.5563,185.625 Q430.2281,185.7969 430.9156,186.1406 L430.1031,188.1563 Q429.4781,187.8438 428.9313,187.7188 Q428.4,187.5938 427.9156,187.5938 Q426.7438,187.5938 426.0406,188.125 Q425.3375,188.6563 425.0406,189.6094 Q424.7438,190.5625 424.7438,191.8281 Q424.7438,193.8438 425.4625,194.8125 Q426.1813,195.7656 427.775,195.7656 Q428.3688,195.7656 428.9938,195.6094 Q429.6188,195.4531 430.4469,195.0781 L430.4469,197.2969 Q429.7125,197.6094 428.9156,197.7656 Q428.1344,197.9219 427.3688,197.9219 Z " fill="#000000"/><text fill="#000000" font-family="sans-serif" font-size="12" lengthAdjust="spacing" textLength="76" x="444.1" y="195.656">Orquestrador</text><line style="stroke:#A80036;stroke-width:1.5;" x1="404" x2="532" y1="207" y2="207"/><rect fill="none" height="6" style="stroke:#C82930;stroke-width:1.0;" width="6" x="411" y="215"/><text fill="#000000" font-family="sans-serif" font-size="11" lengthAdjust="spacing" textLength="102" x="423" y="222.7589">DecodificadorTexto</text><rect fill="none" height="6" style="stroke:#C82930;stroke-width:1.0;" width="6" x="411" y="229.9819"/><text fill="#000000" font-family="sans-serif" font-size="11" lengthAdjust="spacing" textLength="104" x="423" y="237.7408">ControladorMusical</text><line style="stroke:#A80036;stroke-width:1.5;" x1="404" x2="532" y1="244.9638" y2="244.9638"/><ellipse cx="414" cy="255.9638" fill="#84BE84" rx="3" ry="3" style="stroke:#038048;stroke-width:1.0;"/><text fill="#000000" font-family="sans-serif" font-size="11" lengthAdjust="spacing" textLength="96" x="423" y="260.7227">orquestra( String )</text><!--MD5=[6130c60027cb57cdf173ce39f44ff212]
class ControladorDeGui--><rect codeLine="8" fill="#FEFECE" filter="url(#f1naixckq7g4iy)" height="107.9276" id="ControladorDeGui" style="stroke:#A80036;stroke-width:1.5;" width="134" x="483" y="7"/><ellipse cx="498" cy="23" fill="#ADD1B2" rx="11" ry="11" style="stroke:#A80036;stroke-width:1.0;"/><path d="M497.4688,29.9219 Q495.7188,29.9219 494.5781,29.1875 Q493.4531,28.4375 492.8906,27.0938 Q492.3438,25.7344 492.3438,23.9375 Q492.3438,21.9063 493,20.4531 Q493.6563,19 494.9375,18.2188 Q496.2188,17.4375 498.0938,17.4375 Q498.9844,17.4375 499.6563,17.625 Q500.3281,17.7969 501.0156,18.1406 L500.2031,20.1563 Q499.5781,19.8438 499.0313,19.7188 Q498.5,19.5938 498.0156,19.5938 Q496.8438,19.5938 496.1406,20.125 Q495.4375,20.6563 495.1406,21.6094 Q494.8438,22.5625 494.8438,23.8281 Q494.8438,25.8438 495.5625,26.8125 Q496.2813,27.7656 497.875,27.7656 Q498.4688,27.7656 499.0938,27.6094 Q499.7188,27.4531 500.5469,27.0781 L500.5469,29.2969 Q499.8125,29.6094 499.0156,29.7656 Q498.2344,29.9219 497.4688,29.9219 Z " fill="#000000"/><text fill="#000000" font-family="sans-serif" font-size="12" lengthAdjust="spacing" textLength="102" x="512" y="27.656">ControladorDeGui</text><line style="stroke:#A80036;stroke-width:1.5;" x1="484" x2="616" y1="39" y2="39"/><rect fill="none" height="6" style="stroke:#C82930;stroke-width:1.0;" width="6" x="491" y="47"/><text fill="#000000" font-family="sans-serif" font-size="11" lengthAdjust="spacing" textLength="53" x="503" y="54.7589">estadoGui</text><line style="stroke:#A80036;stroke-width:1.5;" x1="484" x2="616" y1="61.9819" y2="61.9819"/><ellipse cx="494" cy="72.9819" fill="#84BE84" rx="3" ry="3" style="stroke:#038048;stroke-width:1.0;"/><text fill="#000000" font-family="sans-serif" font-size="11" lengthAdjust="spacing" textLength="98" x="503" y="77.7408">entraTexto():String</text><ellipse cx="494" cy="87.9638" fill="#84BE84" rx="3" ry="3" style="stroke:#038048;stroke-width:1.0;"/><text fill="#000000" font-family="sans-serif" font-size="11" lengthAdjust="spacing" textLength="32" x="503" y="92.7227">abrir()</text><ellipse cx="494" cy="102.9457" fill="#84BE84" rx="3" ry="3" style="stroke:#038048;stroke-width:1.0;"/><text fill="#000000" font-family="sans-serif" font-size="11" lengthAdjust="spacing" textLength="39" x="503" y="107.7046">fechar()</text><!--MD5=[e0fddca87f21341e5dd21bbb64d2fab9]
class estadoGui--><rect codeLine="15" fill="#FEFECE" filter="url(#f1naixckq7g4iy)" height="77.9638" id="estadoGui" style="stroke:#A80036;stroke-width:1.5;" width="129" x="568.5" y="182.5"/><ellipse cx="601.5" cy="198.5" fill="#EB937F" rx="11" ry="11" style="stroke:#A80036;stroke-width:1.0;"/><path d="M597.8594,205 L597.8594,192.8594 L605.5156,192.8594 L605.5156,194.9844 L600.2344,194.9844 L600.2344,197.6406 L605.25,197.6406 L605.25,199.7656 L600.2344,199.7656 L600.2344,202.875 L605.5156,202.875 L605.5156,205 L597.8594,205 Z " fill="#000000"/><text fill="#000000" font-family="sans-serif" font-size="12" lengthAdjust="spacing" textLength="57" x="619.5" y="203.156">estadoGui</text><line style="stroke:#A80036;stroke-width:1.5;" x1="569.5" x2="696.5" y1="214.5" y2="214.5"/><ellipse cx="579.5" cy="225.5" rx="3" ry="3" style="stroke:#038048;stroke-width:1.0;fill:none;"/><text fill="#000000" font-family="sans-serif" font-size="11" lengthAdjust="spacing" textLength="43" x="588.5" y="230.2589">Standby</text><ellipse cx="579.5" cy="240.4819" rx="3" ry="3" style="stroke:#038048;stroke-width:1.0;fill:none;"/><text fill="#000000" font-family="sans-serif" font-size="11" lengthAdjust="spacing" textLength="103" x="588.5" y="245.2408">ProcessandoMusica</text><line style="stroke:#A80036;stroke-width:1.5;" x1="569.5" x2="696.5" y1="252.4638" y2="252.4638"/><!--MD5=[ad23146357bdd208a2f074f6030d17e8]
class DecodificadorTexto--><rect codeLine="20" fill="#FEFECE" filter="url(#f1naixckq7g4iy)" height="62.9819" id="DecodificadorTexto" style="stroke:#A80036;stroke-width:1.5;" width="166" x="290" y="328"/><ellipse cx="316.25" cy="344" fill="#ADD1B2" rx="11" ry="11" style="stroke:#A80036;stroke-width:1.0;"/><path d="M315.7188,350.9219 Q313.9688,350.9219 312.8281,350.1875 Q311.7031,349.4375 311.1406,348.0938 Q310.5938,346.7344 310.5938,344.9375 Q310.5938,342.9063 311.25,341.4531 Q311.9063,340 313.1875,339.2188 Q314.4688,338.4375 316.3438,338.4375 Q317.2344,338.4375 317.9063,338.625 Q318.5781,338.7969 319.2656,339.1406 L318.4531,341.1563 Q317.8281,340.8438 317.2813,340.7188 Q316.75,340.5938 316.2656,340.5938 Q315.0938,340.5938 314.3906,341.125 Q313.6875,341.6563 313.3906,342.6094 Q313.0938,343.5625 313.0938,344.8281 Q313.0938,346.8438 313.8125,347.8125 Q314.5313,348.7656 316.125,348.7656 Q316.7188,348.7656 317.3438,348.6094 Q317.9688,348.4531 318.7969,348.0781 L318.7969,350.2969 Q318.0625,350.6094 317.2656,350.7656 Q316.4844,350.9219 315.7188,350.9219 Z " fill="#000000"/><text fill="#000000" font-family="sans-serif" font-size="12" lengthAdjust="spacing" textLength="109" x="332.75" y="348.656">DecodificadorTexto</text><line style="stroke:#A80036;stroke-width:1.5;" x1="291" x2="455" y1="360" y2="360"/><line style="stroke:#A80036;stroke-width:1.5;" x1="291" x2="455" y1="368" y2="368"/><ellipse cx="301" cy="379" fill="#84BE84" rx="3" ry="3" style="stroke:#038048;stroke-width:1.0;"/><text fill="#000000" font-family="sans-serif" font-size="11" lengthAdjust="spacing" textLength="140" x="310" y="383.7589">traduzTexto(String):Musica</text><!--MD5=[1779cf4dea73243dda24388918ce614c]
class TradutorTextoComando--><rect codeLine="24" fill="#FEFECE" filter="url(#f1naixckq7g4iy)" height="62.9819" id="TradutorTextoComando" style="stroke:#A80036;stroke-width:1.5;" width="162" x="109" y="481"/><ellipse cx="124" cy="497" fill="#B4A7E5" rx="11" ry="11" style="stroke:#A80036;stroke-width:1.0;"/><path d="M120.0313,503.5 L120.0313,501.7969 L122.3906,501.5313 L122.3906,493.3281 L120.0313,493.0625 L120.0313,491.3594 L127.1719,491.3594 L127.1719,493.0625 L124.75,493.3281 L124.75,501.5313 L127.1719,501.7969 L127.1719,503.5 L120.0313,503.5 Z " fill="#000000"/><text fill="#000000" font-family="sans-serif" font-size="12" font-style="italic" lengthAdjust="spacing" textLength="130" x="138" y="501.656">TradutorTextoComando</text><line style="stroke:#A80036;stroke-width:1.5;" x1="110" x2="270" y1="513" y2="513"/><line style="stroke:#A80036;stroke-width:1.5;" x1="110" x2="270" y1="521" y2="521"/><ellipse cx="120" cy="532" fill="#84BE84" rx="3" ry="3" style="stroke:#038048;stroke-width:1.0;"/><text fill="#000000" font-family="sans-serif" font-size="11" lengthAdjust="spacing" textLength="124" x="129" y="536.7589">traduz(String):comando</text><!--MD5=[26e688f3331c1a80bfb7f45feb153195]
class TradutorTextoParaComando--><rect codeLine="28" fill="#FEFECE" filter="url(#f1naixckq7g4iy)" height="48" id="TradutorTextoParaComando" style="stroke:#A80036;stroke-width:1.5;" width="192" x="7" y="694"/><ellipse cx="22" cy="710" fill="#ADD1B2" rx="11" ry="11" style="stroke:#A80036;stroke-width:1.0;"/><path d="M21.4688,716.9219 Q19.7188,716.9219 18.5781,716.1875 Q17.4531,715.4375 16.8906,714.0938 Q16.3438,712.7344 16.3438,710.9375 Q16.3438,708.9063 17,707.4531 Q17.6563,706 18.9375,705.2188 Q20.2188,704.4375 22.0938,704.4375 Q22.9844,704.4375 23.6563,704.625 Q24.3281,704.7969 25.0156,705.1406 L24.2031,707.1563 Q23.5781,706.8438 23.0313,706.7188 Q22.5,706.5938 22.0156,706.5938 Q20.8438,706.5938 20.1406,707.125 Q19.4375,707.6563 19.1406,708.6094 Q18.8438,709.5625 18.8438,710.8281 Q18.8438,712.8438 19.5625,713.8125 Q20.2813,714.7656 21.875,714.7656 Q22.4688,714.7656 23.0938,714.6094 Q23.7188,714.4531 24.5469,714.0781 L24.5469,716.2969 Q23.8125,716.6094 23.0156,716.7656 Q22.2344,716.9219 21.4688,716.9219 Z " fill="#000000"/><text fill="#000000" font-family="sans-serif" font-size="12" lengthAdjust="spacing" textLength="160" x="36" y="714.656">TradutorTextoParaComando</text><line style="stroke:#A80036;stroke-width:1.5;" x1="8" x2="198" y1="726" y2="726"/><line style="stroke:#A80036;stroke-width:1.5;" x1="8" x2="198" y1="734" y2="734"/><!--MD5=[815aba036e14179ebf1afa7ee6e3a016]
class ControladorMusical--><rect codeLine="30" fill="#FEFECE" filter="url(#f1naixckq7g4iy)" height="62.9819" id="ControladorMusical" style="stroke:#A80036;stroke-width:1.5;" width="144" x="491" y="328"/><ellipse cx="506.9" cy="344" fill="#ADD1B2" rx="11" ry="11" style="stroke:#A80036;stroke-width:1.0;"/><path d="M506.3688,350.9219 Q504.6188,350.9219 503.4781,350.1875 Q502.3531,349.4375 501.7906,348.0938 Q501.2438,346.7344 501.2438,344.9375 Q501.2438,342.9063 501.9,341.4531 Q502.5563,340 503.8375,339.2188 Q505.1188,338.4375 506.9938,338.4375 Q507.8844,338.4375 508.5563,338.625 Q509.2281,338.7969 509.9156,339.1406 L509.1031,341.1563 Q508.4781,340.8438 507.9313,340.7188 Q507.4,340.5938 506.9156,340.5938 Q505.7438,340.5938 505.0406,341.125 Q504.3375,341.6563 504.0406,342.6094 Q503.7438,343.5625 503.7438,344.8281 Q503.7438,346.8438 504.4625,347.8125 Q505.1813,348.7656 506.775,348.7656 Q507.3688,348.7656 507.9938,348.6094 Q508.6188,348.4531 509.4469,348.0781 L509.4469,350.2969 Q508.7125,350.6094 507.9156,350.7656 Q507.1344,350.9219 506.3688,350.9219 Z " fill="#000000"/><text fill="#000000" font-family="sans-serif" font-size="12" lengthAdjust="spacing" textLength="110" x="521.1" y="348.656">ControladorMusical</text><line style="stroke:#A80036;stroke-width:1.5;" x1="492" x2="634" y1="360" y2="360"/><line style="stroke:#A80036;stroke-width:1.5;" x1="492" x2="634" y1="368" y2="368"/><ellipse cx="502" cy="379" fill="#84BE84" rx="3" ry="3" style="stroke:#038048;stroke-width:1.0;"/><text fill="#000000" font-family="sans-serif" font-size="11" lengthAdjust="spacing" textLength="118" x="511" y="383.7589">executaMusica(Musica)</text><!--MD5=[3947fcfebebf3a380209f6200e77d224]
class AdaptadorMusical--><rect codeLine="34" fill="#FEFECE" filter="url(#f1naixckq7g4iy)" height="122.9094" id="AdaptadorMusical" style="stroke:#A80036;stroke-width:1.5;" width="135" x="495.5" y="451"/><ellipse cx="512.75" cy="467" fill="#B4A7E5" rx="11" ry="11" style="stroke:#A80036;stroke-width:1.0;"/><path d="M508.7813,473.5 L508.7813,471.7969 L511.1406,471.5313 L511.1406,463.3281 L508.7813,463.0625 L508.7813,461.3594 L515.9219,461.3594 L515.9219,463.0625 L513.5,463.3281 L513.5,471.5313 L515.9219,471.7969 L515.9219,473.5 L508.7813,473.5 Z " fill="#000000"/><text fill="#000000" font-family="sans-serif" font-size="12" font-style="italic" lengthAdjust="spacing" textLength="98" x="527.25" y="471.656">AdaptadorMusical</text><line style="stroke:#A80036;stroke-width:1.5;" x1="496.5" x2="629.5" y1="483" y2="483"/><line style="stroke:#A80036;stroke-width:1.5;" x1="496.5" x2="629.5" y1="491" y2="491"/><ellipse cx="506.5" cy="502" fill="#84BE84" rx="3" ry="3" style="stroke:#038048;stroke-width:1.0;"/><text fill="#000000" font-family="sans-serif" font-size="11" lengthAdjust="spacing" textLength="109" x="515.5" y="506.7589">tocarNota(Comando)</text><ellipse cx="506.5" cy="516.9819" fill="#84BE84" rx="3" ry="3" style="stroke:#038048;stroke-width:1.0;"/><text fill="#000000" font-family="sans-serif" font-size="11" lengthAdjust="spacing" textLength="91" x="515.5" y="521.7408">aumentarOitava()</text><ellipse cx="506.5" cy="531.9638" fill="#84BE84" rx="3" ry="3" style="stroke:#038048;stroke-width:1.0;"/><text fill="#000000" font-family="sans-serif" font-size="11" lengthAdjust="spacing" textLength="78" x="515.5" y="536.7227">reduzirOitava()</text><ellipse cx="506.5" cy="546.9457" fill="#84BE84" rx="3" ry="3" style="stroke:#038048;stroke-width:1.0;"/><text fill="#000000" font-family="sans-serif" font-size="11" lengthAdjust="spacing" textLength="97" x="515.5" y="551.7046">aumentarVolume()</text><ellipse cx="506.5" cy="561.9276" fill="#84BE84" rx="3" ry="3" style="stroke:#038048;stroke-width:1.0;"/><text fill="#000000" font-family="sans-serif" font-size="11" lengthAdjust="spacing" textLength="84" x="515.5" y="566.6865">reduzirVolume()</text><!--MD5=[20a2f73b19b4899378588d8d90d683d2]
class AdaptadorJFugue--><rect codeLine="42" fill="#FEFECE" filter="url(#f1naixckq7g4iy)" height="107.9276" id="AdaptadorJFugue" style="stroke:#A80036;stroke-width:1.5;" width="128" x="499" y="664"/><ellipse cx="514" cy="680" fill="#ADD1B2" rx="11" ry="11" style="stroke:#A80036;stroke-width:1.0;"/><path d="M513.4688,686.9219 Q511.7188,686.9219 510.5781,686.1875 Q509.4531,685.4375 508.8906,684.0938 Q508.3438,682.7344 508.3438,680.9375 Q508.3438,678.9063 509,677.4531 Q509.6563,676 510.9375,675.2188 Q512.2188,674.4375 514.0938,674.4375 Q514.9844,674.4375 515.6563,674.625 Q516.3281,674.7969 517.0156,675.1406 L516.2031,677.1563 Q515.5781,676.8438 515.0313,676.7188 Q514.5,676.5938 514.0156,676.5938 Q512.8438,676.5938 512.1406,677.125 Q511.4375,677.6563 511.1406,678.6094 Q510.8438,679.5625 510.8438,680.8281 Q510.8438,682.8438 511.5625,683.8125 Q512.2813,684.7656 513.875,684.7656 Q514.4688,684.7656 515.0938,684.6094 Q515.7188,684.4531 516.5469,684.0781 L516.5469,686.2969 Q515.8125,686.6094 515.0156,686.7656 Q514.2344,686.9219 513.4688,686.9219 Z " fill="#000000"/><text fill="#000000" font-family="sans-serif" font-size="12" lengthAdjust="spacing" textLength="96" x="528" y="684.656">AdaptadorJFugue</text><line style="stroke:#A80036;stroke-width:1.5;" x1="500" x2="626" y1="696" y2="696"/><rect fill="none" height="6" style="stroke:#C82930;stroke-width:1.0;" width="6" x="507" y="704"/><text fill="#000000" font-family="sans-serif" font-size="11" lengthAdjust="spacing" textLength="24" x="519" y="711.7589">BPM</text><rect fill="none" height="6" style="stroke:#C82930;stroke-width:1.0;" width="6" x="507" y="718.9819"/><text fill="#000000" font-family="sans-serif" font-size="11" lengthAdjust="spacing" textLength="34" x="519" y="726.7408">Oitava</text><rect fill="none" height="6" style="stroke:#C82930;stroke-width:1.0;" width="6" x="507" y="733.9638"/><text fill="#000000" font-family="sans-serif" font-size="11" lengthAdjust="spacing" textLength="40" x="519" y="741.7227">Volume</text><rect fill="none" height="6" style="stroke:#C82930;stroke-width:1.0;" width="6" x="507" y="748.9457"/><text fill="#000000" font-family="sans-serif" font-size="11" lengthAdjust="spacing" textLength="66" x="519" y="756.7046">Instrumento</text><line style="stroke:#A80036;stroke-width:1.5;" x1="500" x2="626" y1="763.9276" y2="763.9276"/><!--MD5=[f549f87ec26c612c42cbcdc1340cf410]
class TradutorAdaptador--><rect codeLine="49" fill="#FEFECE" filter="url(#f1naixckq7g4iy)" height="62.9819" id="TradutorAdaptador" style="stroke:#A80036;stroke-width:1.5;" width="232" x="346" y="877"/><ellipse cx="404.75" cy="893" fill="#B4A7E5" rx="11" ry="11" style="stroke:#A80036;stroke-width:1.0;"/><path d="M400.7813,899.5 L400.7813,897.7969 L403.1406,897.5313 L403.1406,889.3281 L400.7813,889.0625 L400.7813,887.3594 L407.9219,887.3594 L407.9219,889.0625 L405.5,889.3281 L405.5,897.5313 L407.9219,897.7969 L407.9219,899.5 L400.7813,899.5 Z " fill="#000000"/><text fill="#000000" font-family="sans-serif" font-size="12" font-style="italic" lengthAdjust="spacing" textLength="106" x="425.25" y="897.656">TradutorAdaptador</text><line style="stroke:#A80036;stroke-width:1.5;" x1="347" x2="577" y1="909" y2="909"/><line style="stroke:#A80036;stroke-width:1.5;" x1="347" x2="577" y1="917" y2="917"/><ellipse cx="357" cy="928" fill="#84BE84" rx="3" ry="3" style="stroke:#038048;stroke-width:1.0;"/><text fill="#000000" font-family="sans-serif" font-size="11" lengthAdjust="spacing" textLength="206" x="366" y="932.7589">traduzParaAdaptador(Comando):String</text><!--MD5=[03372b0263af18838c083ca65e435dfd]
class TradutorJFugue--><rect codeLine="53" fill="#FEFECE" filter="url(#f1naixckq7g4iy)" height="48" id="TradutorJFugue" style="stroke:#A80036;stroke-width:1.5;" width="118" x="403" y="1015"/><ellipse cx="418" cy="1031" fill="#ADD1B2" rx="11" ry="11" style="stroke:#A80036;stroke-width:1.0;"/><path d="M417.4688,1037.9219 Q415.7188,1037.9219 414.5781,1037.1875 Q413.4531,1036.4375 412.8906,1035.0938 Q412.3438,1033.7344 412.3438,1031.9375 Q412.3438,1029.9063 413,1028.4531 Q413.6563,1027 414.9375,1026.2188 Q416.2188,1025.4375 418.0938,1025.4375 Q418.9844,1025.4375 419.6563,1025.625 Q420.3281,1025.7969 421.0156,1026.1406 L420.2031,1028.1563 Q419.5781,1027.8438 419.0313,1027.7188 Q418.5,1027.5938 418.0156,1027.5938 Q416.8438,1027.5938 416.1406,1028.125 Q415.4375,1028.6563 415.1406,1029.6094 Q414.8438,1030.5625 414.8438,1031.8281 Q414.8438,1033.8438 415.5625,1034.8125 Q416.2813,1035.7656 417.875,1035.7656 Q418.4688,1035.7656 419.0938,1035.6094 Q419.7188,1035.4531 420.5469,1035.0781 L420.5469,1037.2969 Q419.8125,1037.6094 419.0156,1037.7656 Q418.2344,1037.9219 417.4688,1037.9219 Z " fill="#000000"/><text fill="#000000" font-family="sans-serif" font-size="12" lengthAdjust="spacing" textLength="86" x="432" y="1035.656">TradutorJFugue</text><line style="stroke:#A80036;stroke-width:1.5;" x1="404" x2="520" y1="1047" y2="1047"/><line style="stroke:#A80036;stroke-width:1.5;" x1="404" x2="520" y1="1055" y2="1055"/><!--MD5=[60f538da2e3d3c2e5a13d43455efb760]
class Instrumento--><rect codeLine="57" fill="#FEFECE" filter="url(#f1naixckq7g4iy)" height="92.9457" id="Instrumento" style="stroke:#A80036;stroke-width:1.5;" width="101" x="613.5" y="862"/><ellipse cx="628.5" cy="878" fill="#EB937F" rx="11" ry="11" style="stroke:#A80036;stroke-width:1.0;"/><path d="M624.8594,884.5 L624.8594,872.3594 L632.5156,872.3594 L632.5156,874.4844 L627.2344,874.4844 L627.2344,877.1406 L632.25,877.1406 L632.25,879.2656 L627.2344,879.2656 L627.2344,882.375 L632.5156,882.375 L632.5156,884.5 L624.8594,884.5 Z " fill="#000000"/><text fill="#000000" font-family="sans-serif" font-size="12" lengthAdjust="spacing" textLength="69" x="642.5" y="882.656">Instrumento</text><line style="stroke:#A80036;stroke-width:1.5;" x1="614.5" x2="713.5" y1="894" y2="894"/><rect fill="none" height="6" style="stroke:#C82930;stroke-width:1.0;" width="6" x="621.5" y="902"/><text fill="#000000" font-family="sans-serif" font-size="11" lengthAdjust="spacing" textLength="37" x="633.5" y="909.7589">bateria</text><rect fill="none" height="6" style="stroke:#C82930;stroke-width:1.0;" width="6" x="621.5" y="916.9819"/><text fill="#000000" font-family="sans-serif" font-size="11" lengthAdjust="spacing" textLength="30" x="633.5" y="924.7408">piano</text><rect fill="none" height="6" style="stroke:#C82930;stroke-width:1.0;" width="6" x="621.5" y="931.9638"/><text fill="#000000" font-family="sans-serif" font-size="11" lengthAdjust="spacing" textLength="49" x="633.5" y="939.7227">guiatarra</text><line style="stroke:#A80036;stroke-width:1.5;" x1="614.5" x2="713.5" y1="946.9457" y2="946.9457"/><!--MD5=[51f0781105b9cf5fcba3c6a2af676f78]
class Comando--><rect codeLine="63" fill="#FEFECE" filter="url(#f1naixckq7g4iy)" height="167.8551" id="Comando" style="stroke:#A80036;stroke-width:1.5;" width="86" x="234" y="634"/><ellipse cx="249" cy="650" fill="#EB937F" rx="11" ry="11" style="stroke:#A80036;stroke-width:1.0;"/><path d="M245.3594,656.5 L245.3594,644.3594 L253.0156,644.3594 L253.0156,646.4844 L247.7344,646.4844 L247.7344,649.1406 L252.75,649.1406 L252.75,651.2656 L247.7344,651.2656 L247.7344,654.375 L253.0156,654.375 L253.0156,656.5 L245.3594,656.5 Z " fill="#000000"/><text fill="#000000" font-family="sans-serif" font-size="12" lengthAdjust="spacing" textLength="54" x="263" y="654.656">Comando</text><line style="stroke:#A80036;stroke-width:1.5;" x1="235" x2="319" y1="666" y2="666"/><ellipse cx="245" cy="677" rx="3" ry="3" style="stroke:#038048;stroke-width:1.0;fill:none;"/><text fill="#000000" font-family="sans-serif" font-size="11" lengthAdjust="spacing" textLength="14" x="254" y="681.7589">do</text><ellipse cx="245" cy="691.9819" rx="3" ry="3" style="stroke:#038048;stroke-width:1.0;fill:none;"/><text fill="#000000" font-family="sans-serif" font-size="11" lengthAdjust="spacing" textLength="11" x="254" y="696.7408">re</text><ellipse cx="245" cy="706.9638" rx="3" ry="3" style="stroke:#038048;stroke-width:1.0;fill:none;"/><text fill="#000000" font-family="sans-serif" font-size="11" lengthAdjust="spacing" textLength="13" x="254" y="711.7227">mi</text><ellipse cx="245" cy="721.9457" rx="3" ry="3" style="stroke:#038048;stroke-width:1.0;fill:none;"/><text fill="#000000" font-family="sans-serif" font-size="11" lengthAdjust="spacing" textLength="10" x="254" y="726.7046">fa</text><ellipse cx="245" cy="736.9276" rx="3" ry="3" style="stroke:#038048;stroke-width:1.0;fill:none;"/><text fill="#000000" font-family="sans-serif" font-size="11" lengthAdjust="spacing" textLength="15" x="254" y="741.6865">sol</text><ellipse cx="245" cy="751.9094" rx="3" ry="3" style="stroke:#038048;stroke-width:1.0;fill:none;"/><text fill="#000000" font-family="sans-serif" font-size="11" lengthAdjust="spacing" textLength="9" x="254" y="756.6684">la</text><ellipse cx="245" cy="766.8913" rx="3" ry="3" style="stroke:#038048;stroke-width:1.0;fill:none;"/><text fill="#000000" font-family="sans-serif" font-size="11" lengthAdjust="spacing" textLength="8" x="254" y="771.6502">si</text><text fill="#000000" font-family="sans-serif" font-size="11" lengthAdjust="spacing" textLength="9" x="254" y="786.6321">...</text><line style="stroke:#A80036;stroke-width:1.5;" x1="235" x2="319" y1="793.8551" y2="793.8551"/><!--MD5=[2927a630b13e88512b2d3b16c23c7e23]
class Musica--><rect codeLine="74" fill="#FEFECE" filter="url(#f1naixckq7g4iy)" height="62.9819" id="Musica" style="stroke:#A80036;stroke-width:1.5;" width="148" x="306" y="481"/><ellipse cx="355.75" cy="497" fill="#ADD1B2" rx="11" ry="11" style="stroke:#A80036;stroke-width:1.0;"/><path d="M355.2188,503.9219 Q353.4688,503.9219 352.3281,503.1875 Q351.2031,502.4375 350.6406,501.0938 Q350.0938,499.7344 350.0938,497.9375 Q350.0938,495.9063 350.75,494.4531 Q351.4063,493 352.6875,492.2188 Q353.9688,491.4375 355.8438,491.4375 Q356.7344,491.4375 357.4063,491.625 Q358.0781,491.7969 358.7656,492.1406 L357.9531,494.1563 Q357.3281,493.8438 356.7813,493.7188 Q356.25,493.5938 355.7656,493.5938 Q354.5938,493.5938 353.8906,494.125 Q353.1875,494.6563 352.8906,495.6094 Q352.5938,496.5625 352.5938,497.8281 Q352.5938,499.8438 353.3125,500.8125 Q354.0313,501.7656 355.625,501.7656 Q356.2188,501.7656 356.8438,501.6094 Q357.4688,501.4531 358.2969,501.0781 L358.2969,503.2969 Q357.5625,503.6094 356.7656,503.7656 Q355.9844,503.9219 355.2188,503.9219 Z " fill="#000000"/><text fill="#000000" font-family="sans-serif" font-size="12" lengthAdjust="spacing" textLength="40" x="376.25" y="501.656">Musica</text><line style="stroke:#A80036;stroke-width:1.5;" x1="307" x2="453" y1="513" y2="513"/><rect fill="none" height="6" style="stroke:#C82930;stroke-width:1.0;" width="6" x="314" y="521"/><text fill="#000000" font-family="sans-serif" font-size="11" lengthAdjust="spacing" textLength="122" x="326" y="528.7589">sequenciaDeComandos</text><line style="stroke:#A80036;stroke-width:1.5;" x1="307" x2="453" y1="535.9819" y2="535.9819"/><!--MD5=[b65eb35e67c12f80dde7b1f5192fa4e5]
reverse link TradutorTextoComando to TradutorTextoParaComando--><path d="M168.81,563.06 C151.05,604.61 126.48,662.07 112.95,693.73 " fill="none" id="TradutorTextoComando-backto-TradutorTextoParaComando" style="stroke:#A80036;stroke-width:1.0;stroke-dasharray:7.0,7.0;"/><polygon fill="none" points="162.49,560.05,176.79,544.41,175.36,565.55,162.49,560.05" style="stroke:#A80036;stroke-width:1.0;"/><!--MD5=[5fd119549db5b76968d1fa7f6bc1a1f0]
reverse link AdaptadorMusical to AdaptadorJFugue--><path d="M563,594.11 C563,617.59 563,642.65 563,663.98 " fill="none" id="AdaptadorMusical-backto-AdaptadorJFugue" style="stroke:#A80036;stroke-width:1.0;stroke-dasharray:7.0,7.0;"/><polygon fill="none" points="556,594.01,563,574.01,570,594.01,556,594.01" style="stroke:#A80036;stroke-width:1.0;"/><!--MD5=[8641968d1feeec22deeb3530b4067c26]
reverse link TradutorAdaptador to TradutorJFugue--><path d="M462,960.44 C462,979.21 462,999.57 462,1014.71 " fill="none" id="TradutorAdaptador-backto-TradutorJFugue" style="stroke:#A80036;stroke-width:1.0;stroke-dasharray:7.0,7.0;"/><polygon fill="none" points="455,960.28,462,940.28,469,960.28,455,960.28" style="stroke:#A80036;stroke-width:1.0;"/><!--MD5=[c84fb3473115a2a87a2fcaf60169d81c]
link ControladorDeGui to Orquestrador--><path codeLine="79" d="M522.47,115.22 C513.32,132.89 503.17,152.51 494.14,169.98 " fill="none" id="ControladorDeGui-to-Orquestrador" style="stroke:#A80036;stroke-width:1.0;"/><polygon fill="#A80036" points="491.62,174.84,499.3023,168.677,493.9132,170.3969,492.1933,165.0078,491.62,174.84" style="stroke:#A80036;stroke-width:1.0;"/><!--MD5=[62aa4cb5e3dd877af5d40116dfa1e6ba]
link Orquestrador to ControladorMusical--><path codeLine="80" d="M499.9,268.16 C512.52,286.23 526.79,306.67 538.57,323.53 " fill="none" id="Orquestrador-to-ControladorMusical" style="stroke:#A80036;stroke-width:1.0;"/><polygon fill="#A80036" points="541.51,327.73,539.6235,318.0635,538.6417,323.6345,533.0707,322.6527,541.51,327.73" style="stroke:#A80036;stroke-width:1.0;"/><!--MD5=[1b1bcea03a752c7124aec79bab20add1]
link Orquestrador to DecodificadorTexto--><path codeLine="81" d="M436.1,268.16 C423.48,286.23 409.21,306.67 397.43,323.53 " fill="none" id="Orquestrador-to-DecodificadorTexto" style="stroke:#A80036;stroke-width:1.0;"/><polygon fill="#A80036" points="394.49,327.73,402.9293,322.6527,397.3583,323.6345,396.3765,318.0635,394.49,327.73" style="stroke:#A80036;stroke-width:1.0;"/><!--MD5=[7fdd772908b8c3c928ae37a7efadeb59]
link DecodificadorTexto to TradutorTextoComando--><path codeLine="82" d="M335.97,391.06 C305.58,416.13 262.6,451.6 231.14,477.55 " fill="none" id="DecodificadorTexto-to-TradutorTextoComando" style="stroke:#A80036;stroke-width:1.0;"/><polygon fill="#A80036" points="226.98,480.99,236.4664,478.3428,230.8351,477.806,231.372,472.1746,226.98,480.99" style="stroke:#A80036;stroke-width:1.0;"/><!--MD5=[dc0470bf4ec233f20c7c20b737be2079]
link DecodificadorTexto to Musica--><path codeLine="83" d="M374.42,391.06 C375.56,415.62 377.16,450.15 378.35,475.95 " fill="none" id="DecodificadorTexto-to-Musica" style="stroke:#A80036;stroke-width:1.0;"/><polygon fill="#A80036" points="378.59,480.99,382.1736,471.8163,378.361,475.9952,374.182,472.1826,378.59,480.99" style="stroke:#A80036;stroke-width:1.0;"/><!--MD5=[0d3daf707f0727c8f6208f40d95f6c89]
link ControladorMusical to AdaptadorMusical--><path codeLine="84" d="M563,391.06 C563,406.73 563,426.47 563,445.41 " fill="none" id="ControladorMusical-to-AdaptadorMusical" style="stroke:#A80036;stroke-width:1.0;"/><polygon fill="#A80036" points="563,450.73,567,441.73,563,445.73,559,441.73,563,450.73" style="stroke:#A80036;stroke-width:1.0;"/><!--MD5=[b32da690e438aa28f7a9d3c66551d285]
link TradutorTextoComando to Comando--><path codeLine="85" d="M203.21,544.41 C212.87,566.99 226.48,598.82 239.38,629.01 " fill="none" id="TradutorTextoComando-to-Comando" style="stroke:#A80036;stroke-width:1.0;"/><polygon fill="#A80036" points="241.45,633.84,241.5813,623.992,239.4804,629.2443,234.2281,627.1434,241.45,633.84" style="stroke:#A80036;stroke-width:1.0;"/><!--MD5=[570e8251817d076629998f888b591c14]
link ControladorDeGui to estadoGui--><path codeLine="86" d="M577.87,115.22 C588.46,135.45 600.39,158.22 610.43,177.4 " fill="none" id="ControladorDeGui-to-estadoGui" style="stroke:#A80036;stroke-width:1.0;"/><polygon fill="#A80036" points="612.94,182.2,612.3167,172.3709,610.6242,177.7686,605.2265,176.0761,612.94,182.2" style="stroke:#A80036;stroke-width:1.0;"/><!--MD5=[9bd65c19b445a9e48b025a3bf08fc8d4]
link AdaptadorJFugue to Instrumento--><path codeLine="87" d="M591.4,772.01 C605.74,798.77 623.05,831.06 637.16,857.41 " fill="none" id="AdaptadorJFugue-to-Instrumento" style="stroke:#A80036;stroke-width:1.0;"/><polygon fill="#A80036" points="639.58,861.92,638.8445,852.0986,637.2138,857.5154,631.797,855.8846,639.58,861.92" style="stroke:#A80036;stroke-width:1.0;"/><!--MD5=[b9a0f738aa170f99b10fad7721a5c344]
link AdaptadorJFugue to TradutorAdaptador--><path codeLine="88" d="M534.6,772.01 C517.37,804.16 495.88,844.27 480.76,872.49 " fill="none" id="AdaptadorJFugue-to-TradutorAdaptador" style="stroke:#A80036;stroke-width:1.0;"/><polygon fill="#A80036" points="478.39,876.91,486.1578,870.8551,480.7452,872.4994,479.1008,867.0868,478.39,876.91" style="stroke:#A80036;stroke-width:1.0;"/><!--MD5=[ba8502f296815a25a71c3523d9afe0a8]
@startuml classes

class Orquestrador{
    - DecodificadorTexto
    - ControladorMusical
    + orquestra( String )
}

class ControladorDeGui{
    - estadoGui
    + entraTexto():String
    + abrir()
    + fechar()
}

enum estadoGui{
    + Standby
    + ProcessandoMusica
}

class DecodificadorTexto{
    + traduzTexto(String):Musica
}

interface TradutorTextoComando{
    + traduz(String):comando
}

class TradutorTextoParaComando implements TradutorTextoComando{}

class ControladorMusical{
    + executaMusica(Musica)
}

interface AdaptadorMusical{
    + tocarNota(Comando)
    + aumentarOitava()
    + reduzirOitava()
    + aumentarVolume()
    + reduzirVolume()
}

class AdaptadorJFugue implements AdaptadorMusical{
    - BPM
    - Oitava
    - Volume
    - Instrumento
}

interface TradutorAdaptador{
    + traduzParaAdaptador(Comando):String
}

class TradutorJFugue implements TradutorAdaptador{

}

enum Instrumento{
    - bateria
    - piano
    - guiatarra
}

enum Comando{
    + do
    + re
    + mi
    + fa
    + sol
    + la
    + si
    ...
}

class Musica{
    - sequenciaDeComandos
}


ControladorDeGui - -> Orquestrador
Orquestrador - -> ControladorMusical
Orquestrador - -> DecodificadorTexto
DecodificadorTexto - -> TradutorTextoComando
DecodificadorTexto - -> Musica
ControladorMusical - -> AdaptadorMusical
TradutorTextoComando - -> Comando
ControladorDeGui - -> estadoGui
AdaptadorJFugue - -> Instrumento
AdaptadorJFugue - -> TradutorAdaptador


@enduml

PlantUML version 1.2022.0(Tue Jan 11 13:16:42 BRT 2022)
(GPL source distribution)
Java Runtime: OpenJDK Runtime Environment
JVM: OpenJDK 64-Bit Server VM
Default Encoding: UTF-8
Language: en
Country: US
--></g></svg>