<?xml version="1.0" encoding="UTF-8" standalone="no"?><svg xmlns="http://www.w3.org/2000/svg" xmlns:xlink="http://www.w3.org/1999/xlink" contentScriptType="application/ecmascript" contentStyleType="text/css" height="815px" preserveAspectRatio="none" style="width:699px;height:815px;background:#FFFFFF;" version="1.1" viewBox="0 0 699 815" width="699px" zoomAndPan="magnify"><defs><filter height="300%" id="f1v5ckchggtwtb" width="300%" x="-1" y="-1"><feGaussianBlur result="blurOut" stdDeviation="2.0"/><feColorMatrix in="blurOut" result="blurOut2" type="matrix" values="0 0 0 0 0 0 0 0 0 0 0 0 0 0 0 0 0 0 .4 0"/><feOffset dx="4.0" dy="4.0" in="blurOut2" result="blurOut3"/><feBlend in="SourceGraphic" in2="blurOut3" mode="normal"/></filter></defs><g><!--MD5=[cc7199de7d3e82d413e313b3906f7f53]
class Orquestrador--><rect codeLine="2" fill="#FEFECE" filter="url(#f1v5ckchggtwtb)" height="62.9819" id="Orquestrador" style="stroke:#A80036;stroke-width:1.5;" width="108" x="336.5" y="7"/><ellipse cx="351.5" cy="23" fill="#ADD1B2" rx="11" ry="11" style="stroke:#A80036;stroke-width:1.0;"/><path d="M350.9688,29.9219 Q349.2188,29.9219 348.0781,29.1875 Q346.9531,28.4375 346.3906,27.0938 Q345.8438,25.7344 345.8438,23.9375 Q345.8438,21.9063 346.5,20.4531 Q347.1563,19 348.4375,18.2188 Q349.7188,17.4375 351.5938,17.4375 Q352.4844,17.4375 353.1563,17.625 Q353.8281,17.7969 354.5156,18.1406 L353.7031,20.1563 Q353.0781,19.8438 352.5313,19.7188 Q352,19.5938 351.5156,19.5938 Q350.3438,19.5938 349.6406,20.125 Q348.9375,20.6563 348.6406,21.6094 Q348.3438,22.5625 348.3438,23.8281 Q348.3438,25.8438 349.0625,26.8125 Q349.7813,27.7656 351.375,27.7656 Q351.9688,27.7656 352.5938,27.6094 Q353.2188,27.4531 354.0469,27.0781 L354.0469,29.2969 Q353.3125,29.6094 352.5156,29.7656 Q351.7344,29.9219 350.9688,29.9219 Z " fill="#000000"/><text fill="#000000" font-family="sans-serif" font-size="12" lengthAdjust="spacing" textLength="76" x="365.5" y="27.656">Orquestrador</text><line style="stroke:#A80036;stroke-width:1.5;" x1="337.5" x2="443.5" y1="39" y2="39"/><line style="stroke:#A80036;stroke-width:1.5;" x1="337.5" x2="443.5" y1="47" y2="47"/><ellipse cx="347.5" cy="58" fill="#84BE84" rx="3" ry="3" style="stroke:#038048;stroke-width:1.0;"/><text fill="#000000" font-family="sans-serif" font-size="11" lengthAdjust="spacing" textLength="63" x="356.5" y="62.7589">orquestrar()</text><!--MD5=[6130c60027cb57cdf173ce39f44ff212]
class ControladorDeGui--><rect codeLine="6" fill="#FEFECE" filter="url(#f1v5ckchggtwtb)" height="107.9276" id="ControladorDeGui" style="stroke:#A80036;stroke-width:1.5;" width="134" x="93.5" y="130"/><ellipse cx="108.5" cy="146" fill="#ADD1B2" rx="11" ry="11" style="stroke:#A80036;stroke-width:1.0;"/><path d="M107.9688,152.9219 Q106.2188,152.9219 105.0781,152.1875 Q103.9531,151.4375 103.3906,150.0938 Q102.8438,148.7344 102.8438,146.9375 Q102.8438,144.9063 103.5,143.4531 Q104.1563,142 105.4375,141.2188 Q106.7188,140.4375 108.5938,140.4375 Q109.4844,140.4375 110.1563,140.625 Q110.8281,140.7969 111.5156,141.1406 L110.7031,143.1563 Q110.0781,142.8438 109.5313,142.7188 Q109,142.5938 108.5156,142.5938 Q107.3438,142.5938 106.6406,143.125 Q105.9375,143.6563 105.6406,144.6094 Q105.3438,145.5625 105.3438,146.8281 Q105.3438,148.8438 106.0625,149.8125 Q106.7813,150.7656 108.375,150.7656 Q108.9688,150.7656 109.5938,150.6094 Q110.2188,150.4531 111.0469,150.0781 L111.0469,152.2969 Q110.3125,152.6094 109.5156,152.7656 Q108.7344,152.9219 107.9688,152.9219 Z " fill="#000000"/><text fill="#000000" font-family="sans-serif" font-size="12" lengthAdjust="spacing" textLength="102" x="122.5" y="150.656">ControladorDeGui</text><line style="stroke:#A80036;stroke-width:1.5;" x1="94.5" x2="226.5" y1="162" y2="162"/><rect fill="none" height="6" style="stroke:#C82930;stroke-width:1.0;" width="6" x="101.5" y="170"/><text fill="#000000" font-family="sans-serif" font-size="11" lengthAdjust="spacing" textLength="53" x="113.5" y="177.7589">estadoGui</text><line style="stroke:#A80036;stroke-width:1.5;" x1="94.5" x2="226.5" y1="184.9819" y2="184.9819"/><ellipse cx="104.5" cy="195.9819" fill="#84BE84" rx="3" ry="3" style="stroke:#038048;stroke-width:1.0;"/><text fill="#000000" font-family="sans-serif" font-size="11" lengthAdjust="spacing" textLength="98" x="113.5" y="200.7408">entraTexto():String</text><ellipse cx="104.5" cy="210.9638" fill="#84BE84" rx="3" ry="3" style="stroke:#038048;stroke-width:1.0;"/><text fill="#000000" font-family="sans-serif" font-size="11" lengthAdjust="spacing" textLength="32" x="113.5" y="215.7227">abrir()</text><ellipse cx="104.5" cy="225.9457" fill="#84BE84" rx="3" ry="3" style="stroke:#038048;stroke-width:1.0;"/><text fill="#000000" font-family="sans-serif" font-size="11" lengthAdjust="spacing" textLength="39" x="113.5" y="230.7046">fechar()</text><!--MD5=[e0fddca87f21341e5dd21bbb64d2fab9]
class estadoGui--><rect codeLine="13" fill="#FEFECE" filter="url(#f1v5ckchggtwtb)" height="77.9638" id="estadoGui" style="stroke:#A80036;stroke-width:1.5;" width="129" x="7" y="320.5"/><ellipse cx="40" cy="336.5" fill="#EB937F" rx="11" ry="11" style="stroke:#A80036;stroke-width:1.0;"/><path d="M36.3594,343 L36.3594,330.8594 L44.0156,330.8594 L44.0156,332.9844 L38.7344,332.9844 L38.7344,335.6406 L43.75,335.6406 L43.75,337.7656 L38.7344,337.7656 L38.7344,340.875 L44.0156,340.875 L44.0156,343 L36.3594,343 Z " fill="#000000"/><text fill="#000000" font-family="sans-serif" font-size="12" lengthAdjust="spacing" textLength="57" x="58" y="341.156">estadoGui</text><line style="stroke:#A80036;stroke-width:1.5;" x1="8" x2="135" y1="352.5" y2="352.5"/><ellipse cx="18" cy="363.5" rx="3" ry="3" style="stroke:#038048;stroke-width:1.0;fill:none;"/><text fill="#000000" font-family="sans-serif" font-size="11" lengthAdjust="spacing" textLength="43" x="27" y="368.2589">Standby</text><ellipse cx="18" cy="378.4819" rx="3" ry="3" style="stroke:#038048;stroke-width:1.0;fill:none;"/><text fill="#000000" font-family="sans-serif" font-size="11" lengthAdjust="spacing" textLength="103" x="27" y="383.2408">ProcessandoMusica</text><line style="stroke:#A80036;stroke-width:1.5;" x1="8" x2="135" y1="390.4638" y2="390.4638"/><!--MD5=[ad23146357bdd208a2f074f6030d17e8]
class DecodificadorTexto--><rect codeLine="18" fill="#FEFECE" filter="url(#f1v5ckchggtwtb)" height="62.9819" id="DecodificadorTexto" style="stroke:#A80036;stroke-width:1.5;" width="166" x="307.5" y="152.5"/><ellipse cx="333.75" cy="168.5" fill="#ADD1B2" rx="11" ry="11" style="stroke:#A80036;stroke-width:1.0;"/><path d="M333.2188,175.4219 Q331.4688,175.4219 330.3281,174.6875 Q329.2031,173.9375 328.6406,172.5938 Q328.0938,171.2344 328.0938,169.4375 Q328.0938,167.4063 328.75,165.9531 Q329.4063,164.5 330.6875,163.7188 Q331.9688,162.9375 333.8438,162.9375 Q334.7344,162.9375 335.4063,163.125 Q336.0781,163.2969 336.7656,163.6406 L335.9531,165.6563 Q335.3281,165.3438 334.7813,165.2188 Q334.25,165.0938 333.7656,165.0938 Q332.5938,165.0938 331.8906,165.625 Q331.1875,166.1563 330.8906,167.1094 Q330.5938,168.0625 330.5938,169.3281 Q330.5938,171.3438 331.3125,172.3125 Q332.0313,173.2656 333.625,173.2656 Q334.2188,173.2656 334.8438,173.1094 Q335.4688,172.9531 336.2969,172.5781 L336.2969,174.7969 Q335.5625,175.1094 334.7656,175.2656 Q333.9844,175.4219 333.2188,175.4219 Z " fill="#000000"/><text fill="#000000" font-family="sans-serif" font-size="12" lengthAdjust="spacing" textLength="109" x="350.25" y="173.156">DecodificadorTexto</text><line style="stroke:#A80036;stroke-width:1.5;" x1="308.5" x2="472.5" y1="184.5" y2="184.5"/><line style="stroke:#A80036;stroke-width:1.5;" x1="308.5" x2="472.5" y1="192.5" y2="192.5"/><ellipse cx="318.5" cy="203.5" fill="#84BE84" rx="3" ry="3" style="stroke:#038048;stroke-width:1.0;"/><text fill="#000000" font-family="sans-serif" font-size="11" lengthAdjust="spacing" textLength="140" x="327.5" y="208.2589">traduzTexto(String):Musica</text><!--MD5=[1779cf4dea73243dda24388918ce614c]
class TradutorTextoComando--><rect codeLine="22" fill="#FEFECE" filter="url(#f1v5ckchggtwtb)" height="62.9819" id="TradutorTextoComando" style="stroke:#A80036;stroke-width:1.5;" width="166" x="171.5" y="328"/><ellipse cx="186.5" cy="344" fill="#ADD1B2" rx="11" ry="11" style="stroke:#A80036;stroke-width:1.0;"/><path d="M185.9688,350.9219 Q184.2188,350.9219 183.0781,350.1875 Q181.9531,349.4375 181.3906,348.0938 Q180.8438,346.7344 180.8438,344.9375 Q180.8438,342.9063 181.5,341.4531 Q182.1563,340 183.4375,339.2188 Q184.7188,338.4375 186.5938,338.4375 Q187.4844,338.4375 188.1563,338.625 Q188.8281,338.7969 189.5156,339.1406 L188.7031,341.1563 Q188.0781,340.8438 187.5313,340.7188 Q187,340.5938 186.5156,340.5938 Q185.3438,340.5938 184.6406,341.125 Q183.9375,341.6563 183.6406,342.6094 Q183.3438,343.5625 183.3438,344.8281 Q183.3438,346.8438 184.0625,347.8125 Q184.7813,348.7656 186.375,348.7656 Q186.9688,348.7656 187.5938,348.6094 Q188.2188,348.4531 189.0469,348.0781 L189.0469,350.2969 Q188.3125,350.6094 187.5156,350.7656 Q186.7344,350.9219 185.9688,350.9219 Z " fill="#000000"/><text fill="#000000" font-family="sans-serif" font-size="12" lengthAdjust="spacing" textLength="134" x="200.5" y="348.656">TradutorTextoComando</text><line style="stroke:#A80036;stroke-width:1.5;" x1="172.5" x2="336.5" y1="360" y2="360"/><line style="stroke:#A80036;stroke-width:1.5;" x1="172.5" x2="336.5" y1="368" y2="368"/><ellipse cx="182.5" cy="379" fill="#84BE84" rx="3" ry="3" style="stroke:#038048;stroke-width:1.0;"/><text fill="#000000" font-family="sans-serif" font-size="11" lengthAdjust="spacing" textLength="124" x="191.5" y="383.7589">traduz(String):comando</text><!--MD5=[3947fcfebebf3a380209f6200e77d224]
class AdaptadorMusical--><rect codeLine="26" fill="#FEFECE" filter="url(#f1v5ckchggtwtb)" height="122.9094" id="AdaptadorMusical" style="stroke:#A80036;stroke-width:1.5;" width="130" x="555.5" y="298"/><ellipse cx="570.5" cy="314" fill="#B4A7E5" rx="11" ry="11" style="stroke:#A80036;stroke-width:1.0;"/><path d="M566.5313,320.5 L566.5313,318.7969 L568.8906,318.5313 L568.8906,310.3281 L566.5313,310.0625 L566.5313,308.3594 L573.6719,308.3594 L573.6719,310.0625 L571.25,310.3281 L571.25,318.5313 L573.6719,318.7969 L573.6719,320.5 L566.5313,320.5 Z " fill="#000000"/><text fill="#000000" font-family="sans-serif" font-size="12" font-style="italic" lengthAdjust="spacing" textLength="98" x="584.5" y="318.656">AdaptadorMusical</text><line style="stroke:#A80036;stroke-width:1.5;" x1="556.5" x2="684.5" y1="330" y2="330"/><line style="stroke:#A80036;stroke-width:1.5;" x1="556.5" x2="684.5" y1="338" y2="338"/><ellipse cx="566.5" cy="349" fill="#84BE84" rx="3" ry="3" style="stroke:#038048;stroke-width:1.0;"/><text fill="#000000" font-family="sans-serif" font-size="11" lengthAdjust="spacing" textLength="58" x="575.5" y="353.7589">tocarNota()</text><ellipse cx="566.5" cy="363.9819" fill="#84BE84" rx="3" ry="3" style="stroke:#038048;stroke-width:1.0;"/><text fill="#000000" font-family="sans-serif" font-size="11" lengthAdjust="spacing" textLength="91" x="575.5" y="368.7408">aumentarOitava()</text><ellipse cx="566.5" cy="378.9638" fill="#84BE84" rx="3" ry="3" style="stroke:#038048;stroke-width:1.0;"/><text fill="#000000" font-family="sans-serif" font-size="11" lengthAdjust="spacing" textLength="78" x="575.5" y="383.7227">reduzirOitava()</text><ellipse cx="566.5" cy="393.9457" fill="#84BE84" rx="3" ry="3" style="stroke:#038048;stroke-width:1.0;"/><text fill="#000000" font-family="sans-serif" font-size="11" lengthAdjust="spacing" textLength="97" x="575.5" y="398.7046">aumentarVolume()</text><ellipse cx="566.5" cy="408.9276" fill="#84BE84" rx="3" ry="3" style="stroke:#038048;stroke-width:1.0;"/><text fill="#000000" font-family="sans-serif" font-size="11" lengthAdjust="spacing" textLength="84" x="575.5" y="413.6865">reduzirVolume()</text><!--MD5=[20a2f73b19b4899378588d8d90d683d2]
class AdaptadorJFugue--><rect codeLine="34" fill="#FEFECE" filter="url(#f1v5ckchggtwtb)" height="107.9276" id="AdaptadorJFugue" style="stroke:#A80036;stroke-width:1.5;" width="128" x="556.5" y="511"/><ellipse cx="571.5" cy="527" fill="#ADD1B2" rx="11" ry="11" style="stroke:#A80036;stroke-width:1.0;"/><path d="M570.9688,533.9219 Q569.2188,533.9219 568.0781,533.1875 Q566.9531,532.4375 566.3906,531.0938 Q565.8438,529.7344 565.8438,527.9375 Q565.8438,525.9063 566.5,524.4531 Q567.1563,523 568.4375,522.2188 Q569.7188,521.4375 571.5938,521.4375 Q572.4844,521.4375 573.1563,521.625 Q573.8281,521.7969 574.5156,522.1406 L573.7031,524.1563 Q573.0781,523.8438 572.5313,523.7188 Q572,523.5938 571.5156,523.5938 Q570.3438,523.5938 569.6406,524.125 Q568.9375,524.6563 568.6406,525.6094 Q568.3438,526.5625 568.3438,527.8281 Q568.3438,529.8438 569.0625,530.8125 Q569.7813,531.7656 571.375,531.7656 Q571.9688,531.7656 572.5938,531.6094 Q573.2188,531.4531 574.0469,531.0781 L574.0469,533.2969 Q573.3125,533.6094 572.5156,533.7656 Q571.7344,533.9219 570.9688,533.9219 Z " fill="#000000"/><text fill="#000000" font-family="sans-serif" font-size="12" lengthAdjust="spacing" textLength="96" x="585.5" y="531.656">AdaptadorJFugue</text><line style="stroke:#A80036;stroke-width:1.5;" x1="557.5" x2="683.5" y1="543" y2="543"/><rect fill="none" height="6" style="stroke:#C82930;stroke-width:1.0;" width="6" x="564.5" y="551"/><text fill="#000000" font-family="sans-serif" font-size="11" lengthAdjust="spacing" textLength="24" x="576.5" y="558.7589">BPM</text><rect fill="none" height="6" style="stroke:#C82930;stroke-width:1.0;" width="6" x="564.5" y="565.9819"/><text fill="#000000" font-family="sans-serif" font-size="11" lengthAdjust="spacing" textLength="34" x="576.5" y="573.7408">Oitava</text><rect fill="none" height="6" style="stroke:#C82930;stroke-width:1.0;" width="6" x="564.5" y="580.9638"/><text fill="#000000" font-family="sans-serif" font-size="11" lengthAdjust="spacing" textLength="40" x="576.5" y="588.7227">Volume</text><rect fill="none" height="6" style="stroke:#C82930;stroke-width:1.0;" width="6" x="564.5" y="595.9457"/><text fill="#000000" font-family="sans-serif" font-size="11" lengthAdjust="spacing" textLength="66" x="576.5" y="603.7046">Instrumento</text><line style="stroke:#A80036;stroke-width:1.5;" x1="557.5" x2="683.5" y1="610.9276" y2="610.9276"/><!--MD5=[60f538da2e3d3c2e5a13d43455efb760]
class Instrumento--><rect codeLine="41" fill="#FEFECE" filter="url(#f1v5ckchggtwtb)" height="92.9457" id="Instrumento" style="stroke:#A80036;stroke-width:1.5;" width="101" x="570" y="709"/><ellipse cx="585" cy="725" fill="#EB937F" rx="11" ry="11" style="stroke:#A80036;stroke-width:1.0;"/><path d="M581.3594,731.5 L581.3594,719.3594 L589.0156,719.3594 L589.0156,721.4844 L583.7344,721.4844 L583.7344,724.1406 L588.75,724.1406 L588.75,726.2656 L583.7344,726.2656 L583.7344,729.375 L589.0156,729.375 L589.0156,731.5 L581.3594,731.5 Z " fill="#000000"/><text fill="#000000" font-family="sans-serif" font-size="12" lengthAdjust="spacing" textLength="69" x="599" y="729.656">Instrumento</text><line style="stroke:#A80036;stroke-width:1.5;" x1="571" x2="670" y1="741" y2="741"/><rect fill="none" height="6" style="stroke:#C82930;stroke-width:1.0;" width="6" x="578" y="749"/><text fill="#000000" font-family="sans-serif" font-size="11" lengthAdjust="spacing" textLength="37" x="590" y="756.7589">bateria</text><rect fill="none" height="6" style="stroke:#C82930;stroke-width:1.0;" width="6" x="578" y="763.9819"/><text fill="#000000" font-family="sans-serif" font-size="11" lengthAdjust="spacing" textLength="30" x="590" y="771.7408">piano</text><rect fill="none" height="6" style="stroke:#C82930;stroke-width:1.0;" width="6" x="578" y="778.9638"/><text fill="#000000" font-family="sans-serif" font-size="11" lengthAdjust="spacing" textLength="49" x="590" y="786.7227">guiatarra</text><line style="stroke:#A80036;stroke-width:1.5;" x1="571" x2="670" y1="793.9457" y2="793.9457"/><!--MD5=[56417687a4df0e197f9df99f622965c8]
class comando--><rect codeLine="47" fill="#FEFECE" filter="url(#f1v5ckchggtwtb)" height="167.8551" id="comando" style="stroke:#A80036;stroke-width:1.5;" width="84" x="212.5" y="481"/><ellipse cx="227.5" cy="497" fill="#EB937F" rx="11" ry="11" style="stroke:#A80036;stroke-width:1.0;"/><path d="M223.8594,503.5 L223.8594,491.3594 L231.5156,491.3594 L231.5156,493.4844 L226.2344,493.4844 L226.2344,496.1406 L231.25,496.1406 L231.25,498.2656 L226.2344,498.2656 L226.2344,501.375 L231.5156,501.375 L231.5156,503.5 L223.8594,503.5 Z " fill="#000000"/><text fill="#000000" font-family="sans-serif" font-size="12" lengthAdjust="spacing" textLength="52" x="241.5" y="501.656">comando</text><line style="stroke:#A80036;stroke-width:1.5;" x1="213.5" x2="295.5" y1="513" y2="513"/><ellipse cx="223.5" cy="524" rx="3" ry="3" style="stroke:#038048;stroke-width:1.0;fill:none;"/><text fill="#000000" font-family="sans-serif" font-size="11" lengthAdjust="spacing" textLength="14" x="232.5" y="528.7589">do</text><ellipse cx="223.5" cy="538.9819" rx="3" ry="3" style="stroke:#038048;stroke-width:1.0;fill:none;"/><text fill="#000000" font-family="sans-serif" font-size="11" lengthAdjust="spacing" textLength="11" x="232.5" y="543.7408">re</text><ellipse cx="223.5" cy="553.9638" rx="3" ry="3" style="stroke:#038048;stroke-width:1.0;fill:none;"/><text fill="#000000" font-family="sans-serif" font-size="11" lengthAdjust="spacing" textLength="13" x="232.5" y="558.7227">mi</text><ellipse cx="223.5" cy="568.9457" rx="3" ry="3" style="stroke:#038048;stroke-width:1.0;fill:none;"/><text fill="#000000" font-family="sans-serif" font-size="11" lengthAdjust="spacing" textLength="10" x="232.5" y="573.7046">fa</text><ellipse cx="223.5" cy="583.9276" rx="3" ry="3" style="stroke:#038048;stroke-width:1.0;fill:none;"/><text fill="#000000" font-family="sans-serif" font-size="11" lengthAdjust="spacing" textLength="15" x="232.5" y="588.6865">sol</text><ellipse cx="223.5" cy="598.9094" rx="3" ry="3" style="stroke:#038048;stroke-width:1.0;fill:none;"/><text fill="#000000" font-family="sans-serif" font-size="11" lengthAdjust="spacing" textLength="9" x="232.5" y="603.6684">la</text><ellipse cx="223.5" cy="613.8913" rx="3" ry="3" style="stroke:#038048;stroke-width:1.0;fill:none;"/><text fill="#000000" font-family="sans-serif" font-size="11" lengthAdjust="spacing" textLength="8" x="232.5" y="618.6502">si</text><text fill="#000000" font-family="sans-serif" font-size="11" lengthAdjust="spacing" textLength="9" x="232.5" y="633.6321">...</text><line style="stroke:#A80036;stroke-width:1.5;" x1="213.5" x2="295.5" y1="640.8551" y2="640.8551"/><!--MD5=[2927a630b13e88512b2d3b16c23c7e23]
class Musica--><rect codeLine="58" fill="#FEFECE" filter="url(#f1v5ckchggtwtb)" height="62.9819" id="Musica" style="stroke:#A80036;stroke-width:1.5;" width="148" x="372.5" y="328"/><ellipse cx="422.25" cy="344" fill="#ADD1B2" rx="11" ry="11" style="stroke:#A80036;stroke-width:1.0;"/><path d="M421.7188,350.9219 Q419.9688,350.9219 418.8281,350.1875 Q417.7031,349.4375 417.1406,348.0938 Q416.5938,346.7344 416.5938,344.9375 Q416.5938,342.9063 417.25,341.4531 Q417.9063,340 419.1875,339.2188 Q420.4688,338.4375 422.3438,338.4375 Q423.2344,338.4375 423.9063,338.625 Q424.5781,338.7969 425.2656,339.1406 L424.4531,341.1563 Q423.8281,340.8438 423.2813,340.7188 Q422.75,340.5938 422.2656,340.5938 Q421.0938,340.5938 420.3906,341.125 Q419.6875,341.6563 419.3906,342.6094 Q419.0938,343.5625 419.0938,344.8281 Q419.0938,346.8438 419.8125,347.8125 Q420.5313,348.7656 422.125,348.7656 Q422.7188,348.7656 423.3438,348.6094 Q423.9688,348.4531 424.7969,348.0781 L424.7969,350.2969 Q424.0625,350.6094 423.2656,350.7656 Q422.4844,350.9219 421.7188,350.9219 Z " fill="#000000"/><text fill="#000000" font-family="sans-serif" font-size="12" lengthAdjust="spacing" textLength="40" x="442.75" y="348.656">Musica</text><line style="stroke:#A80036;stroke-width:1.5;" x1="373.5" x2="519.5" y1="360" y2="360"/><rect fill="none" height="6" style="stroke:#C82930;stroke-width:1.0;" width="6" x="380.5" y="368"/><text fill="#000000" font-family="sans-serif" font-size="11" lengthAdjust="spacing" textLength="122" x="392.5" y="375.7589">sequenciaDeComandos</text><line style="stroke:#A80036;stroke-width:1.5;" x1="373.5" x2="519.5" y1="382.9819" y2="382.9819"/><!--MD5=[5d069b5668f859c2b3ec29d6b505043a]
class TocadorDeMusica--><rect codeLine="62" fill="#FEFECE" filter="url(#f1v5ckchggtwtb)" height="62.9819" id="TocadorDeMusica" style="stroke:#A80036;stroke-width:1.5;" width="134" x="530.5" y="152.5"/><ellipse cx="545.5" cy="168.5" fill="#ADD1B2" rx="11" ry="11" style="stroke:#A80036;stroke-width:1.0;"/><path d="M544.9688,175.4219 Q543.2188,175.4219 542.0781,174.6875 Q540.9531,173.9375 540.3906,172.5938 Q539.8438,171.2344 539.8438,169.4375 Q539.8438,167.4063 540.5,165.9531 Q541.1563,164.5 542.4375,163.7188 Q543.7188,162.9375 545.5938,162.9375 Q546.4844,162.9375 547.1563,163.125 Q547.8281,163.2969 548.5156,163.6406 L547.7031,165.6563 Q547.0781,165.3438 546.5313,165.2188 Q546,165.0938 545.5156,165.0938 Q544.3438,165.0938 543.6406,165.625 Q542.9375,166.1563 542.6406,167.1094 Q542.3438,168.0625 542.3438,169.3281 Q542.3438,171.3438 543.0625,172.3125 Q543.7813,173.2656 545.375,173.2656 Q545.9688,173.2656 546.5938,173.1094 Q547.2188,172.9531 548.0469,172.5781 L548.0469,174.7969 Q547.3125,175.1094 546.5156,175.2656 Q545.7344,175.4219 544.9688,175.4219 Z " fill="#000000"/><text fill="#000000" font-family="sans-serif" font-size="12" lengthAdjust="spacing" textLength="102" x="559.5" y="173.156">TocadorDeMusica</text><line style="stroke:#A80036;stroke-width:1.5;" x1="531.5" x2="663.5" y1="184.5" y2="184.5"/><line style="stroke:#A80036;stroke-width:1.5;" x1="531.5" x2="663.5" y1="192.5" y2="192.5"/><ellipse cx="541.5" cy="203.5" fill="#84BE84" rx="3" ry="3" style="stroke:#038048;stroke-width:1.0;"/><text fill="#000000" font-family="sans-serif" font-size="11" lengthAdjust="spacing" textLength="70" x="550.5" y="208.2589">toca( Musica )</text><!--MD5=[5fd119549db5b76968d1fa7f6bc1a1f0]
reverse link AdaptadorMusical to AdaptadorJFugue--><path d="M620.5,441.11 C620.5,464.59 620.5,489.65 620.5,510.98 " fill="none" id="AdaptadorMusical-backto-AdaptadorJFugue" style="stroke:#A80036;stroke-width:1.0;stroke-dasharray:7.0,7.0;"/><polygon fill="none" points="613.5,441.01,620.5,421.01,627.5,441.01,613.5,441.01" style="stroke:#A80036;stroke-width:1.0;"/><!--MD5=[1b1bcea03a752c7124aec79bab20add1]
link Orquestrador to DecodificadorTexto--><path codeLine="66" d="M390.5,70.28 C390.5,92.79 390.5,123.39 390.5,147.03 " fill="none" id="Orquestrador-to-DecodificadorTexto" style="stroke:#A80036;stroke-width:1.0;"/><polygon fill="#A80036" points="390.5,152.27,394.5,143.27,390.5,147.27,386.5,143.27,390.5,152.27" style="stroke:#A80036;stroke-width:1.0;"/><!--MD5=[14fceaa79a1e3f12bca4721c8b1f574f]
link Orquestrador to TocadorDeMusica--><path codeLine="67" d="M434.65,70.11 C468.31,93.44 514.62,125.54 549.25,149.55 " fill="none" id="Orquestrador-to-TocadorDeMusica" style="stroke:#A80036;stroke-width:1.0;"/><polygon fill="#A80036" points="553.42,152.44,548.2895,144.033,549.3065,149.5977,543.7418,150.6146,553.42,152.44" style="stroke:#A80036;stroke-width:1.0;"/><!--MD5=[f7edd1a15af43c0e9ede49a127bcb4b7]
link Orquestrador to ControladorDeGui--><path codeLine="68" d="M341.44,70.11 C309.62,89.96 267.63,116.16 232.1,138.33 " fill="none" id="Orquestrador-to-ControladorDeGui" style="stroke:#A80036;stroke-width:1.0;"/><polygon fill="#A80036" points="227.81,141.01,237.5641,139.6468,232.054,138.3664,233.3343,132.8564,227.81,141.01" style="stroke:#A80036;stroke-width:1.0;"/><!--MD5=[7fdd772908b8c3c928ae37a7efadeb59]
link DecodificadorTexto to TradutorTextoComando--><path codeLine="69" d="M366.5,215.62 C342.78,245.88 306.55,292.1 281.76,323.73 " fill="none" id="DecodificadorTexto-to-TradutorTextoComando" style="stroke:#A80036;stroke-width:1.0;"/><polygon fill="#A80036" points="278.49,327.9,287.1949,323.293,281.5785,323.9679,280.9036,318.3515,278.49,327.9" style="stroke:#A80036;stroke-width:1.0;"/><!--MD5=[dc0470bf4ec233f20c7c20b737be2079]
link DecodificadorTexto to Musica--><path codeLine="70" d="M400.38,215.62 C410.07,245.63 424.83,291.35 435.03,322.95 " fill="none" id="DecodificadorTexto-to-Musica" style="stroke:#A80036;stroke-width:1.0;"/><polygon fill="#A80036" points="436.62,327.9,437.6483,318.105,435.0775,323.1439,430.0386,320.573,436.62,327.9" style="stroke:#A80036;stroke-width:1.0;"/><!--MD5=[de55f04f1dc1342b8f6804ed71da9a16]
link TocadorDeMusica to AdaptadorMusical--><path codeLine="71" d="M601.56,215.62 C604.38,236.87 608.24,265.99 611.74,292.41 " fill="none" id="TocadorDeMusica-to-AdaptadorMusical" style="stroke:#A80036;stroke-width:1.0;"/><polygon fill="#A80036" points="612.43,297.65,615.2126,288.2024,611.7729,292.6934,607.282,289.2537,612.43,297.65" style="stroke:#A80036;stroke-width:1.0;"/><!--MD5=[2b61ac774488d9ff9d1bfc34451979ee]
link TradutorTextoComando to comando--><path codeLine="72" d="M254.5,391.41 C254.5,413.9 254.5,445.56 254.5,475.64 " fill="none" id="TradutorTextoComando-to-comando" style="stroke:#A80036;stroke-width:1.0;"/><polygon fill="#A80036" points="254.5,480.84,258.5,471.84,254.5,475.84,250.5,471.84,254.5,480.84" style="stroke:#A80036;stroke-width:1.0;"/><!--MD5=[570e8251817d076629998f888b591c14]
link ControladorDeGui to estadoGui--><path codeLine="73" d="M133.07,238.47 C120.33,263.3 105.4,292.42 93.43,315.76 " fill="none" id="ControladorDeGui-to-estadoGui" style="stroke:#A80036;stroke-width:1.0;"/><polygon fill="#A80036" points="91.07,320.34,98.7442,314.1669,93.3574,315.8939,91.6304,310.5071,91.07,320.34" style="stroke:#A80036;stroke-width:1.0;"/><!--MD5=[9bd65c19b445a9e48b025a3bf08fc8d4]
link AdaptadorJFugue to Instrumento--><path codeLine="74" d="M620.5,619.01 C620.5,645.55 620.5,677.53 620.5,703.75 " fill="none" id="AdaptadorJFugue-to-Instrumento" style="stroke:#A80036;stroke-width:1.0;"/><polygon fill="#A80036" points="620.5,708.92,624.5,699.92,620.5,703.92,616.5,699.92,620.5,708.92" style="stroke:#A80036;stroke-width:1.0;"/><!--MD5=[82d0448567b336a51d5444b1b51be923]
@startuml classes

class Orquestrador{
    + orquestrar()
}

class ControladorDeGui{
    - estadoGui
    + entraTexto():String
    + abrir()
    + fechar()
}

enum estadoGui{
    + Standby
    + ProcessandoMusica
}

class DecodificadorTexto{
    + traduzTexto(String):Musica
}

class TradutorTextoComando{
    + traduz(String):comando
}

interface AdaptadorMusical{
    + tocarNota()
    + aumentarOitava()
    + reduzirOitava()
    + aumentarVolume()
    + reduzirVolume()
}

class AdaptadorJFugue implements AdaptadorMusical{
    - BPM
    - Oitava
    - Volume
    - Instrumento
}

enum Instrumento{
    - bateria
    - piano
    - guiatarra
}

enum comando{
    + do
    + re
    + mi
    + fa
    + sol
    + la
    + si
    ...
}

class Musica{
    - sequenciaDeComandos
}

class TocadorDeMusica{
    + toca( Musica )
}

Orquestrador - -> DecodificadorTexto
Orquestrador - -> TocadorDeMusica
Orquestrador - -> ControladorDeGui
DecodificadorTexto - -> TradutorTextoComando
DecodificadorTexto - -> Musica
TocadorDeMusica - -> AdaptadorMusical
TradutorTextoComando - -> comando
ControladorDeGui - -> estadoGui
AdaptadorJFugue - -> Instrumento


@enduml

PlantUML version 1.2022.0(Tue Jan 11 13:16:42 BRT 2022)
(GPL source distribution)
Java Runtime: OpenJDK Runtime Environment
JVM: OpenJDK 64-Bit Server VM
Default Encoding: UTF-8
Language: en
Country: US
--></g></svg>