<?xml version="1.0" encoding="UTF-8" standalone="no"?><svg xmlns="http://www.w3.org/2000/svg" xmlns:xlink="http://www.w3.org/1999/xlink" contentScriptType="application/ecmascript" contentStyleType="text/css" height="1092px" preserveAspectRatio="none" style="width:916px;height:1092px;background:#FFFFFF;" version="1.1" viewBox="0 0 916 1092" width="916px" zoomAndPan="magnify"><defs><filter height="300%" id="fl7tqb9p6qo9y" width="300%" x="-1" y="-1"><feGaussianBlur result="blurOut" stdDeviation="2.0"/><feColorMatrix in="blurOut" result="blurOut2" type="matrix" values="0 0 0 0 0 0 0 0 0 0 0 0 0 0 0 0 0 0 .4 0"/><feOffset dx="4.0" dy="4.0" in="blurOut2" result="blurOut3"/><feBlend in="SourceGraphic" in2="blurOut3" mode="normal"/></filter></defs><g><!--MD5=[cc7199de7d3e82d413e313b3906f7f53]
class Orquestrador--><rect codeLine="2" fill="#FEFECE" filter="url(#fl7tqb9p6qo9y)" height="89.5078" id="Orquestrador" style="stroke:#A80036;stroke-width:1.5;" width="160" x="387" y="198"/><ellipse cx="426.75" cy="214" fill="#ADD1B2" rx="11" ry="11" style="stroke:#A80036;stroke-width:1.0;"/><path d="M429.5156,209.875 Q429.6719,209.6563 429.8594,209.5469 Q430.0469,209.4375 430.2656,209.4375 Q430.6406,209.4375 430.875,209.6953 Q431.1094,209.9531 431.1094,210.5625 L431.1094,212.0156 Q431.1094,212.625 430.875,212.8906 Q430.6406,213.1563 430.2656,213.1563 Q429.9219,213.1563 429.7188,212.9531 Q429.5156,212.7656 429.4063,212.25 Q429.3594,211.8906 429.1719,211.7031 Q428.8438,211.3281 428.2344,211.1094 Q427.625,210.8906 427,210.8906 Q426.2344,210.8906 425.6016,211.2188 Q424.9688,211.5469 424.4766,212.2969 Q423.9844,213.0469 423.9844,214.0781 L423.9844,215.1719 Q423.9844,216.4063 424.875,217.2266 Q425.7656,218.0469 427.3594,218.0469 Q428.2969,218.0469 428.9531,217.7969 Q429.3438,217.6406 429.7656,217.2031 Q430.0313,216.9375 430.1797,216.8594 Q430.3281,216.7813 430.5313,216.7813 Q430.8594,216.7813 431.1172,217.0391 Q431.375,217.2969 431.375,217.6406 Q431.375,217.9844 431.0313,218.3906 Q430.5313,218.9688 429.7344,219.2969 Q428.6563,219.75 427.3594,219.75 Q425.8438,219.75 424.6406,219.125 Q423.6563,218.625 422.9688,217.5547 Q422.2813,216.4844 422.2813,215.2031 L422.2813,214.0469 Q422.2813,212.7188 422.8984,211.5703 Q423.5156,210.4219 424.6094,209.8047 Q425.7031,209.1875 426.9375,209.1875 Q427.6719,209.1875 428.3203,209.3516 Q428.9688,209.5156 429.5156,209.875 Z " fill="#000000"/><text fill="#000000" font-family="sans-serif" font-size="12" lengthAdjust="spacing" textLength="73" x="446.25" y="218.9102">Orquestrador</text><line style="stroke:#A80036;stroke-width:1.5;" x1="388" x2="546" y1="230" y2="230"/><rect fill="none" height="6" style="stroke:#C82930;stroke-width:1.0;" width="6" x="395" y="238"/><text fill="#000000" font-family="sans-serif" font-size="11" lengthAdjust="spacing" textLength="94" x="407" y="245.4189">DecodificadorTexto</text><rect fill="none" height="6" style="stroke:#C82930;stroke-width:1.0;" width="6" x="395" y="251.8359"/><text fill="#000000" font-family="sans-serif" font-size="11" lengthAdjust="spacing" textLength="92" x="407" y="259.2549">ControladorMusical</text><line style="stroke:#A80036;stroke-width:1.5;" x1="388" x2="546" y1="265.6719" y2="265.6719"/><ellipse cx="398" cy="276.6719" fill="#84BE84" rx="3" ry="3" style="stroke:#038048;stroke-width:1.0;"/><text fill="#000000" font-family="sans-serif" font-size="11" lengthAdjust="spacing" textLength="134" x="407" y="281.0908">orquestra( String , Boolean)</text><!--MD5=[6130c60027cb57cdf173ce39f44ff212]
class ControladorDeGui--><rect codeLine="8" fill="#FEFECE" filter="url(#fl7tqb9p6qo9y)" height="131.0156" id="ControladorDeGui" style="stroke:#A80036;stroke-width:1.5;" width="140" x="582" y="7"/><ellipse cx="600.6" cy="23" fill="#ADD1B2" rx="11" ry="11" style="stroke:#A80036;stroke-width:1.0;"/><path d="M603.3656,18.875 Q603.5219,18.6563 603.7094,18.5469 Q603.8969,18.4375 604.1156,18.4375 Q604.4906,18.4375 604.725,18.6953 Q604.9594,18.9531 604.9594,19.5625 L604.9594,21.0156 Q604.9594,21.625 604.725,21.8906 Q604.4906,22.1563 604.1156,22.1563 Q603.7719,22.1563 603.5688,21.9531 Q603.3656,21.7656 603.2563,21.25 Q603.2094,20.8906 603.0219,20.7031 Q602.6938,20.3281 602.0844,20.1094 Q601.475,19.8906 600.85,19.8906 Q600.0844,19.8906 599.4516,20.2188 Q598.8188,20.5469 598.3266,21.2969 Q597.8344,22.0469 597.8344,23.0781 L597.8344,24.1719 Q597.8344,25.4063 598.725,26.2266 Q599.6156,27.0469 601.2094,27.0469 Q602.1469,27.0469 602.8031,26.7969 Q603.1938,26.6406 603.6156,26.2031 Q603.8813,25.9375 604.0297,25.8594 Q604.1781,25.7813 604.3813,25.7813 Q604.7094,25.7813 604.9672,26.0391 Q605.225,26.2969 605.225,26.6406 Q605.225,26.9844 604.8813,27.3906 Q604.3813,27.9688 603.5844,28.2969 Q602.5063,28.75 601.2094,28.75 Q599.6938,28.75 598.4906,28.125 Q597.5063,27.625 596.8188,26.5547 Q596.1313,25.4844 596.1313,24.2031 L596.1313,23.0469 Q596.1313,21.7188 596.7484,20.5703 Q597.3656,19.4219 598.4594,18.8047 Q599.5531,18.1875 600.7875,18.1875 Q601.5219,18.1875 602.1703,18.3516 Q602.8188,18.5156 603.3656,18.875 Z " fill="#000000"/><text fill="#000000" font-family="sans-serif" font-size="12" lengthAdjust="spacing" textLength="100" x="615.4" y="27.9102">ControladorDeGui</text><line style="stroke:#A80036;stroke-width:1.5;" x1="583" x2="721" y1="39" y2="39"/><rect fill="none" height="6" style="stroke:#C82930;stroke-width:1.0;" width="6" x="590" y="47"/><text fill="#000000" font-family="sans-serif" font-size="11" lengthAdjust="spacing" textLength="49" x="602" y="54.4189">estadoGui</text><line style="stroke:#A80036;stroke-width:1.5;" x1="583" x2="721" y1="60.8359" y2="60.8359"/><ellipse cx="593" cy="71.8359" fill="#84BE84" rx="3" ry="3" style="stroke:#038048;stroke-width:1.0;"/><text fill="#000000" font-family="sans-serif" font-size="11" lengthAdjust="spacing" textLength="91" x="602" y="76.2549">entraTexto():String</text><ellipse cx="593" cy="85.6719" fill="#84BE84" rx="3" ry="3" style="stroke:#038048;stroke-width:1.0;"/><text fill="#000000" font-family="sans-serif" font-size="11" lengthAdjust="spacing" textLength="102" x="602" y="90.0908">entraArquivo():String</text><ellipse cx="593" cy="99.5078" fill="#84BE84" rx="3" ry="3" style="stroke:#038048;stroke-width:1.0;"/><text fill="#000000" font-family="sans-serif" font-size="11" lengthAdjust="spacing" textLength="114" x="602" y="103.9268">salvarMusica():Boolean</text><ellipse cx="593" cy="113.3438" fill="#84BE84" rx="3" ry="3" style="stroke:#038048;stroke-width:1.0;"/><text fill="#000000" font-family="sans-serif" font-size="11" lengthAdjust="spacing" textLength="30" x="602" y="117.7627">abrir()</text><ellipse cx="593" cy="127.1797" fill="#84BE84" rx="3" ry="3" style="stroke:#038048;stroke-width:1.0;"/><text fill="#000000" font-family="sans-serif" font-size="11" lengthAdjust="spacing" textLength="40" x="602" y="131.5986">fechar()</text><!--MD5=[7d76a4dd6f95527bc8376ae311f32e4a]
class LeitorDeArquivo--><rect codeLine="17" fill="#FEFECE" filter="url(#fl7tqb9p6qo9y)" height="61.8359" id="LeitorDeArquivo" style="stroke:#A80036;stroke-width:1.5;" width="139" x="582.5" y="212"/><ellipse cx="606.5" cy="228" fill="#ADD1B2" rx="11" ry="11" style="stroke:#A80036;stroke-width:1.0;"/><path d="M609.2656,223.875 Q609.4219,223.6563 609.6094,223.5469 Q609.7969,223.4375 610.0156,223.4375 Q610.3906,223.4375 610.625,223.6953 Q610.8594,223.9531 610.8594,224.5625 L610.8594,226.0156 Q610.8594,226.625 610.625,226.8906 Q610.3906,227.1563 610.0156,227.1563 Q609.6719,227.1563 609.4688,226.9531 Q609.2656,226.7656 609.1563,226.25 Q609.1094,225.8906 608.9219,225.7031 Q608.5938,225.3281 607.9844,225.1094 Q607.375,224.8906 606.75,224.8906 Q605.9844,224.8906 605.3516,225.2188 Q604.7188,225.5469 604.2266,226.2969 Q603.7344,227.0469 603.7344,228.0781 L603.7344,229.1719 Q603.7344,230.4063 604.625,231.2266 Q605.5156,232.0469 607.1094,232.0469 Q608.0469,232.0469 608.7031,231.7969 Q609.0938,231.6406 609.5156,231.2031 Q609.7813,230.9375 609.9297,230.8594 Q610.0781,230.7813 610.2813,230.7813 Q610.6094,230.7813 610.8672,231.0391 Q611.125,231.2969 611.125,231.6406 Q611.125,231.9844 610.7813,232.3906 Q610.2813,232.9688 609.4844,233.2969 Q608.4063,233.75 607.1094,233.75 Q605.5938,233.75 604.3906,233.125 Q603.4063,232.625 602.7188,231.5547 Q602.0313,230.4844 602.0313,229.2031 L602.0313,228.0469 Q602.0313,226.7188 602.6484,225.5703 Q603.2656,224.4219 604.3594,223.8047 Q605.4531,223.1875 606.6875,223.1875 Q607.4219,223.1875 608.0703,223.3516 Q608.7188,223.5156 609.2656,223.875 Z " fill="#000000"/><text fill="#000000" font-family="sans-serif" font-size="12" lengthAdjust="spacing" textLength="87" x="622.5" y="232.9102">LeitorDeArquivo</text><line style="stroke:#A80036;stroke-width:1.5;" x1="583.5" x2="720.5" y1="244" y2="244"/><line style="stroke:#A80036;stroke-width:1.5;" x1="583.5" x2="720.5" y1="252" y2="252"/><ellipse cx="593.5" cy="263" fill="#84BE84" rx="3" ry="3" style="stroke:#038048;stroke-width:1.0;"/><text fill="#000000" font-family="sans-serif" font-size="11" lengthAdjust="spacing" textLength="113" x="602.5" y="267.4189">leArquivo(String):String</text><!--MD5=[e0fddca87f21341e5dd21bbb64d2fab9]
class estadoGui--><rect codeLine="21" fill="#FEFECE" filter="url(#fl7tqb9p6qo9y)" height="75.6719" id="estadoGui" style="stroke:#A80036;stroke-width:1.5;" width="124" x="757" y="205"/><ellipse cx="787.75" cy="221" fill="#EB937F" rx="11" ry="11" style="stroke:#A80036;stroke-width:1.0;"/><path d="M786.6094,221.7969 L786.6094,224.2969 L790.9375,224.2969 L790.9375,223.375 Q790.9375,222.7656 791.1797,222.5 Q791.4219,222.2344 791.7969,222.2344 Q792.1719,222.2344 792.4063,222.5 Q792.6406,222.7656 792.6406,223.375 L792.6406,226 L784.6406,226 Q784.0156,226 783.7578,225.7656 Q783.5,225.5313 783.5,225.1406 Q783.5,224.7656 783.7656,224.5313 Q784.0313,224.2969 784.6406,224.2969 L784.9063,224.2969 L784.9063,217.6406 L784.6406,217.6406 Q784.0156,217.6406 783.7578,217.4063 Q783.5,217.1719 783.5,216.7813 Q783.5,216.4063 783.7578,216.1719 Q784.0156,215.9375 784.6406,215.9375 L792.2656,215.9375 L792.2656,218.5313 Q792.2656,219.1406 792.0391,219.3984 Q791.8125,219.6563 791.4219,219.6563 Q791.0469,219.6563 790.8125,219.3984 Q790.5781,219.1406 790.5781,218.5313 L790.5781,217.6406 L786.6094,217.6406 L786.6094,220.0938 L788.0938,220.0938 Q788.0938,219.4375 788.2188,219.25 Q788.4844,218.8438 788.9531,218.8438 Q789.3281,218.8438 789.5625,219.1016 Q789.7969,219.3594 789.7969,219.9688 L789.7969,221.9375 Q789.7969,222.4844 789.6719,222.6719 Q789.4063,223.0625 788.9531,223.0625 Q788.4844,223.0625 788.2188,222.6563 Q788.0938,222.4688 788.0938,221.7969 L786.6094,221.7969 Z " fill="#000000"/><text fill="#000000" font-family="sans-serif" font-size="12" lengthAdjust="spacing" textLength="57" x="805.25" y="225.9102">estadoGui</text><line style="stroke:#A80036;stroke-width:1.5;" x1="758" x2="880" y1="237" y2="237"/><ellipse cx="768" cy="248" rx="3" ry="3" style="stroke:#038048;stroke-width:1.0;fill:none;"/><text fill="#000000" font-family="sans-serif" font-size="11" lengthAdjust="spacing" textLength="40" x="777" y="252.4189">Standby</text><ellipse cx="768" cy="261.8359" rx="3" ry="3" style="stroke:#038048;stroke-width:1.0;fill:none;"/><text fill="#000000" font-family="sans-serif" font-size="11" lengthAdjust="spacing" textLength="98" x="777" y="266.2549">ProcessandoMusica</text><line style="stroke:#A80036;stroke-width:1.5;" x1="758" x2="880" y1="272.6719" y2="272.6719"/><!--MD5=[ad23146357bdd208a2f074f6030d17e8]
class DecodificadorTexto--><rect codeLine="26" fill="#FEFECE" filter="url(#fl7tqb9p6qo9y)" height="61.8359" id="DecodificadorTexto" style="stroke:#A80036;stroke-width:1.5;" width="157" x="286.5" y="348"/><ellipse cx="310.5" cy="364" fill="#ADD1B2" rx="11" ry="11" style="stroke:#A80036;stroke-width:1.0;"/><path d="M313.2656,359.875 Q313.4219,359.6563 313.6094,359.5469 Q313.7969,359.4375 314.0156,359.4375 Q314.3906,359.4375 314.625,359.6953 Q314.8594,359.9531 314.8594,360.5625 L314.8594,362.0156 Q314.8594,362.625 314.625,362.8906 Q314.3906,363.1563 314.0156,363.1563 Q313.6719,363.1563 313.4688,362.9531 Q313.2656,362.7656 313.1563,362.25 Q313.1094,361.8906 312.9219,361.7031 Q312.5938,361.3281 311.9844,361.1094 Q311.375,360.8906 310.75,360.8906 Q309.9844,360.8906 309.3516,361.2188 Q308.7188,361.5469 308.2266,362.2969 Q307.7344,363.0469 307.7344,364.0781 L307.7344,365.1719 Q307.7344,366.4063 308.625,367.2266 Q309.5156,368.0469 311.1094,368.0469 Q312.0469,368.0469 312.7031,367.7969 Q313.0938,367.6406 313.5156,367.2031 Q313.7813,366.9375 313.9297,366.8594 Q314.0781,366.7813 314.2813,366.7813 Q314.6094,366.7813 314.8672,367.0391 Q315.125,367.2969 315.125,367.6406 Q315.125,367.9844 314.7813,368.3906 Q314.2813,368.9688 313.4844,369.2969 Q312.4063,369.75 311.1094,369.75 Q309.5938,369.75 308.3906,369.125 Q307.4063,368.625 306.7188,367.5547 Q306.0313,366.4844 306.0313,365.2031 L306.0313,364.0469 Q306.0313,362.7188 306.6484,361.5703 Q307.2656,360.4219 308.3594,359.8047 Q309.4531,359.1875 310.6875,359.1875 Q311.4219,359.1875 312.0703,359.3516 Q312.7188,359.5156 313.2656,359.875 Z " fill="#000000"/><text fill="#000000" font-family="sans-serif" font-size="12" lengthAdjust="spacing" textLength="105" x="326.5" y="368.9102">DecodificadorTexto</text><line style="stroke:#A80036;stroke-width:1.5;" x1="287.5" x2="442.5" y1="380" y2="380"/><line style="stroke:#A80036;stroke-width:1.5;" x1="287.5" x2="442.5" y1="388" y2="388"/><ellipse cx="297.5" cy="399" fill="#84BE84" rx="3" ry="3" style="stroke:#038048;stroke-width:1.0;"/><text fill="#000000" font-family="sans-serif" font-size="11" lengthAdjust="spacing" textLength="131" x="306.5" y="403.4189">traduzTexto(String):Musica</text><!--MD5=[1779cf4dea73243dda24388918ce614c]
class TradutorTextoComando--><rect codeLine="30" fill="#FEFECE" filter="url(#fl7tqb9p6qo9y)" height="61.8359" id="TradutorTextoComando" style="stroke:#A80036;stroke-width:1.5;" width="163" x="105.5" y="504.5"/><ellipse cx="120.5" cy="520.5" fill="#B4A7E5" rx="11" ry="11" style="stroke:#A80036;stroke-width:1.0;"/><path d="M121.4531,517.1406 L121.4531,523.7969 L123.1719,523.7969 Q123.7813,523.7969 124.0469,524.0313 Q124.3125,524.2656 124.3125,524.6563 Q124.3125,525.0313 124.0469,525.2656 Q123.7813,525.5 123.1719,525.5 L118.0313,525.5 Q117.4219,525.5 117.1563,525.2656 Q116.8906,525.0313 116.8906,524.6406 Q116.8906,524.2656 117.1563,524.0313 Q117.4219,523.7969 118.0313,523.7969 L119.75,523.7969 L119.75,517.1406 L118.0313,517.1406 Q117.4219,517.1406 117.1563,516.9063 Q116.8906,516.6719 116.8906,516.2813 Q116.8906,515.9063 117.1563,515.6719 Q117.4219,515.4375 118.0313,515.4375 L123.1719,515.4375 Q123.7813,515.4375 124.0469,515.6719 Q124.3125,515.9063 124.3125,516.2813 Q124.3125,516.6719 124.0469,516.9063 Q123.7813,517.1406 123.1719,517.1406 L121.4531,517.1406 Z " fill="#000000"/><text fill="#000000" font-family="sans-serif" font-size="12" font-style="italic" lengthAdjust="spacing" textLength="131" x="134.5" y="525.4102">TradutorTextoComando</text><line style="stroke:#A80036;stroke-width:1.5;" x1="106.5" x2="267.5" y1="536.5" y2="536.5"/><line style="stroke:#A80036;stroke-width:1.5;" x1="106.5" x2="267.5" y1="544.5" y2="544.5"/><ellipse cx="116.5" cy="555.5" fill="#84BE84" rx="3" ry="3" style="stroke:#038048;stroke-width:1.0;"/><text fill="#000000" font-family="sans-serif" font-size="11" lengthAdjust="spacing" textLength="114" x="125.5" y="559.9189">traduz(String):comando</text><!--MD5=[26e688f3331c1a80bfb7f45feb153195]
class TradutorTextoParaComando--><rect codeLine="34" fill="#FEFECE" filter="url(#fl7tqb9p6qo9y)" height="48" id="TradutorTextoParaComando" style="stroke:#A80036;stroke-width:1.5;" width="188" x="7" y="716.5"/><ellipse cx="22" cy="732.5" fill="#ADD1B2" rx="11" ry="11" style="stroke:#A80036;stroke-width:1.0;"/><path d="M24.7656,728.375 Q24.9219,728.1563 25.1094,728.0469 Q25.2969,727.9375 25.5156,727.9375 Q25.8906,727.9375 26.125,728.1953 Q26.3594,728.4531 26.3594,729.0625 L26.3594,730.5156 Q26.3594,731.125 26.125,731.3906 Q25.8906,731.6563 25.5156,731.6563 Q25.1719,731.6563 24.9688,731.4531 Q24.7656,731.2656 24.6563,730.75 Q24.6094,730.3906 24.4219,730.2031 Q24.0938,729.8281 23.4844,729.6094 Q22.875,729.3906 22.25,729.3906 Q21.4844,729.3906 20.8516,729.7188 Q20.2188,730.0469 19.7266,730.7969 Q19.2344,731.5469 19.2344,732.5781 L19.2344,733.6719 Q19.2344,734.9063 20.125,735.7266 Q21.0156,736.5469 22.6094,736.5469 Q23.5469,736.5469 24.2031,736.2969 Q24.5938,736.1406 25.0156,735.7031 Q25.2813,735.4375 25.4297,735.3594 Q25.5781,735.2813 25.7813,735.2813 Q26.1094,735.2813 26.3672,735.5391 Q26.625,735.7969 26.625,736.1406 Q26.625,736.4844 26.2813,736.8906 Q25.7813,737.4688 24.9844,737.7969 Q23.9063,738.25 22.6094,738.25 Q21.0938,738.25 19.8906,737.625 Q18.9063,737.125 18.2188,736.0547 Q17.5313,734.9844 17.5313,733.7031 L17.5313,732.5469 Q17.5313,731.2188 18.1484,730.0703 Q18.7656,728.9219 19.8594,728.3047 Q20.9531,727.6875 22.1875,727.6875 Q22.9219,727.6875 23.5703,727.8516 Q24.2188,728.0156 24.7656,728.375 Z " fill="#000000"/><text fill="#000000" font-family="sans-serif" font-size="12" lengthAdjust="spacing" textLength="156" x="36" y="737.4102">TradutorTextoParaComando</text><line style="stroke:#A80036;stroke-width:1.5;" x1="8" x2="194" y1="748.5" y2="748.5"/><line style="stroke:#A80036;stroke-width:1.5;" x1="8" x2="194" y1="756.5" y2="756.5"/><!--MD5=[815aba036e14179ebf1afa7ee6e3a016]
class ControladorMusical--><rect codeLine="36" fill="#FEFECE" filter="url(#fl7tqb9p6qo9y)" height="61.8359" id="ControladorMusical" style="stroke:#A80036;stroke-width:1.5;" width="183" x="478.5" y="348"/><ellipse cx="513.3" cy="364" fill="#ADD1B2" rx="11" ry="11" style="stroke:#A80036;stroke-width:1.0;"/><path d="M516.0656,359.875 Q516.2219,359.6563 516.4094,359.5469 Q516.5969,359.4375 516.8156,359.4375 Q517.1906,359.4375 517.425,359.6953 Q517.6594,359.9531 517.6594,360.5625 L517.6594,362.0156 Q517.6594,362.625 517.425,362.8906 Q517.1906,363.1563 516.8156,363.1563 Q516.4719,363.1563 516.2688,362.9531 Q516.0656,362.7656 515.9563,362.25 Q515.9094,361.8906 515.7219,361.7031 Q515.3938,361.3281 514.7844,361.1094 Q514.175,360.8906 513.55,360.8906 Q512.7844,360.8906 512.1516,361.2188 Q511.5187,361.5469 511.0266,362.2969 Q510.5344,363.0469 510.5344,364.0781 L510.5344,365.1719 Q510.5344,366.4063 511.425,367.2266 Q512.3156,368.0469 513.9094,368.0469 Q514.8469,368.0469 515.5031,367.7969 Q515.8938,367.6406 516.3156,367.2031 Q516.5813,366.9375 516.7297,366.8594 Q516.8781,366.7813 517.0813,366.7813 Q517.4094,366.7813 517.6672,367.0391 Q517.925,367.2969 517.925,367.6406 Q517.925,367.9844 517.5813,368.3906 Q517.0813,368.9688 516.2844,369.2969 Q515.2063,369.75 513.9094,369.75 Q512.3938,369.75 511.1906,369.125 Q510.2062,368.625 509.5187,367.5547 Q508.8312,366.4844 508.8312,365.2031 L508.8312,364.0469 Q508.8312,362.7188 509.4484,361.5703 Q510.0656,360.4219 511.1594,359.8047 Q512.2531,359.1875 513.4875,359.1875 Q514.2219,359.1875 514.8703,359.3516 Q515.5188,359.5156 516.0656,359.875 Z " fill="#000000"/><text fill="#000000" font-family="sans-serif" font-size="12" lengthAdjust="spacing" textLength="107" x="531.7" y="368.9102">ControladorMusical</text><line style="stroke:#A80036;stroke-width:1.5;" x1="479.5" x2="660.5" y1="380" y2="380"/><line style="stroke:#A80036;stroke-width:1.5;" x1="479.5" x2="660.5" y1="388" y2="388"/><ellipse cx="489.5" cy="399" fill="#84BE84" rx="3" ry="3" style="stroke:#038048;stroke-width:1.0;"/><text fill="#000000" font-family="sans-serif" font-size="11" lengthAdjust="spacing" textLength="157" x="498.5" y="403.4189">executaMusica(Musica,Boolean)</text><!--MD5=[3947fcfebebf3a380209f6200e77d224]
class AdaptadorMusical--><rect codeLine="40" fill="#FEFECE" filter="url(#fl7tqb9p6qo9y)" height="131.0156" id="AdaptadorMusical" style="stroke:#A80036;stroke-width:1.5;" width="130" x="496" y="470"/><ellipse cx="511" cy="486" fill="#B4A7E5" rx="11" ry="11" style="stroke:#A80036;stroke-width:1.0;"/><path d="M511.9531,482.6406 L511.9531,489.2969 L513.6719,489.2969 Q514.2813,489.2969 514.5469,489.5313 Q514.8125,489.7656 514.8125,490.1563 Q514.8125,490.5313 514.5469,490.7656 Q514.2813,491 513.6719,491 L508.5313,491 Q507.9219,491 507.6563,490.7656 Q507.3906,490.5313 507.3906,490.1406 Q507.3906,489.7656 507.6563,489.5313 Q507.9219,489.2969 508.5313,489.2969 L510.25,489.2969 L510.25,482.6406 L508.5313,482.6406 Q507.9219,482.6406 507.6563,482.4063 Q507.3906,482.1719 507.3906,481.7813 Q507.3906,481.4063 507.6563,481.1719 Q507.9219,480.9375 508.5313,480.9375 L513.6719,480.9375 Q514.2813,480.9375 514.5469,481.1719 Q514.8125,481.4063 514.8125,481.7813 Q514.8125,482.1719 514.5469,482.4063 Q514.2813,482.6406 513.6719,482.6406 L511.9531,482.6406 Z " fill="#000000"/><text fill="#000000" font-family="sans-serif" font-size="12" font-style="italic" lengthAdjust="spacing" textLength="98" x="525" y="490.9102">AdaptadorMusical</text><line style="stroke:#A80036;stroke-width:1.5;" x1="497" x2="625" y1="502" y2="502"/><line style="stroke:#A80036;stroke-width:1.5;" x1="497" x2="625" y1="510" y2="510"/><ellipse cx="507" cy="521" fill="#84BE84" rx="3" ry="3" style="stroke:#038048;stroke-width:1.0;"/><text fill="#000000" font-family="sans-serif" font-size="11" lengthAdjust="spacing" textLength="100" x="516" y="525.4189">tocarNota(Comando)</text><ellipse cx="507" cy="534.8359" fill="#84BE84" rx="3" ry="3" style="stroke:#038048;stroke-width:1.0;"/><text fill="#000000" font-family="sans-serif" font-size="11" lengthAdjust="spacing" textLength="84" x="516" y="539.2549">aumentarOitava()</text><ellipse cx="507" cy="548.6719" fill="#84BE84" rx="3" ry="3" style="stroke:#038048;stroke-width:1.0;"/><text fill="#000000" font-family="sans-serif" font-size="11" lengthAdjust="spacing" textLength="73" x="516" y="553.0908">reduzirOitava()</text><ellipse cx="507" cy="562.5078" fill="#84BE84" rx="3" ry="3" style="stroke:#038048;stroke-width:1.0;"/><text fill="#000000" font-family="sans-serif" font-size="11" lengthAdjust="spacing" textLength="89" x="516" y="566.9268">aumentarVolume()</text><ellipse cx="507" cy="576.3438" fill="#84BE84" rx="3" ry="3" style="stroke:#038048;stroke-width:1.0;"/><text fill="#000000" font-family="sans-serif" font-size="11" lengthAdjust="spacing" textLength="78" x="516" y="580.7627">reduzirVolume()</text><ellipse cx="507" cy="590.1797" fill="#84BE84" rx="3" ry="3" style="stroke:#038048;stroke-width:1.0;"/><text fill="#000000" font-family="sans-serif" font-size="11" lengthAdjust="spacing" textLength="68" x="516" y="594.5986">salvaMusica()</text><!--MD5=[20a2f73b19b4899378588d8d90d683d2]
class AdaptadorJFugue--><rect codeLine="49" fill="#FEFECE" filter="url(#fl7tqb9p6qo9y)" height="103.3438" id="AdaptadorJFugue" style="stroke:#A80036;stroke-width:1.5;" width="129" x="496.5" y="689"/><ellipse cx="511.5" cy="705" fill="#ADD1B2" rx="11" ry="11" style="stroke:#A80036;stroke-width:1.0;"/><path d="M514.2656,700.875 Q514.4219,700.6563 514.6094,700.5469 Q514.7969,700.4375 515.0156,700.4375 Q515.3906,700.4375 515.625,700.6953 Q515.8594,700.9531 515.8594,701.5625 L515.8594,703.0156 Q515.8594,703.625 515.625,703.8906 Q515.3906,704.1563 515.0156,704.1563 Q514.6719,704.1563 514.4688,703.9531 Q514.2656,703.7656 514.1563,703.25 Q514.1094,702.8906 513.9219,702.7031 Q513.5938,702.3281 512.9844,702.1094 Q512.375,701.8906 511.75,701.8906 Q510.9844,701.8906 510.3516,702.2188 Q509.7188,702.5469 509.2266,703.2969 Q508.7344,704.0469 508.7344,705.0781 L508.7344,706.1719 Q508.7344,707.4063 509.625,708.2266 Q510.5156,709.0469 512.1094,709.0469 Q513.0469,709.0469 513.7031,708.7969 Q514.0938,708.6406 514.5156,708.2031 Q514.7813,707.9375 514.9297,707.8594 Q515.0781,707.7813 515.2813,707.7813 Q515.6094,707.7813 515.8672,708.0391 Q516.125,708.2969 516.125,708.6406 Q516.125,708.9844 515.7813,709.3906 Q515.2813,709.9688 514.4844,710.2969 Q513.4063,710.75 512.1094,710.75 Q510.5938,710.75 509.3906,710.125 Q508.4063,709.625 507.7188,708.5547 Q507.0313,707.4844 507.0313,706.2031 L507.0313,705.0469 Q507.0313,703.7188 507.6484,702.5703 Q508.2656,701.4219 509.3594,700.8047 Q510.4531,700.1875 511.6875,700.1875 Q512.4219,700.1875 513.0703,700.3516 Q513.7188,700.5156 514.2656,700.875 Z " fill="#000000"/><text fill="#000000" font-family="sans-serif" font-size="12" lengthAdjust="spacing" textLength="97" x="525.5" y="709.9102">AdaptadorJFugue</text><line style="stroke:#A80036;stroke-width:1.5;" x1="497.5" x2="624.5" y1="721" y2="721"/><rect fill="none" height="6" style="stroke:#C82930;stroke-width:1.0;" width="6" x="504.5" y="729"/><text fill="#000000" font-family="sans-serif" font-size="11" lengthAdjust="spacing" textLength="21" x="516.5" y="736.4189">BPM</text><rect fill="none" height="6" style="stroke:#C82930;stroke-width:1.0;" width="6" x="504.5" y="742.8359"/><text fill="#000000" font-family="sans-serif" font-size="11" lengthAdjust="spacing" textLength="31" x="516.5" y="750.2549">Oitava</text><rect fill="none" height="6" style="stroke:#C82930;stroke-width:1.0;" width="6" x="504.5" y="756.6719"/><text fill="#000000" font-family="sans-serif" font-size="11" lengthAdjust="spacing" textLength="36" x="516.5" y="764.0908">Volume</text><rect fill="none" height="6" style="stroke:#C82930;stroke-width:1.0;" width="6" x="504.5" y="770.5078"/><text fill="#000000" font-family="sans-serif" font-size="11" lengthAdjust="spacing" textLength="56" x="516.5" y="777.9268">Instrumento</text><line style="stroke:#A80036;stroke-width:1.5;" x1="497.5" x2="624.5" y1="784.3438" y2="784.3438"/><!--MD5=[d63fe63646089ff52087578b35a1ed5a]
class JFugueDownloader--><rect codeLine="56" fill="#FEFECE" filter="url(#fl7tqb9p6qo9y)" height="61.8359" id="JFugueDownloader" style="stroke:#A80036;stroke-width:1.5;" width="140" x="279" y="894"/><ellipse cx="294" cy="910" fill="#ADD1B2" rx="11" ry="11" style="stroke:#A80036;stroke-width:1.0;"/><path d="M296.7656,905.875 Q296.9219,905.6563 297.1094,905.5469 Q297.2969,905.4375 297.5156,905.4375 Q297.8906,905.4375 298.125,905.6953 Q298.3594,905.9531 298.3594,906.5625 L298.3594,908.0156 Q298.3594,908.625 298.125,908.8906 Q297.8906,909.1563 297.5156,909.1563 Q297.1719,909.1563 296.9688,908.9531 Q296.7656,908.7656 296.6563,908.25 Q296.6094,907.8906 296.4219,907.7031 Q296.0938,907.3281 295.4844,907.1094 Q294.875,906.8906 294.25,906.8906 Q293.4844,906.8906 292.8516,907.2188 Q292.2188,907.5469 291.7266,908.2969 Q291.2344,909.0469 291.2344,910.0781 L291.2344,911.1719 Q291.2344,912.4063 292.125,913.2266 Q293.0156,914.0469 294.6094,914.0469 Q295.5469,914.0469 296.2031,913.7969 Q296.5938,913.6406 297.0156,913.2031 Q297.2813,912.9375 297.4297,912.8594 Q297.5781,912.7813 297.7813,912.7813 Q298.1094,912.7813 298.3672,913.0391 Q298.625,913.2969 298.625,913.6406 Q298.625,913.9844 298.2813,914.3906 Q297.7813,914.9688 296.9844,915.2969 Q295.9063,915.75 294.6094,915.75 Q293.0938,915.75 291.8906,915.125 Q290.9063,914.625 290.2188,913.5547 Q289.5313,912.4844 289.5313,911.2031 L289.5313,910.0469 Q289.5313,908.7188 290.1484,907.5703 Q290.7656,906.4219 291.8594,905.8047 Q292.9531,905.1875 294.1875,905.1875 Q294.9219,905.1875 295.5703,905.3516 Q296.2188,905.5156 296.7656,905.875 Z " fill="#000000"/><text fill="#000000" font-family="sans-serif" font-size="12" lengthAdjust="spacing" textLength="108" x="308" y="914.9102">JFugueDownloader</text><line style="stroke:#A80036;stroke-width:1.5;" x1="280" x2="418" y1="926" y2="926"/><line style="stroke:#A80036;stroke-width:1.5;" x1="280" x2="418" y1="934" y2="934"/><ellipse cx="290" cy="945" fill="#84BE84" rx="3" ry="3" style="stroke:#038048;stroke-width:1.0;"/><text fill="#000000" font-family="sans-serif" font-size="11" lengthAdjust="spacing" textLength="72" x="299" y="949.4189">salvarMusica()</text><!--MD5=[f549f87ec26c612c42cbcdc1340cf410]
class TradutorAdaptador--><rect codeLine="60" fill="#FEFECE" filter="url(#fl7tqb9p6qo9y)" height="61.8359" id="TradutorAdaptador" style="stroke:#A80036;stroke-width:1.5;" width="214" x="454" y="894"/><ellipse cx="505.25" cy="910" fill="#B4A7E5" rx="11" ry="11" style="stroke:#A80036;stroke-width:1.0;"/><path d="M506.2031,906.6406 L506.2031,913.2969 L507.9219,913.2969 Q508.5313,913.2969 508.7969,913.5313 Q509.0625,913.7656 509.0625,914.1563 Q509.0625,914.5313 508.7969,914.7656 Q508.5313,915 507.9219,915 L502.7813,915 Q502.1719,915 501.9063,914.7656 Q501.6406,914.5313 501.6406,914.1406 Q501.6406,913.7656 501.9063,913.5313 Q502.1719,913.2969 502.7813,913.2969 L504.5,913.2969 L504.5,906.6406 L502.7813,906.6406 Q502.1719,906.6406 501.9063,906.4063 Q501.6406,906.1719 501.6406,905.7813 Q501.6406,905.4063 501.9063,905.1719 Q502.1719,904.9375 502.7813,904.9375 L507.9219,904.9375 Q508.5313,904.9375 508.7969,905.1719 Q509.0625,905.4063 509.0625,905.7813 Q509.0625,906.1719 508.7969,906.4063 Q508.5313,906.6406 507.9219,906.6406 L506.2031,906.6406 Z " fill="#000000"/><text fill="#000000" font-family="sans-serif" font-size="12" font-style="italic" lengthAdjust="spacing" textLength="103" x="525.75" y="914.9102">TradutorAdaptador</text><line style="stroke:#A80036;stroke-width:1.5;" x1="455" x2="667" y1="926" y2="926"/><line style="stroke:#A80036;stroke-width:1.5;" x1="455" x2="667" y1="934" y2="934"/><ellipse cx="465" cy="945" fill="#84BE84" rx="3" ry="3" style="stroke:#038048;stroke-width:1.0;"/><text fill="#000000" font-family="sans-serif" font-size="11" lengthAdjust="spacing" textLength="188" x="474" y="949.4189">traduzParaAdaptador(Comando):String</text><!--MD5=[03372b0263af18838c083ca65e435dfd]
class TradutorJFugue--><rect codeLine="64" fill="#FEFECE" filter="url(#fl7tqb9p6qo9y)" height="48" id="TradutorJFugue" style="stroke:#A80036;stroke-width:1.5;" width="119" x="501.5" y="1030"/><ellipse cx="516.5" cy="1046" fill="#ADD1B2" rx="11" ry="11" style="stroke:#A80036;stroke-width:1.0;"/><path d="M519.2656,1041.875 Q519.4219,1041.6563 519.6094,1041.5469 Q519.7969,1041.4375 520.0156,1041.4375 Q520.3906,1041.4375 520.625,1041.6953 Q520.8594,1041.9531 520.8594,1042.5625 L520.8594,1044.0156 Q520.8594,1044.625 520.625,1044.8906 Q520.3906,1045.1563 520.0156,1045.1563 Q519.6719,1045.1563 519.4688,1044.9531 Q519.2656,1044.7656 519.1563,1044.25 Q519.1094,1043.8906 518.9219,1043.7031 Q518.5938,1043.3281 517.9844,1043.1094 Q517.375,1042.8906 516.75,1042.8906 Q515.9844,1042.8906 515.3516,1043.2188 Q514.7188,1043.5469 514.2266,1044.2969 Q513.7344,1045.0469 513.7344,1046.0781 L513.7344,1047.1719 Q513.7344,1048.4063 514.625,1049.2266 Q515.5156,1050.0469 517.1094,1050.0469 Q518.0469,1050.0469 518.7031,1049.7969 Q519.0938,1049.6406 519.5156,1049.2031 Q519.7813,1048.9375 519.9297,1048.8594 Q520.0781,1048.7813 520.2813,1048.7813 Q520.6094,1048.7813 520.8672,1049.0391 Q521.125,1049.2969 521.125,1049.6406 Q521.125,1049.9844 520.7813,1050.3906 Q520.2813,1050.9688 519.4844,1051.2969 Q518.4063,1051.75 517.1094,1051.75 Q515.5938,1051.75 514.3906,1051.125 Q513.4063,1050.625 512.7188,1049.5547 Q512.0313,1048.4844 512.0313,1047.2031 L512.0313,1046.0469 Q512.0313,1044.7188 512.6484,1043.5703 Q513.2656,1042.4219 514.3594,1041.8047 Q515.4531,1041.1875 516.6875,1041.1875 Q517.4219,1041.1875 518.0703,1041.3516 Q518.7188,1041.5156 519.2656,1041.875 Z " fill="#000000"/><text fill="#000000" font-family="sans-serif" font-size="12" lengthAdjust="spacing" textLength="87" x="530.5" y="1050.9102">TradutorJFugue</text><line style="stroke:#A80036;stroke-width:1.5;" x1="502.5" x2="619.5" y1="1062" y2="1062"/><line style="stroke:#A80036;stroke-width:1.5;" x1="502.5" x2="619.5" y1="1070" y2="1070"/><!--MD5=[60f538da2e3d3c2e5a13d43455efb760]
class Instrumento--><rect codeLine="68" fill="#FEFECE" filter="url(#fl7tqb9p6qo9y)" height="89.5078" id="Instrumento" style="stroke:#A80036;stroke-width:1.5;" width="98" x="703" y="880"/><ellipse cx="718" cy="896" fill="#EB937F" rx="11" ry="11" style="stroke:#A80036;stroke-width:1.0;"/><path d="M716.8594,896.7969 L716.8594,899.2969 L721.1875,899.2969 L721.1875,898.375 Q721.1875,897.7656 721.4297,897.5 Q721.6719,897.2344 722.0469,897.2344 Q722.4219,897.2344 722.6563,897.5 Q722.8906,897.7656 722.8906,898.375 L722.8906,901 L714.8906,901 Q714.2656,901 714.0078,900.7656 Q713.75,900.5313 713.75,900.1406 Q713.75,899.7656 714.0156,899.5313 Q714.2813,899.2969 714.8906,899.2969 L715.1563,899.2969 L715.1563,892.6406 L714.8906,892.6406 Q714.2656,892.6406 714.0078,892.4063 Q713.75,892.1719 713.75,891.7813 Q713.75,891.4063 714.0078,891.1719 Q714.2656,890.9375 714.8906,890.9375 L722.5156,890.9375 L722.5156,893.5313 Q722.5156,894.1406 722.2891,894.3984 Q722.0625,894.6563 721.6719,894.6563 Q721.2969,894.6563 721.0625,894.3984 Q720.8281,894.1406 720.8281,893.5313 L720.8281,892.6406 L716.8594,892.6406 L716.8594,895.0938 L718.3438,895.0938 Q718.3438,894.4375 718.4688,894.25 Q718.7344,893.8438 719.2031,893.8438 Q719.5781,893.8438 719.8125,894.1016 Q720.0469,894.3594 720.0469,894.9688 L720.0469,896.9375 Q720.0469,897.4844 719.9219,897.6719 Q719.6563,898.0625 719.2031,898.0625 Q718.7344,898.0625 718.4688,897.6563 Q718.3438,897.4688 718.3438,896.7969 L716.8594,896.7969 Z " fill="#000000"/><text fill="#000000" font-family="sans-serif" font-size="12" lengthAdjust="spacing" textLength="66" x="732" y="900.9102">Instrumento</text><line style="stroke:#A80036;stroke-width:1.5;" x1="704" x2="800" y1="912" y2="912"/><rect fill="none" height="6" style="stroke:#C82930;stroke-width:1.0;" width="6" x="711" y="920"/><text fill="#000000" font-family="sans-serif" font-size="11" lengthAdjust="spacing" textLength="33" x="723" y="927.4189">bateria</text><rect fill="none" height="6" style="stroke:#C82930;stroke-width:1.0;" width="6" x="711" y="933.8359"/><text fill="#000000" font-family="sans-serif" font-size="11" lengthAdjust="spacing" textLength="26" x="723" y="941.2549">piano</text><rect fill="none" height="6" style="stroke:#C82930;stroke-width:1.0;" width="6" x="711" y="947.6719"/><text fill="#000000" font-family="sans-serif" font-size="11" lengthAdjust="spacing" textLength="43" x="723" y="955.0908">guiatarra</text><line style="stroke:#A80036;stroke-width:1.5;" x1="704" x2="800" y1="961.5078" y2="961.5078"/><!--MD5=[51f0781105b9cf5fcba3c6a2af676f78]
class Comando--><rect codeLine="74" fill="#FEFECE" filter="url(#fl7tqb9p6qo9y)" height="158.6875" id="Comando" style="stroke:#A80036;stroke-width:1.5;" width="87" x="230.5" y="661"/><ellipse cx="245.5" cy="677" fill="#EB937F" rx="11" ry="11" style="stroke:#A80036;stroke-width:1.0;"/><path d="M244.3594,677.7969 L244.3594,680.2969 L248.6875,680.2969 L248.6875,679.375 Q248.6875,678.7656 248.9297,678.5 Q249.1719,678.2344 249.5469,678.2344 Q249.9219,678.2344 250.1563,678.5 Q250.3906,678.7656 250.3906,679.375 L250.3906,682 L242.3906,682 Q241.7656,682 241.5078,681.7656 Q241.25,681.5313 241.25,681.1406 Q241.25,680.7656 241.5156,680.5313 Q241.7813,680.2969 242.3906,680.2969 L242.6563,680.2969 L242.6563,673.6406 L242.3906,673.6406 Q241.7656,673.6406 241.5078,673.4063 Q241.25,673.1719 241.25,672.7813 Q241.25,672.4063 241.5078,672.1719 Q241.7656,671.9375 242.3906,671.9375 L250.0156,671.9375 L250.0156,674.5313 Q250.0156,675.1406 249.7891,675.3984 Q249.5625,675.6563 249.1719,675.6563 Q248.7969,675.6563 248.5625,675.3984 Q248.3281,675.1406 248.3281,674.5313 L248.3281,673.6406 L244.3594,673.6406 L244.3594,676.0938 L245.8438,676.0938 Q245.8438,675.4375 245.9688,675.25 Q246.2344,674.8438 246.7031,674.8438 Q247.0781,674.8438 247.3125,675.1016 Q247.5469,675.3594 247.5469,675.9688 L247.5469,677.9375 Q247.5469,678.4844 247.4219,678.6719 Q247.1563,679.0625 246.7031,679.0625 Q246.2344,679.0625 245.9688,678.6563 Q245.8438,678.4688 245.8438,677.7969 L244.3594,677.7969 Z " fill="#000000"/><text fill="#000000" font-family="sans-serif" font-size="12" lengthAdjust="spacing" textLength="55" x="259.5" y="681.9102">Comando</text><line style="stroke:#A80036;stroke-width:1.5;" x1="231.5" x2="316.5" y1="693" y2="693"/><ellipse cx="241.5" cy="704" rx="3" ry="3" style="stroke:#038048;stroke-width:1.0;fill:none;"/><text fill="#000000" font-family="sans-serif" font-size="11" lengthAdjust="spacing" textLength="12" x="250.5" y="708.4189">do</text><ellipse cx="241.5" cy="717.8359" rx="3" ry="3" style="stroke:#038048;stroke-width:1.0;fill:none;"/><text fill="#000000" font-family="sans-serif" font-size="11" lengthAdjust="spacing" textLength="10" x="250.5" y="722.2549">re</text><ellipse cx="241.5" cy="731.6719" rx="3" ry="3" style="stroke:#038048;stroke-width:1.0;fill:none;"/><text fill="#000000" font-family="sans-serif" font-size="11" lengthAdjust="spacing" textLength="10" x="250.5" y="736.0908">mi</text><ellipse cx="241.5" cy="745.5078" rx="3" ry="3" style="stroke:#038048;stroke-width:1.0;fill:none;"/><text fill="#000000" font-family="sans-serif" font-size="11" lengthAdjust="spacing" textLength="10" x="250.5" y="749.9268">fa</text><ellipse cx="241.5" cy="759.3438" rx="3" ry="3" style="stroke:#038048;stroke-width:1.0;fill:none;"/><text fill="#000000" font-family="sans-serif" font-size="11" lengthAdjust="spacing" textLength="14" x="250.5" y="763.7627">sol</text><ellipse cx="241.5" cy="773.1797" rx="3" ry="3" style="stroke:#038048;stroke-width:1.0;fill:none;"/><text fill="#000000" font-family="sans-serif" font-size="11" lengthAdjust="spacing" textLength="8" x="250.5" y="777.5986">la</text><ellipse cx="241.5" cy="787.0156" rx="3" ry="3" style="stroke:#038048;stroke-width:1.0;fill:none;"/><text fill="#000000" font-family="sans-serif" font-size="11" lengthAdjust="spacing" textLength="8" x="250.5" y="791.4346">si</text><text fill="#000000" font-family="sans-serif" font-size="11" lengthAdjust="spacing" textLength="9" x="250.5" y="805.2705">...</text><line style="stroke:#A80036;stroke-width:1.5;" x1="231.5" x2="316.5" y1="811.6875" y2="811.6875"/><!--MD5=[2927a630b13e88512b2d3b16c23c7e23]
class Musica--><rect codeLine="85" fill="#FEFECE" filter="url(#fl7tqb9p6qo9y)" height="61.8359" id="Musica" style="stroke:#A80036;stroke-width:1.5;" width="140" x="304" y="504.5"/><ellipse cx="350.25" cy="520.5" fill="#ADD1B2" rx="11" ry="11" style="stroke:#A80036;stroke-width:1.0;"/><path d="M353.0156,516.375 Q353.1719,516.1563 353.3594,516.0469 Q353.5469,515.9375 353.7656,515.9375 Q354.1406,515.9375 354.375,516.1953 Q354.6094,516.4531 354.6094,517.0625 L354.6094,518.5156 Q354.6094,519.125 354.375,519.3906 Q354.1406,519.6563 353.7656,519.6563 Q353.4219,519.6563 353.2188,519.4531 Q353.0156,519.2656 352.9063,518.75 Q352.8594,518.3906 352.6719,518.2031 Q352.3438,517.8281 351.7344,517.6094 Q351.125,517.3906 350.5,517.3906 Q349.7344,517.3906 349.1016,517.7188 Q348.4688,518.0469 347.9766,518.7969 Q347.4844,519.5469 347.4844,520.5781 L347.4844,521.6719 Q347.4844,522.9063 348.375,523.7266 Q349.2656,524.5469 350.8594,524.5469 Q351.7969,524.5469 352.4531,524.2969 Q352.8438,524.1406 353.2656,523.7031 Q353.5313,523.4375 353.6797,523.3594 Q353.8281,523.2813 354.0313,523.2813 Q354.3594,523.2813 354.6172,523.5391 Q354.875,523.7969 354.875,524.1406 Q354.875,524.4844 354.5313,524.8906 Q354.0313,525.4688 353.2344,525.7969 Q352.1563,526.25 350.8594,526.25 Q349.3438,526.25 348.1406,525.625 Q347.1563,525.125 346.4688,524.0547 Q345.7813,522.9844 345.7813,521.7031 L345.7813,520.5469 Q345.7813,519.2188 346.3984,518.0703 Q347.0156,516.9219 348.1094,516.3047 Q349.2031,515.6875 350.4375,515.6875 Q351.1719,515.6875 351.8203,515.8516 Q352.4688,516.0156 353.0156,516.375 Z " fill="#000000"/><text fill="#000000" font-family="sans-serif" font-size="12" lengthAdjust="spacing" textLength="39" x="370.75" y="525.4102">Musica</text><line style="stroke:#A80036;stroke-width:1.5;" x1="305" x2="443" y1="536.5" y2="536.5"/><rect fill="none" height="6" style="stroke:#C82930;stroke-width:1.0;" width="6" x="312" y="544.5"/><text fill="#000000" font-family="sans-serif" font-size="11" lengthAdjust="spacing" textLength="114" x="324" y="551.9189">sequenciaDeComandos</text><line style="stroke:#A80036;stroke-width:1.5;" x1="305" x2="443" y1="558.3359" y2="558.3359"/><!--MD5=[baca43ff017fe2d6adab482eca4194c9]
class ValidadorDeComando--><rect codeLine="89" fill="#FEFECE" filter="url(#fl7tqb9p6qo9y)" height="117.1797" id="ValidadorDeComando" style="stroke:#A80036;stroke-width:1.5;" width="241" x="661.5" y="477"/><ellipse cx="716.25" cy="493" fill="#ADD1B2" rx="11" ry="11" style="stroke:#A80036;stroke-width:1.0;"/><path d="M719.0156,488.875 Q719.1719,488.6563 719.3594,488.5469 Q719.5469,488.4375 719.7656,488.4375 Q720.1406,488.4375 720.375,488.6953 Q720.6094,488.9531 720.6094,489.5625 L720.6094,491.0156 Q720.6094,491.625 720.375,491.8906 Q720.1406,492.1563 719.7656,492.1563 Q719.4219,492.1563 719.2188,491.9531 Q719.0156,491.7656 718.9063,491.25 Q718.8594,490.8906 718.6719,490.7031 Q718.3438,490.3281 717.7344,490.1094 Q717.125,489.8906 716.5,489.8906 Q715.7344,489.8906 715.1016,490.2188 Q714.4688,490.5469 713.9766,491.2969 Q713.4844,492.0469 713.4844,493.0781 L713.4844,494.1719 Q713.4844,495.4063 714.375,496.2266 Q715.2656,497.0469 716.8594,497.0469 Q717.7969,497.0469 718.4531,496.7969 Q718.8438,496.6406 719.2656,496.2031 Q719.5313,495.9375 719.6797,495.8594 Q719.8281,495.7813 720.0313,495.7813 Q720.3594,495.7813 720.6172,496.0391 Q720.875,496.2969 720.875,496.6406 Q720.875,496.9844 720.5313,497.3906 Q720.0313,497.9688 719.2344,498.2969 Q718.1563,498.75 716.8594,498.75 Q715.3438,498.75 714.1406,498.125 Q713.1563,497.625 712.4688,496.5547 Q711.7813,495.4844 711.7813,494.2031 L711.7813,493.0469 Q711.7813,491.7188 712.3984,490.5703 Q713.0156,489.4219 714.1094,488.8047 Q715.2031,488.1875 716.4375,488.1875 Q717.1719,488.1875 717.8203,488.3516 Q718.4688,488.5156 719.0156,488.875 Z " fill="#000000"/><text fill="#000000" font-family="sans-serif" font-size="12" lengthAdjust="spacing" textLength="123" x="736.75" y="497.9102">ValidadorDeComando</text><line style="stroke:#A80036;stroke-width:1.5;" x1="662.5" x2="901.5" y1="509" y2="509"/><line style="stroke:#A80036;stroke-width:1.5;" x1="662.5" x2="901.5" y1="517" y2="517"/><ellipse cx="672.5" cy="528" fill="#84BE84" rx="3" ry="3" style="stroke:#038048;stroke-width:1.0;"/><text fill="#000000" font-family="sans-serif" font-size="11" lengthAdjust="spacing" textLength="123" x="681.5" y="532.4189">eNota(Comando):Boolean</text><ellipse cx="672.5" cy="541.8359" fill="#84BE84" rx="3" ry="3" style="stroke:#038048;stroke-width:1.0;"/><text fill="#000000" font-family="sans-serif" font-size="11" lengthAdjust="spacing" textLength="195" x="681.5" y="546.2549">eComandoDeVolume(Comando):Boolean</text><ellipse cx="672.5" cy="555.6719" fill="#84BE84" rx="3" ry="3" style="stroke:#038048;stroke-width:1.0;"/><text fill="#000000" font-family="sans-serif" font-size="11" lengthAdjust="spacing" textLength="180" x="681.5" y="560.0908">eComandoDeBPM(Comando):Boolean</text><ellipse cx="672.5" cy="569.5078" fill="#84BE84" rx="3" ry="3" style="stroke:#038048;stroke-width:1.0;"/><text fill="#000000" font-family="sans-serif" font-size="11" lengthAdjust="spacing" textLength="190" x="681.5" y="573.9268">eComandoDeOitava(Comando):Boolean</text><ellipse cx="672.5" cy="583.3438" fill="#84BE84" rx="3" ry="3" style="stroke:#038048;stroke-width:1.0;"/><text fill="#000000" font-family="sans-serif" font-size="11" lengthAdjust="spacing" textLength="215" x="681.5" y="587.7627">eComandoDeInstrumento(Comando):Boolean</text><!--MD5=[b65eb35e67c12f80dde7b1f5192fa4e5]
reverse link TradutorTextoComando to TradutorTextoParaComando--><path d="M166.23,585.53 C148.62,627.08 124.16,684.83 110.75,716.48 " fill="none" id="TradutorTextoComando-backto-TradutorTextoParaComando" style="stroke:#A80036;stroke-width:1.0;stroke-dasharray:7.0,7.0;"/><polygon fill="none" points="159.88,582.58,174.12,566.89,172.77,588.04,159.88,582.58" style="stroke:#A80036;stroke-width:1.0;"/><!--MD5=[5fd119549db5b76968d1fa7f6bc1a1f0]
reverse link AdaptadorMusical to AdaptadorJFugue--><path d="M561,621.26 C561,644.3 561,668.52 561,689 " fill="none" id="AdaptadorMusical-backto-AdaptadorJFugue" style="stroke:#A80036;stroke-width:1.0;stroke-dasharray:7.0,7.0;"/><polygon fill="none" points="554,621.01,561,601.01,568,621.01,554,621.01" style="stroke:#A80036;stroke-width:1.0;"/><!--MD5=[8641968d1feeec22deeb3530b4067c26]
reverse link TradutorAdaptador to TradutorJFugue--><path d="M561,976.34 C561,994.84 561,1014.91 561,1029.87 " fill="none" id="TradutorAdaptador-backto-TradutorJFugue" style="stroke:#A80036;stroke-width:1.0;stroke-dasharray:7.0,7.0;"/><polygon fill="none" points="554,976.1,561,956.1,568,976.1,554,976.1" style="stroke:#A80036;stroke-width:1.0;"/><!--MD5=[c84fb3473115a2a87a2fcaf60169d81c]
link ControladorDeGui to Orquestrador--><path codeLine="98" d="M581.8,137.44 C561,156.38 538.61,176.78 519.17,194.48 " fill="none" id="ControladorDeGui-to-Orquestrador" style="stroke:#A80036;stroke-width:1.0;"/><polygon fill="#A80036" points="515.32,197.99,524.6606,194.8669,519.0093,194.6153,519.261,188.964,515.32,197.99" style="stroke:#A80036;stroke-width:1.0;"/><!--MD5=[a9d8ee9710f9efd6032c71ad5d4693c3]
link ControladorDeGui to LeitorDeArquivo--><path codeLine="99" d="M652,138.16 C652,161.34 652,186.6 652,206.41 " fill="none" id="ControladorDeGui-to-LeitorDeArquivo" style="stroke:#A80036;stroke-width:1.0;"/><polygon fill="#A80036" points="652,211.58,656,202.58,652,206.58,648,202.58,652,211.58" style="stroke:#A80036;stroke-width:1.0;"/><!--MD5=[65325e9f065709b66df0d36f925f31bd]
link AdaptadorJFugue to JFugueDownloader--><path codeLine="100" d="M502.23,792.09 C465.72,823.52 419.83,863.03 387.83,890.58 " fill="none" id="AdaptadorJFugue-to-JFugueDownloader" style="stroke:#A80036;stroke-width:1.0;"/><polygon fill="#A80036" points="383.99,893.88,393.4212,891.0423,387.7802,890.619,388.2036,884.978,383.99,893.88" style="stroke:#A80036;stroke-width:1.0;"/><!--MD5=[62aa4cb5e3dd877af5d40116dfa1e6ba]
link Orquestrador to ControladorMusical--><path codeLine="101" d="M501.01,288.25 C514.84,306.24 530.58,326.71 543.53,343.56 " fill="none" id="Orquestrador-to-ControladorMusical" style="stroke:#A80036;stroke-width:1.0;"/><polygon fill="#A80036" points="546.76,347.76,544.4614,338.1831,543.719,343.791,538.1111,343.0487,546.76,347.76" style="stroke:#A80036;stroke-width:1.0;"/><!--MD5=[1b1bcea03a752c7124aec79bab20add1]
link Orquestrador to DecodificadorTexto--><path codeLine="102" d="M433.32,288.25 C419.62,306.24 404.04,326.71 391.22,343.56 " fill="none" id="Orquestrador-to-DecodificadorTexto" style="stroke:#A80036;stroke-width:1.0;"/><polygon fill="#A80036" points="388.02,347.76,396.65,343.0141,391.0451,343.7789,390.2802,338.174,388.02,347.76" style="stroke:#A80036;stroke-width:1.0;"/><!--MD5=[7fdd772908b8c3c928ae37a7efadeb59]
link DecodificadorTexto to TradutorTextoComando--><path codeLine="103" d="M330.26,410.16 C300.24,436.21 256.91,473.82 225.77,500.85 " fill="none" id="DecodificadorTexto-to-TradutorTextoComando" style="stroke:#A80036;stroke-width:1.0;"/><polygon fill="#A80036" points="221.66,504.42,231.0735,501.524,225.43,501.1356,225.8184,495.4921,221.66,504.42" style="stroke:#A80036;stroke-width:1.0;"/><!--MD5=[dc0470bf4ec233f20c7c20b737be2079]
link DecodificadorTexto to Musica--><path codeLine="104" d="M366.76,410.16 C368.24,435.68 370.38,472.29 371.94,499.18 " fill="none" id="DecodificadorTexto-to-Musica" style="stroke:#A80036;stroke-width:1.0;"/><polygon fill="#A80036" points="372.25,504.42,375.7285,495.2059,371.9639,499.4282,367.7416,495.6636,372.25,504.42" style="stroke:#A80036;stroke-width:1.0;"/><!--MD5=[0d3daf707f0727c8f6208f40d95f6c89]
link ControladorMusical to AdaptadorMusical--><path codeLine="105" d="M568.24,410.16 C567.34,425.73 566.19,445.43 565.08,464.53 " fill="none" id="ControladorMusical-to-AdaptadorMusical" style="stroke:#A80036;stroke-width:1.0;"/><polygon fill="#A80036" points="564.76,469.9,569.2684,461.1436,565.0461,464.9082,561.2815,460.6859,564.76,469.9" style="stroke:#A80036;stroke-width:1.0;"/><!--MD5=[30ca05da6a31f9e99e98f12680d53e46]
link ControladorMusical to ValidadorDeComando--><path codeLine="106" d="M611.38,410.16 C636.19,428.24 668.63,451.88 698.56,473.69 " fill="none" id="ControladorMusical-to-ValidadorDeComando" style="stroke:#A80036;stroke-width:1.0;stroke-dasharray:7.0,7.0;"/><polygon fill="#A80036" points="702.96,476.89,698.0718,468.3399,698.9293,473.9313,693.3379,474.7889,702.96,476.89" style="stroke:#A80036;stroke-width:1.0;"/><!--MD5=[b32da690e438aa28f7a9d3c66551d285]
link TradutorTextoComando to Comando--><path codeLine="107" d="M200.02,566.89 C210.15,590.51 224.69,624.44 238.21,655.98 " fill="none" id="TradutorTextoComando-to-Comando" style="stroke:#A80036;stroke-width:1.0;"/><polygon fill="#A80036" points="240.19,660.62,240.3213,650.772,238.2204,656.0243,232.9681,653.9234,240.19,660.62" style="stroke:#A80036;stroke-width:1.0;"/><!--MD5=[570e8251817d076629998f888b591c14]
link ControladorDeGui to estadoGui--><path codeLine="108" d="M716.09,138.16 C736.96,159.22 759.54,182 778.22,200.85 " fill="none" id="ControladorDeGui-to-estadoGui" style="stroke:#A80036;stroke-width:1.0;"/><polygon fill="#A80036" points="781.9,204.57,778.383,195.3705,778.3716,201.0273,772.7148,201.0159,781.9,204.57" style="stroke:#A80036;stroke-width:1.0;"/><!--MD5=[9bd65c19b445a9e48b025a3bf08fc8d4]
link AdaptadorJFugue to Instrumento--><path codeLine="109" d="M613.95,792.09 C641.41,818.34 674.78,850.22 701.83,876.06 " fill="none" id="AdaptadorJFugue-to-Instrumento" style="stroke:#A80036;stroke-width:1.0;"/><polygon fill="#A80036" points="705.77,879.83,702.0311,870.7184,702.1568,876.3739,696.5013,876.4996,705.77,879.83" style="stroke:#A80036;stroke-width:1.0;"/><!--MD5=[b9a0f738aa170f99b10fad7721a5c344]
link AdaptadorJFugue to TradutorAdaptador--><path codeLine="110" d="M561,792.34 C561,822.99 561,861.26 561,888.63 " fill="none" id="AdaptadorJFugue-to-TradutorAdaptador" style="stroke:#A80036;stroke-width:1.0;"/><polygon fill="#A80036" points="561,893.96,565,884.96,561,888.96,557,884.96,561,893.96" style="stroke:#A80036;stroke-width:1.0;"/><!--MD5=[60ef639e0cc24fe218329dc57c68eade]
@startuml classes

class Orquestrador{
    - DecodificadorTexto
    - ControladorMusical
    + orquestra( String , Boolean)
}

class ControladorDeGui{
    - estadoGui
    + entraTexto():String
    + entraArquivo():String
    + salvarMusica():Boolean
    + abrir()
    + fechar()
}

class LeitorDeArquivo{
    + leArquivo(String):String
}

enum estadoGui{
    + Standby
    + ProcessandoMusica
}

class DecodificadorTexto{
    + traduzTexto(String):Musica
}

interface TradutorTextoComando{
    + traduz(String):comando
}

class TradutorTextoParaComando implements TradutorTextoComando{}

class ControladorMusical{
    + executaMusica(Musica,Boolean)
}

interface AdaptadorMusical{
    + tocarNota(Comando)
    + aumentarOitava()
    + reduzirOitava()
    + aumentarVolume()
    + reduzirVolume()
    + salvaMusica()
}

class AdaptadorJFugue implements AdaptadorMusical{
    - BPM
    - Oitava
    - Volume
    - Instrumento
}

class JFugueDownloader{
    + salvarMusica()
}

interface TradutorAdaptador{
    + traduzParaAdaptador(Comando):String
}

class TradutorJFugue implements TradutorAdaptador{

}

enum Instrumento{
    - bateria
    - piano
    - guiatarra
}

enum Comando{
    + do
    + re
    + mi
    + fa
    + sol
    + la
    + si
    ...
}

class Musica{
    - sequenciaDeComandos
}

class ValidadorDeComando{
    + eNota(Comando):Boolean
    + eComandoDeVolume(Comando):Boolean
    + eComandoDeBPM(Comando):Boolean
    + eComandoDeOitava(Comando):Boolean
    + eComandoDeInstrumento(Comando):Boolean
}


ControladorDeGui - -> Orquestrador
ControladorDeGui - -> LeitorDeArquivo
AdaptadorJFugue - -> JFugueDownloader
Orquestrador - -> ControladorMusical
Orquestrador - -> DecodificadorTexto
DecodificadorTexto - -> TradutorTextoComando
DecodificadorTexto - -> Musica
ControladorMusical - -> AdaptadorMusical
ControladorMusical ..> ValidadorDeComando
TradutorTextoComando - -> Comando
ControladorDeGui - -> estadoGui
AdaptadorJFugue - -> Instrumento
AdaptadorJFugue - -> TradutorAdaptador


@enduml

PlantUML version 1.2022.0(Tue Jan 11 14:16:42 BRST 2022)
(GPL source distribution)
Java Runtime: Java(TM) SE Runtime Environment
JVM: Java HotSpot(TM) 64-Bit Server VM
Default Encoding: Cp1252
Language: pt
Country: BR
--></g></svg>